G04 (created by PCBNEW-RS274X (2012-01-19 BZR 3256)-stable) date Mon 10 Dec 2012 14:48:19 GMT*
G01*
G70*
G90*
%MOIN*%
G04 Gerber Fmt 3.4, Leading zero omitted, Abs format*
%FSLAX34Y34*%
G04 APERTURE LIST*
%ADD10C,0.006000*%
%ADD11R,0.051200X0.118100*%
%ADD12C,0.102400*%
%ADD13R,0.051200X0.059100*%
%ADD14R,0.059100X0.051200*%
%ADD15C,0.060000*%
%ADD16R,0.060000X0.060000*%
%ADD17C,0.035000*%
%ADD18C,0.008000*%
G04 APERTURE END LIST*
G54D10*
G54D11*
X66674Y-46457D03*
X65887Y-46457D03*
X65099Y-46457D03*
X64312Y-46457D03*
X63524Y-46457D03*
X62737Y-46457D03*
X61950Y-46457D03*
X61162Y-46457D03*
X60375Y-46457D03*
X59587Y-46457D03*
X58800Y-46457D03*
X58013Y-46457D03*
X57225Y-46457D03*
G54D12*
X56181Y-32283D03*
X57953Y-32283D03*
X59724Y-32283D03*
X56181Y-47638D03*
X59764Y-47638D03*
X62953Y-47638D03*
X66142Y-47638D03*
G54D13*
X56692Y-36496D03*
X57442Y-36496D03*
G54D14*
X66535Y-38208D03*
X66535Y-38958D03*
X67717Y-38208D03*
X67717Y-38958D03*
G54D13*
X58424Y-40866D03*
X59174Y-40866D03*
X58680Y-36496D03*
X59430Y-36496D03*
G54D15*
X63000Y-44000D03*
X54000Y-35500D03*
X54000Y-43500D03*
X54000Y-36500D03*
X56000Y-44000D03*
X57000Y-44000D03*
X58000Y-44000D03*
X59000Y-44000D03*
X60000Y-44000D03*
X61000Y-44000D03*
X62000Y-44000D03*
X54000Y-42500D03*
X64000Y-44000D03*
X65000Y-44000D03*
X66000Y-44000D03*
X67000Y-44000D03*
X68000Y-44000D03*
X54000Y-45500D03*
X54000Y-44500D03*
X54000Y-46500D03*
X54000Y-40500D03*
X54000Y-38500D03*
X54000Y-41500D03*
X54000Y-37500D03*
G54D16*
X51000Y-46500D03*
G54D15*
X52000Y-46500D03*
X51000Y-45500D03*
X52000Y-45500D03*
X51000Y-44500D03*
X52000Y-44500D03*
X52000Y-43500D03*
X51000Y-43500D03*
X52000Y-42500D03*
X51000Y-42500D03*
X52000Y-41500D03*
X51000Y-41500D03*
G54D16*
X52000Y-38500D03*
G54D15*
X52000Y-37500D03*
X52000Y-36500D03*
X52000Y-35500D03*
G54D14*
X65354Y-38208D03*
X65354Y-38958D03*
G54D16*
X51000Y-38500D03*
G54D15*
X51000Y-37500D03*
X51000Y-36500D03*
X51000Y-35500D03*
G54D17*
X56811Y-37067D03*
X56299Y-39685D03*
X58307Y-40315D03*
X59291Y-38661D03*
X59291Y-40315D03*
X57323Y-37067D03*
X65354Y-39528D03*
X57323Y-38661D03*
X66535Y-39528D03*
X67717Y-39528D03*
X65906Y-39528D03*
X58819Y-37067D03*
X59311Y-37067D03*
G54D18*
X56692Y-36948D02*
X56692Y-36496D01*
X56811Y-37067D02*
X56692Y-36948D01*
X56299Y-41733D02*
X56299Y-39685D01*
X54532Y-43500D02*
X56299Y-41733D01*
X54000Y-43500D02*
X54532Y-43500D01*
X54000Y-37500D02*
X52000Y-37500D01*
X58307Y-40315D02*
X58424Y-40432D01*
X58424Y-40432D02*
X58424Y-40866D01*
X52000Y-37500D02*
X51000Y-38500D01*
X54000Y-38500D02*
X52000Y-38500D01*
X60394Y-38661D02*
X59291Y-38661D01*
X65354Y-39528D02*
X61261Y-39528D01*
X65354Y-38958D02*
X65354Y-39528D01*
X61261Y-39528D02*
X60394Y-38661D01*
X57323Y-37067D02*
X57442Y-36948D01*
X54961Y-39921D02*
X53579Y-39921D01*
X53579Y-39921D02*
X52000Y-41500D01*
X56221Y-38661D02*
X54961Y-39921D01*
X59174Y-40432D02*
X59291Y-40315D01*
X59174Y-40866D02*
X59174Y-40432D01*
X57323Y-38661D02*
X56221Y-38661D01*
X57442Y-36948D02*
X57442Y-36496D01*
X59291Y-38661D02*
X57323Y-38661D01*
X65827Y-40236D02*
X61299Y-40236D01*
X54764Y-44055D02*
X54764Y-44736D01*
X61299Y-40236D02*
X59724Y-41811D01*
X59724Y-41811D02*
X57008Y-41811D01*
X66535Y-38958D02*
X66535Y-39528D01*
X54764Y-44736D02*
X54000Y-45500D01*
X66535Y-39528D02*
X65827Y-40236D01*
X57008Y-41811D02*
X54764Y-44055D01*
X59843Y-42126D02*
X61418Y-40551D01*
X66694Y-40551D02*
X67717Y-39528D01*
X57087Y-42126D02*
X59843Y-42126D01*
X54000Y-46500D02*
X54012Y-46500D01*
X55039Y-45473D02*
X55039Y-44174D01*
X67717Y-38958D02*
X67717Y-39528D01*
X55039Y-44174D02*
X57087Y-42126D01*
X54012Y-46500D02*
X55039Y-45473D01*
X61418Y-40551D02*
X66694Y-40551D01*
X59527Y-41496D02*
X57008Y-41496D01*
X65512Y-39921D02*
X61102Y-39921D01*
X66535Y-38208D02*
X65906Y-38208D01*
X67717Y-38208D02*
X66535Y-38208D01*
X65906Y-38208D02*
X65354Y-38208D01*
X65906Y-39528D02*
X65906Y-38208D01*
X57008Y-41496D02*
X54488Y-44016D01*
X51516Y-45984D02*
X51000Y-46500D01*
X65906Y-39528D02*
X65905Y-39528D01*
X61102Y-39921D02*
X59527Y-41496D01*
X52283Y-45984D02*
X51516Y-45984D01*
X52756Y-45511D02*
X52283Y-45984D01*
X53779Y-44016D02*
X52756Y-45039D01*
X52756Y-45039D02*
X52756Y-45511D01*
X54488Y-44016D02*
X53779Y-44016D01*
X65905Y-39528D02*
X65512Y-39921D01*
X57225Y-46457D02*
X57225Y-45709D01*
X56000Y-44484D02*
X56000Y-44000D01*
X57225Y-45709D02*
X56000Y-44484D01*
X58000Y-44909D02*
X58000Y-44000D01*
X58800Y-46457D02*
X58800Y-45709D01*
X58800Y-45709D02*
X58000Y-44909D01*
X60000Y-45334D02*
X60000Y-44000D01*
X60375Y-45709D02*
X60000Y-45334D01*
X60375Y-46457D02*
X60375Y-45709D01*
X62000Y-45578D02*
X61950Y-45628D01*
X62000Y-44000D02*
X62000Y-45578D01*
X61950Y-45628D02*
X61950Y-46457D01*
X63524Y-45728D02*
X64000Y-45252D01*
X64000Y-45252D02*
X64000Y-44000D01*
X63524Y-46457D02*
X63524Y-45728D01*
X58819Y-37067D02*
X58680Y-36928D01*
X58680Y-36928D02*
X58680Y-36496D01*
X59430Y-36948D02*
X59430Y-36496D01*
X59311Y-37067D02*
X59430Y-36948D01*
X59000Y-45122D02*
X59000Y-44000D01*
X59587Y-46457D02*
X59587Y-45709D01*
X59587Y-45709D02*
X59000Y-45122D01*
X61000Y-45547D02*
X61000Y-44000D01*
X61162Y-46457D02*
X61162Y-45709D01*
X61162Y-45709D02*
X61000Y-45547D01*
X68000Y-44402D02*
X68000Y-44000D01*
X66674Y-46457D02*
X66674Y-45728D01*
X66674Y-45728D02*
X68000Y-44402D01*
X65887Y-45728D02*
X67000Y-44615D01*
X65887Y-46457D02*
X65887Y-45728D01*
X67000Y-44615D02*
X67000Y-44000D01*
X65000Y-45040D02*
X65000Y-44000D01*
X64312Y-46457D02*
X64312Y-45728D01*
X64312Y-45728D02*
X65000Y-45040D01*
X57000Y-44697D02*
X57000Y-44000D01*
X58013Y-46457D02*
X58013Y-45710D01*
X58013Y-45710D02*
X57000Y-44697D01*
X65099Y-45728D02*
X66000Y-44827D01*
X65099Y-46457D02*
X65099Y-45728D01*
X66000Y-44827D02*
X66000Y-44000D01*
X62737Y-45727D02*
X63000Y-45464D01*
X63000Y-45464D02*
X63000Y-44000D01*
X62737Y-46457D02*
X62737Y-45727D01*
X54000Y-35500D02*
X52000Y-35500D01*
X52000Y-36500D02*
X51000Y-35500D01*
X54000Y-36500D02*
X52000Y-36500D01*
M02*
