G04 (created by PCBNEW-RS274X (2012-01-19 BZR 3256)-stable) date Mon 10 Dec 2012 15:28:45 GMT*
G01*
G70*
G90*
%MOIN*%
G04 Gerber Fmt 3.4, Leading zero omitted, Abs format*
%FSLAX34Y34*%
G04 APERTURE LIST*
%ADD10C,0.006000*%
%ADD11R,0.059200X0.126100*%
%ADD12C,0.110400*%
%ADD13R,0.059200X0.067100*%
%ADD14R,0.067100X0.059200*%
%ADD15C,0.068000*%
%ADD16R,0.068000X0.068000*%
G04 APERTURE END LIST*
G54D10*
G54D11*
X66674Y-46457D03*
X65887Y-46457D03*
X65099Y-46457D03*
X64312Y-46457D03*
X63524Y-46457D03*
X62737Y-46457D03*
X61950Y-46457D03*
X61162Y-46457D03*
X60375Y-46457D03*
X59587Y-46457D03*
X58800Y-46457D03*
X58013Y-46457D03*
X57225Y-46457D03*
G54D12*
X56181Y-32283D03*
X57953Y-32283D03*
X59724Y-32283D03*
X56181Y-47638D03*
X59764Y-47638D03*
X62953Y-47638D03*
X66142Y-47638D03*
G54D13*
X56692Y-36496D03*
X57442Y-36496D03*
G54D14*
X66535Y-38208D03*
X66535Y-38958D03*
X67717Y-38208D03*
X67717Y-38958D03*
G54D13*
X58424Y-40866D03*
X59174Y-40866D03*
X58680Y-36496D03*
X59430Y-36496D03*
G54D15*
X63000Y-44000D03*
X54000Y-35500D03*
X54000Y-43500D03*
X54000Y-36500D03*
X56000Y-44000D03*
X57000Y-44000D03*
X58000Y-44000D03*
X59000Y-44000D03*
X60000Y-44000D03*
X61000Y-44000D03*
X62000Y-44000D03*
X54000Y-42500D03*
X64000Y-44000D03*
X65000Y-44000D03*
X66000Y-44000D03*
X67000Y-44000D03*
X68000Y-44000D03*
X54000Y-45500D03*
X54000Y-44500D03*
X54000Y-46500D03*
X54000Y-40500D03*
X54000Y-38500D03*
X54000Y-41500D03*
X54000Y-37500D03*
G54D16*
X51000Y-46500D03*
G54D15*
X52000Y-46500D03*
X51000Y-45500D03*
X52000Y-45500D03*
X51000Y-44500D03*
X52000Y-44500D03*
X52000Y-43500D03*
X51000Y-43500D03*
X52000Y-42500D03*
X51000Y-42500D03*
X52000Y-41500D03*
X51000Y-41500D03*
G54D16*
X52000Y-38500D03*
G54D15*
X52000Y-37500D03*
X52000Y-36500D03*
X52000Y-35500D03*
G54D14*
X65354Y-38208D03*
X65354Y-38958D03*
G54D16*
X51000Y-38500D03*
G54D15*
X51000Y-37500D03*
X51000Y-36500D03*
X51000Y-35500D03*
M02*
