M48
;DRILL file {Pcbnew (2012-01-19 BZR 3256)-stable} date Mon 10 Dec 2012 15:28:47 GMT
;FORMAT={-:-/ absolute / inch / decimal}
FMAT,2
INCH,TZ
T1C0.020
T2C0.040
T3C0.083
%
G90
G05
M72
T1
X5.630Y-3.969
X5.681Y-3.707
X5.732Y-3.707
X5.732Y-3.866
X5.831Y-4.032
X5.882Y-3.707
X5.929Y-3.866
X5.929Y-4.032
X5.931Y-3.707
X6.535Y-3.953
X6.591Y-3.953
X6.654Y-3.953
X6.772Y-3.953
T2
X5.100Y-3.550
X5.100Y-3.650
X5.100Y-3.750
X5.100Y-3.850
X5.100Y-4.150
X5.100Y-4.250
X5.100Y-4.350
X5.100Y-4.450
X5.100Y-4.550
X5.100Y-4.650
X5.200Y-3.550
X5.200Y-3.650
X5.200Y-3.750
X5.200Y-3.850
X5.200Y-4.150
X5.200Y-4.250
X5.200Y-4.350
X5.200Y-4.450
X5.200Y-4.550
X5.200Y-4.650
X5.400Y-3.550
X5.400Y-3.650
X5.400Y-3.750
X5.400Y-3.850
X5.400Y-4.050
X5.400Y-4.150
X5.400Y-4.250
X5.400Y-4.350
X5.400Y-4.450
X5.400Y-4.550
X5.400Y-4.650
X5.600Y-4.400
X5.700Y-4.400
X5.800Y-4.400
X5.900Y-4.400
X6.000Y-4.400
X6.100Y-4.400
X6.200Y-4.400
X6.300Y-4.400
X6.400Y-4.400
X6.500Y-4.400
X6.600Y-4.400
X6.700Y-4.400
X6.800Y-4.400
T3
X5.618Y-3.228
X5.618Y-4.764
X5.795Y-3.228
X5.972Y-3.228
X5.976Y-4.764
X6.295Y-4.764
X6.614Y-4.764
T0
M30
