G04 (created by PCBNEW-RS274X (2012-01-19 BZR 3256)-stable) date Mon 10 Dec 2012 15:28:45 GMT*
G01*
G70*
G90*
%MOIN*%
G04 Gerber Fmt 3.4, Leading zero omitted, Abs format*
%FSLAX34Y34*%
G04 APERTURE LIST*
%ADD10C,0.006000*%
%ADD11C,0.000100*%
%ADD12C,0.005000*%
%ADD13C,0.012000*%
G04 APERTURE END LIST*
G54D10*
G54D11*
G36*
X50710Y-34802D02*
X50728Y-34793D01*
X50769Y-34767D01*
X50828Y-34729D01*
X50897Y-34682D01*
X50966Y-34635D01*
X51023Y-34597D01*
X51063Y-34571D01*
X51080Y-34562D01*
X51089Y-34565D01*
X51122Y-34581D01*
X51170Y-34606D01*
X51198Y-34621D01*
X51242Y-34639D01*
X51263Y-34643D01*
X51267Y-34637D01*
X51283Y-34604D01*
X51308Y-34546D01*
X51341Y-34470D01*
X51379Y-34381D01*
X51420Y-34285D01*
X51461Y-34188D01*
X51499Y-34094D01*
X51534Y-34010D01*
X51561Y-33942D01*
X51579Y-33895D01*
X51586Y-33874D01*
X51584Y-33870D01*
X51562Y-33849D01*
X51523Y-33820D01*
X51441Y-33753D01*
X51359Y-33650D01*
X51309Y-33534D01*
X51292Y-33405D01*
X51306Y-33286D01*
X51353Y-33171D01*
X51434Y-33068D01*
X51531Y-32991D01*
X51644Y-32942D01*
X51772Y-32926D01*
X51894Y-32940D01*
X52011Y-32986D01*
X52115Y-33065D01*
X52158Y-33116D01*
X52219Y-33220D01*
X52253Y-33332D01*
X52256Y-33361D01*
X52251Y-33484D01*
X52215Y-33602D01*
X52150Y-33707D01*
X52060Y-33794D01*
X52049Y-33802D01*
X52007Y-33833D01*
X51979Y-33855D01*
X51957Y-33873D01*
X52113Y-34250D01*
X52139Y-34310D01*
X52181Y-34413D01*
X52219Y-34502D01*
X52250Y-34573D01*
X52270Y-34620D01*
X52280Y-34639D01*
X52281Y-34640D01*
X52294Y-34642D01*
X52323Y-34632D01*
X52376Y-34606D01*
X52411Y-34589D01*
X52451Y-34569D01*
X52469Y-34562D01*
X52484Y-34570D01*
X52523Y-34595D01*
X52579Y-34633D01*
X52646Y-34679D01*
X52710Y-34722D01*
X52769Y-34761D01*
X52813Y-34789D01*
X52833Y-34800D01*
X52837Y-34800D01*
X52855Y-34790D01*
X52889Y-34761D01*
X52941Y-34713D01*
X53013Y-34641D01*
X53024Y-34630D01*
X53084Y-34569D01*
X53133Y-34518D01*
X53165Y-34482D01*
X53177Y-34465D01*
X53177Y-34465D01*
X53166Y-34445D01*
X53139Y-34402D01*
X53100Y-34342D01*
X53052Y-34272D01*
X52927Y-34090D01*
X52996Y-33919D01*
X53017Y-33867D01*
X53044Y-33803D01*
X53064Y-33758D01*
X53074Y-33738D01*
X53092Y-33731D01*
X53139Y-33720D01*
X53207Y-33706D01*
X53288Y-33691D01*
X53366Y-33676D01*
X53435Y-33663D01*
X53486Y-33653D01*
X53509Y-33649D01*
X53514Y-33646D01*
X53518Y-33635D01*
X53521Y-33611D01*
X53523Y-33569D01*
X53524Y-33502D01*
X53524Y-33405D01*
X53524Y-33395D01*
X53523Y-33303D01*
X53522Y-33229D01*
X53519Y-33181D01*
X53516Y-33162D01*
X53516Y-33162D01*
X53494Y-33157D01*
X53445Y-33146D01*
X53375Y-33133D01*
X53292Y-33117D01*
X53287Y-33116D01*
X53204Y-33100D01*
X53134Y-33085D01*
X53086Y-33074D01*
X53065Y-33068D01*
X53061Y-33062D01*
X53044Y-33030D01*
X53020Y-32978D01*
X52993Y-32915D01*
X52966Y-32850D01*
X52942Y-32792D01*
X52926Y-32748D01*
X52922Y-32728D01*
X52922Y-32728D01*
X52934Y-32708D01*
X52963Y-32665D01*
X53003Y-32605D01*
X53052Y-32535D01*
X53055Y-32529D01*
X53103Y-32459D01*
X53142Y-32400D01*
X53167Y-32358D01*
X53177Y-32339D01*
X53177Y-32338D01*
X53161Y-32317D01*
X53125Y-32277D01*
X53074Y-32224D01*
X53013Y-32162D01*
X52993Y-32142D01*
X52925Y-32076D01*
X52878Y-32032D01*
X52849Y-32009D01*
X52834Y-32004D01*
X52834Y-32004D01*
X52813Y-32017D01*
X52769Y-32046D01*
X52708Y-32087D01*
X52637Y-32135D01*
X52632Y-32138D01*
X52562Y-32186D01*
X52504Y-32225D01*
X52463Y-32253D01*
X52444Y-32264D01*
X52441Y-32264D01*
X52413Y-32256D01*
X52363Y-32238D01*
X52302Y-32214D01*
X52237Y-32188D01*
X52178Y-32164D01*
X52134Y-32143D01*
X52113Y-32131D01*
X52112Y-32130D01*
X52105Y-32105D01*
X52093Y-32053D01*
X52078Y-31981D01*
X52062Y-31895D01*
X52059Y-31881D01*
X52043Y-31798D01*
X52030Y-31729D01*
X52020Y-31681D01*
X52015Y-31661D01*
X52003Y-31659D01*
X51962Y-31656D01*
X51900Y-31654D01*
X51825Y-31653D01*
X51746Y-31654D01*
X51668Y-31655D01*
X51602Y-31658D01*
X51555Y-31661D01*
X51535Y-31665D01*
X51534Y-31666D01*
X51527Y-31692D01*
X51515Y-31744D01*
X51501Y-31817D01*
X51484Y-31903D01*
X51481Y-31918D01*
X51466Y-32001D01*
X51452Y-32070D01*
X51442Y-32117D01*
X51436Y-32135D01*
X51429Y-32139D01*
X51394Y-32154D01*
X51338Y-32177D01*
X51269Y-32205D01*
X51109Y-32270D01*
X50912Y-32135D01*
X50894Y-32123D01*
X50823Y-32075D01*
X50765Y-32036D01*
X50725Y-32010D01*
X50708Y-32001D01*
X50707Y-32001D01*
X50687Y-32019D01*
X50648Y-32055D01*
X50595Y-32107D01*
X50533Y-32169D01*
X50487Y-32214D01*
X50433Y-32270D01*
X50398Y-32307D01*
X50380Y-32331D01*
X50373Y-32345D01*
X50375Y-32355D01*
X50387Y-32375D01*
X50416Y-32418D01*
X50457Y-32478D01*
X50505Y-32547D01*
X50544Y-32605D01*
X50587Y-32671D01*
X50615Y-32719D01*
X50624Y-32742D01*
X50622Y-32751D01*
X50608Y-32790D01*
X50585Y-32848D01*
X50555Y-32917D01*
X50487Y-33073D01*
X50385Y-33093D01*
X50323Y-33104D01*
X50236Y-33121D01*
X50153Y-33137D01*
X50024Y-33162D01*
X50020Y-33637D01*
X50040Y-33645D01*
X50059Y-33651D01*
X50107Y-33661D01*
X50175Y-33675D01*
X50256Y-33690D01*
X50324Y-33703D01*
X50394Y-33716D01*
X50443Y-33726D01*
X50465Y-33730D01*
X50471Y-33738D01*
X50488Y-33771D01*
X50513Y-33825D01*
X50540Y-33889D01*
X50568Y-33955D01*
X50592Y-34017D01*
X50610Y-34063D01*
X50616Y-34088D01*
X50606Y-34106D01*
X50580Y-34146D01*
X50542Y-34204D01*
X50495Y-34273D01*
X50448Y-34342D01*
X50408Y-34401D01*
X50381Y-34443D01*
X50369Y-34463D01*
X50375Y-34476D01*
X50402Y-34509D01*
X50454Y-34563D01*
X50531Y-34639D01*
X50544Y-34651D01*
X50606Y-34710D01*
X50657Y-34758D01*
X50694Y-34791D01*
X50710Y-34802D01*
X50710Y-34802D01*
G37*
G54D12*
X56389Y-36835D02*
X56388Y-36844D01*
X56385Y-36854D01*
X56380Y-36862D01*
X56374Y-36870D01*
X56366Y-36876D01*
X56358Y-36881D01*
X56349Y-36883D01*
X56339Y-36884D01*
X56330Y-36884D01*
X56321Y-36881D01*
X56312Y-36876D01*
X56305Y-36870D01*
X56298Y-36863D01*
X56294Y-36854D01*
X56291Y-36845D01*
X56290Y-36835D01*
X56290Y-36826D01*
X56293Y-36817D01*
X56297Y-36808D01*
X56304Y-36801D01*
X56311Y-36794D01*
X56319Y-36790D01*
X56329Y-36787D01*
X56338Y-36786D01*
X56347Y-36786D01*
X56357Y-36789D01*
X56365Y-36793D01*
X56373Y-36799D01*
X56379Y-36807D01*
X56384Y-36815D01*
X56387Y-36824D01*
X56388Y-36834D01*
X56389Y-36835D01*
X56789Y-36835D02*
X56389Y-36835D01*
X56389Y-36835D02*
X56389Y-36157D01*
X56388Y-36157D02*
X56788Y-36157D01*
X57345Y-36157D02*
X57745Y-36157D01*
X57745Y-36157D02*
X57745Y-36835D01*
X57746Y-36835D02*
X57346Y-36835D01*
X66246Y-37855D02*
X66245Y-37864D01*
X66242Y-37874D01*
X66237Y-37882D01*
X66231Y-37890D01*
X66223Y-37896D01*
X66215Y-37901D01*
X66206Y-37903D01*
X66196Y-37904D01*
X66187Y-37904D01*
X66178Y-37901D01*
X66169Y-37896D01*
X66162Y-37890D01*
X66155Y-37883D01*
X66151Y-37874D01*
X66148Y-37865D01*
X66147Y-37855D01*
X66147Y-37846D01*
X66150Y-37837D01*
X66154Y-37828D01*
X66161Y-37821D01*
X66168Y-37814D01*
X66176Y-37810D01*
X66186Y-37807D01*
X66195Y-37806D01*
X66204Y-37806D01*
X66214Y-37809D01*
X66222Y-37813D01*
X66230Y-37819D01*
X66236Y-37827D01*
X66241Y-37835D01*
X66244Y-37844D01*
X66245Y-37854D01*
X66246Y-37855D01*
X66196Y-38305D02*
X66196Y-37905D01*
X66196Y-37905D02*
X66874Y-37905D01*
X66874Y-37904D02*
X66874Y-38304D01*
X66874Y-38861D02*
X66874Y-39261D01*
X66874Y-39261D02*
X66196Y-39261D01*
X66196Y-39262D02*
X66196Y-38862D01*
X67428Y-37855D02*
X67427Y-37864D01*
X67424Y-37874D01*
X67419Y-37882D01*
X67413Y-37890D01*
X67405Y-37896D01*
X67397Y-37901D01*
X67388Y-37903D01*
X67378Y-37904D01*
X67369Y-37904D01*
X67360Y-37901D01*
X67351Y-37896D01*
X67344Y-37890D01*
X67337Y-37883D01*
X67333Y-37874D01*
X67330Y-37865D01*
X67329Y-37855D01*
X67329Y-37846D01*
X67332Y-37837D01*
X67336Y-37828D01*
X67343Y-37821D01*
X67350Y-37814D01*
X67358Y-37810D01*
X67368Y-37807D01*
X67377Y-37806D01*
X67386Y-37806D01*
X67396Y-37809D01*
X67404Y-37813D01*
X67412Y-37819D01*
X67418Y-37827D01*
X67423Y-37835D01*
X67426Y-37844D01*
X67427Y-37854D01*
X67428Y-37855D01*
X67378Y-38305D02*
X67378Y-37905D01*
X67378Y-37905D02*
X68056Y-37905D01*
X68056Y-37904D02*
X68056Y-38304D01*
X68056Y-38861D02*
X68056Y-39261D01*
X68056Y-39261D02*
X67378Y-39261D01*
X67378Y-39262D02*
X67378Y-38862D01*
X58121Y-41205D02*
X58120Y-41214D01*
X58117Y-41224D01*
X58112Y-41232D01*
X58106Y-41240D01*
X58098Y-41246D01*
X58090Y-41251D01*
X58081Y-41253D01*
X58071Y-41254D01*
X58062Y-41254D01*
X58053Y-41251D01*
X58044Y-41246D01*
X58037Y-41240D01*
X58030Y-41233D01*
X58026Y-41224D01*
X58023Y-41215D01*
X58022Y-41205D01*
X58022Y-41196D01*
X58025Y-41187D01*
X58029Y-41178D01*
X58036Y-41171D01*
X58043Y-41164D01*
X58051Y-41160D01*
X58061Y-41157D01*
X58070Y-41156D01*
X58079Y-41156D01*
X58089Y-41159D01*
X58097Y-41163D01*
X58105Y-41169D01*
X58111Y-41177D01*
X58116Y-41185D01*
X58119Y-41194D01*
X58120Y-41204D01*
X58121Y-41205D01*
X58521Y-41205D02*
X58121Y-41205D01*
X58121Y-41205D02*
X58121Y-40527D01*
X58120Y-40527D02*
X58520Y-40527D01*
X59077Y-40527D02*
X59477Y-40527D01*
X59477Y-40527D02*
X59477Y-41205D01*
X59478Y-41205D02*
X59078Y-41205D01*
X58377Y-36835D02*
X58376Y-36844D01*
X58373Y-36854D01*
X58368Y-36862D01*
X58362Y-36870D01*
X58354Y-36876D01*
X58346Y-36881D01*
X58337Y-36883D01*
X58327Y-36884D01*
X58318Y-36884D01*
X58309Y-36881D01*
X58300Y-36876D01*
X58293Y-36870D01*
X58286Y-36863D01*
X58282Y-36854D01*
X58279Y-36845D01*
X58278Y-36835D01*
X58278Y-36826D01*
X58281Y-36817D01*
X58285Y-36808D01*
X58292Y-36801D01*
X58299Y-36794D01*
X58307Y-36790D01*
X58317Y-36787D01*
X58326Y-36786D01*
X58335Y-36786D01*
X58345Y-36789D01*
X58353Y-36793D01*
X58361Y-36799D01*
X58367Y-36807D01*
X58372Y-36815D01*
X58375Y-36824D01*
X58376Y-36834D01*
X58377Y-36835D01*
X58777Y-36835D02*
X58377Y-36835D01*
X58377Y-36835D02*
X58377Y-36157D01*
X58376Y-36157D02*
X58776Y-36157D01*
X59333Y-36157D02*
X59733Y-36157D01*
X59733Y-36157D02*
X59733Y-36835D01*
X59734Y-36835D02*
X59334Y-36835D01*
G54D10*
X62500Y-44500D02*
X62500Y-43500D01*
X62500Y-43500D02*
X63500Y-43500D01*
X63500Y-43500D02*
X63500Y-44500D01*
X63500Y-44500D02*
X62500Y-44500D01*
X54500Y-36000D02*
X53500Y-36000D01*
X53500Y-36000D02*
X53500Y-35000D01*
X53500Y-35000D02*
X54500Y-35000D01*
X54500Y-35000D02*
X54500Y-36000D01*
X54500Y-44000D02*
X53500Y-44000D01*
X53500Y-44000D02*
X53500Y-43000D01*
X53500Y-43000D02*
X54500Y-43000D01*
X54500Y-43000D02*
X54500Y-44000D01*
X54500Y-37000D02*
X53500Y-37000D01*
X53500Y-37000D02*
X53500Y-36000D01*
X53500Y-36000D02*
X54500Y-36000D01*
X54500Y-36000D02*
X54500Y-37000D01*
X55500Y-44500D02*
X55500Y-43500D01*
X55500Y-43500D02*
X56500Y-43500D01*
X56500Y-43500D02*
X56500Y-44500D01*
X56500Y-44500D02*
X55500Y-44500D01*
X56500Y-44500D02*
X56500Y-43500D01*
X56500Y-43500D02*
X57500Y-43500D01*
X57500Y-43500D02*
X57500Y-44500D01*
X57500Y-44500D02*
X56500Y-44500D01*
X57500Y-44500D02*
X57500Y-43500D01*
X57500Y-43500D02*
X58500Y-43500D01*
X58500Y-43500D02*
X58500Y-44500D01*
X58500Y-44500D02*
X57500Y-44500D01*
X58500Y-44500D02*
X58500Y-43500D01*
X58500Y-43500D02*
X59500Y-43500D01*
X59500Y-43500D02*
X59500Y-44500D01*
X59500Y-44500D02*
X58500Y-44500D01*
X59500Y-44500D02*
X59500Y-43500D01*
X59500Y-43500D02*
X60500Y-43500D01*
X60500Y-43500D02*
X60500Y-44500D01*
X60500Y-44500D02*
X59500Y-44500D01*
X60500Y-44500D02*
X60500Y-43500D01*
X60500Y-43500D02*
X61500Y-43500D01*
X61500Y-43500D02*
X61500Y-44500D01*
X61500Y-44500D02*
X60500Y-44500D01*
X61500Y-44500D02*
X61500Y-43500D01*
X61500Y-43500D02*
X62500Y-43500D01*
X62500Y-43500D02*
X62500Y-44500D01*
X62500Y-44500D02*
X61500Y-44500D01*
X54500Y-43000D02*
X53500Y-43000D01*
X53500Y-43000D02*
X53500Y-42000D01*
X53500Y-42000D02*
X54500Y-42000D01*
X54500Y-42000D02*
X54500Y-43000D01*
X63500Y-44500D02*
X63500Y-43500D01*
X63500Y-43500D02*
X64500Y-43500D01*
X64500Y-43500D02*
X64500Y-44500D01*
X64500Y-44500D02*
X63500Y-44500D01*
X64500Y-44500D02*
X64500Y-43500D01*
X64500Y-43500D02*
X65500Y-43500D01*
X65500Y-43500D02*
X65500Y-44500D01*
X65500Y-44500D02*
X64500Y-44500D01*
X65500Y-44500D02*
X65500Y-43500D01*
X65500Y-43500D02*
X66500Y-43500D01*
X66500Y-43500D02*
X66500Y-44500D01*
X66500Y-44500D02*
X65500Y-44500D01*
X66500Y-44500D02*
X66500Y-43500D01*
X66500Y-43500D02*
X67500Y-43500D01*
X67500Y-43500D02*
X67500Y-44500D01*
X67500Y-44500D02*
X66500Y-44500D01*
X67500Y-44500D02*
X67500Y-43500D01*
X67500Y-43500D02*
X68500Y-43500D01*
X68500Y-43500D02*
X68500Y-44500D01*
X68500Y-44500D02*
X67500Y-44500D01*
X54500Y-46000D02*
X53500Y-46000D01*
X53500Y-46000D02*
X53500Y-45000D01*
X53500Y-45000D02*
X54500Y-45000D01*
X54500Y-45000D02*
X54500Y-46000D01*
X54500Y-45000D02*
X53500Y-45000D01*
X53500Y-45000D02*
X53500Y-44000D01*
X53500Y-44000D02*
X54500Y-44000D01*
X54500Y-44000D02*
X54500Y-45000D01*
X54500Y-47000D02*
X53500Y-47000D01*
X53500Y-47000D02*
X53500Y-46000D01*
X53500Y-46000D02*
X54500Y-46000D01*
X54500Y-46000D02*
X54500Y-47000D01*
X54500Y-41000D02*
X53500Y-41000D01*
X53500Y-41000D02*
X53500Y-40000D01*
X53500Y-40000D02*
X54500Y-40000D01*
X54500Y-40000D02*
X54500Y-41000D01*
X54500Y-39000D02*
X53500Y-39000D01*
X53500Y-39000D02*
X53500Y-38000D01*
X53500Y-38000D02*
X54500Y-38000D01*
X54500Y-38000D02*
X54500Y-39000D01*
X54500Y-42000D02*
X53500Y-42000D01*
X53500Y-42000D02*
X53500Y-41000D01*
X53500Y-41000D02*
X54500Y-41000D01*
X54500Y-41000D02*
X54500Y-42000D01*
X54500Y-38000D02*
X53500Y-38000D01*
X53500Y-38000D02*
X53500Y-37000D01*
X53500Y-37000D02*
X54500Y-37000D01*
X54500Y-37000D02*
X54500Y-38000D01*
G54D12*
X65065Y-37855D02*
X65064Y-37864D01*
X65061Y-37874D01*
X65056Y-37882D01*
X65050Y-37890D01*
X65042Y-37896D01*
X65034Y-37901D01*
X65025Y-37903D01*
X65015Y-37904D01*
X65006Y-37904D01*
X64997Y-37901D01*
X64988Y-37896D01*
X64981Y-37890D01*
X64974Y-37883D01*
X64970Y-37874D01*
X64967Y-37865D01*
X64966Y-37855D01*
X64966Y-37846D01*
X64969Y-37837D01*
X64973Y-37828D01*
X64980Y-37821D01*
X64987Y-37814D01*
X64995Y-37810D01*
X65005Y-37807D01*
X65014Y-37806D01*
X65023Y-37806D01*
X65033Y-37809D01*
X65041Y-37813D01*
X65049Y-37819D01*
X65055Y-37827D01*
X65060Y-37835D01*
X65063Y-37844D01*
X65064Y-37854D01*
X65065Y-37855D01*
X65015Y-38305D02*
X65015Y-37905D01*
X65015Y-37905D02*
X65693Y-37905D01*
X65693Y-37904D02*
X65693Y-38304D01*
X65693Y-38861D02*
X65693Y-39261D01*
X65693Y-39261D02*
X65015Y-39261D01*
X65015Y-39262D02*
X65015Y-38862D01*
G54D13*
X61280Y-45519D02*
X61280Y-44919D01*
X61508Y-44919D01*
X61566Y-44947D01*
X61594Y-44976D01*
X61623Y-45033D01*
X61623Y-45119D01*
X61594Y-45176D01*
X61566Y-45205D01*
X61508Y-45233D01*
X61280Y-45233D01*
X61851Y-44976D02*
X61880Y-44947D01*
X61937Y-44919D01*
X62080Y-44919D01*
X62137Y-44947D01*
X62166Y-44976D01*
X62194Y-45033D01*
X62194Y-45090D01*
X62166Y-45176D01*
X61823Y-45519D01*
X62194Y-45519D01*
X62394Y-44919D02*
X62794Y-44919D01*
X62537Y-45519D01*
G54D12*
X57025Y-36061D02*
X57013Y-36073D01*
X56978Y-36085D01*
X56954Y-36085D01*
X56918Y-36073D01*
X56894Y-36049D01*
X56883Y-36026D01*
X56871Y-35978D01*
X56871Y-35942D01*
X56883Y-35895D01*
X56894Y-35871D01*
X56918Y-35847D01*
X56954Y-35835D01*
X56978Y-35835D01*
X57013Y-35847D01*
X57025Y-35859D01*
X57263Y-36085D02*
X57121Y-36085D01*
X57192Y-36085D02*
X57192Y-35835D01*
X57168Y-35871D01*
X57144Y-35895D01*
X57121Y-35907D01*
X67148Y-38625D02*
X67029Y-38708D01*
X67148Y-38767D02*
X66898Y-38767D01*
X66898Y-38672D01*
X66910Y-38648D01*
X66922Y-38637D01*
X66946Y-38625D01*
X66982Y-38625D01*
X67005Y-38637D01*
X67017Y-38648D01*
X67029Y-38672D01*
X67029Y-38767D01*
X66922Y-38529D02*
X66910Y-38517D01*
X66898Y-38494D01*
X66898Y-38434D01*
X66910Y-38410D01*
X66922Y-38398D01*
X66946Y-38387D01*
X66970Y-38387D01*
X67005Y-38398D01*
X67148Y-38541D01*
X67148Y-38387D01*
X68330Y-38625D02*
X68211Y-38708D01*
X68330Y-38767D02*
X68080Y-38767D01*
X68080Y-38672D01*
X68092Y-38648D01*
X68104Y-38637D01*
X68128Y-38625D01*
X68164Y-38625D01*
X68187Y-38637D01*
X68199Y-38648D01*
X68211Y-38672D01*
X68211Y-38767D01*
X68330Y-38387D02*
X68330Y-38529D01*
X68330Y-38458D02*
X68080Y-38458D01*
X68116Y-38482D01*
X68140Y-38506D01*
X68152Y-38529D01*
X58757Y-40431D02*
X58745Y-40443D01*
X58710Y-40455D01*
X58686Y-40455D01*
X58650Y-40443D01*
X58626Y-40419D01*
X58615Y-40396D01*
X58603Y-40348D01*
X58603Y-40312D01*
X58615Y-40265D01*
X58626Y-40241D01*
X58650Y-40217D01*
X58686Y-40205D01*
X58710Y-40205D01*
X58745Y-40217D01*
X58757Y-40229D01*
X58853Y-40229D02*
X58865Y-40217D01*
X58888Y-40205D01*
X58948Y-40205D01*
X58972Y-40217D01*
X58984Y-40229D01*
X58995Y-40253D01*
X58995Y-40277D01*
X58984Y-40312D01*
X58841Y-40455D01*
X58995Y-40455D01*
X59013Y-36061D02*
X59001Y-36073D01*
X58966Y-36085D01*
X58942Y-36085D01*
X58906Y-36073D01*
X58882Y-36049D01*
X58871Y-36026D01*
X58859Y-35978D01*
X58859Y-35942D01*
X58871Y-35895D01*
X58882Y-35871D01*
X58906Y-35847D01*
X58942Y-35835D01*
X58966Y-35835D01*
X59001Y-35847D01*
X59013Y-35859D01*
X59097Y-35835D02*
X59251Y-35835D01*
X59168Y-35930D01*
X59204Y-35930D01*
X59228Y-35942D01*
X59240Y-35954D01*
X59251Y-35978D01*
X59251Y-36038D01*
X59240Y-36061D01*
X59228Y-36073D01*
X59204Y-36085D01*
X59132Y-36085D01*
X59109Y-36073D01*
X59097Y-36061D01*
G54D10*
X62635Y-43371D02*
X62635Y-43071D01*
X62750Y-43071D01*
X62778Y-43086D01*
X62793Y-43100D01*
X62807Y-43129D01*
X62807Y-43171D01*
X62793Y-43200D01*
X62778Y-43214D01*
X62750Y-43229D01*
X62635Y-43229D01*
X63093Y-43371D02*
X62921Y-43371D01*
X63007Y-43371D02*
X63007Y-43071D01*
X62978Y-43114D01*
X62950Y-43143D01*
X62921Y-43157D01*
X63236Y-43371D02*
X63293Y-43371D01*
X63321Y-43357D01*
X63336Y-43343D01*
X63364Y-43300D01*
X63379Y-43243D01*
X63379Y-43129D01*
X63364Y-43100D01*
X63350Y-43086D01*
X63321Y-43071D01*
X63264Y-43071D01*
X63236Y-43086D01*
X63221Y-43100D01*
X63207Y-43129D01*
X63207Y-43200D01*
X63221Y-43229D01*
X63236Y-43243D01*
X63264Y-43257D01*
X63321Y-43257D01*
X63350Y-43243D01*
X63364Y-43229D01*
X63379Y-43200D01*
X53371Y-35722D02*
X53071Y-35722D01*
X53071Y-35607D01*
X53086Y-35579D01*
X53100Y-35564D01*
X53129Y-35550D01*
X53171Y-35550D01*
X53200Y-35564D01*
X53214Y-35579D01*
X53229Y-35607D01*
X53229Y-35722D01*
X53100Y-35436D02*
X53086Y-35422D01*
X53071Y-35393D01*
X53071Y-35322D01*
X53086Y-35293D01*
X53100Y-35279D01*
X53129Y-35264D01*
X53157Y-35264D01*
X53200Y-35279D01*
X53371Y-35450D01*
X53371Y-35264D01*
X53371Y-43722D02*
X53071Y-43722D01*
X53071Y-43607D01*
X53086Y-43579D01*
X53100Y-43564D01*
X53129Y-43550D01*
X53171Y-43550D01*
X53200Y-43564D01*
X53214Y-43579D01*
X53229Y-43607D01*
X53229Y-43722D01*
X53071Y-43450D02*
X53071Y-43264D01*
X53186Y-43364D01*
X53186Y-43322D01*
X53200Y-43293D01*
X53214Y-43279D01*
X53243Y-43264D01*
X53314Y-43264D01*
X53343Y-43279D01*
X53357Y-43293D01*
X53371Y-43322D01*
X53371Y-43407D01*
X53357Y-43436D01*
X53343Y-43450D01*
X53371Y-36722D02*
X53071Y-36722D01*
X53071Y-36607D01*
X53086Y-36579D01*
X53100Y-36564D01*
X53129Y-36550D01*
X53171Y-36550D01*
X53200Y-36564D01*
X53214Y-36579D01*
X53229Y-36607D01*
X53229Y-36722D01*
X53171Y-36293D02*
X53371Y-36293D01*
X53057Y-36364D02*
X53271Y-36436D01*
X53271Y-36250D01*
X55635Y-43371D02*
X55635Y-43071D01*
X55750Y-43071D01*
X55778Y-43086D01*
X55793Y-43100D01*
X55807Y-43129D01*
X55807Y-43171D01*
X55793Y-43200D01*
X55778Y-43214D01*
X55750Y-43229D01*
X55635Y-43229D01*
X55921Y-43100D02*
X55935Y-43086D01*
X55964Y-43071D01*
X56035Y-43071D01*
X56064Y-43086D01*
X56078Y-43100D01*
X56093Y-43129D01*
X56093Y-43157D01*
X56078Y-43200D01*
X55907Y-43371D01*
X56093Y-43371D01*
X56350Y-43071D02*
X56293Y-43071D01*
X56264Y-43086D01*
X56250Y-43100D01*
X56221Y-43143D01*
X56207Y-43200D01*
X56207Y-43314D01*
X56221Y-43343D01*
X56236Y-43357D01*
X56264Y-43371D01*
X56321Y-43371D01*
X56350Y-43357D01*
X56364Y-43343D01*
X56379Y-43314D01*
X56379Y-43243D01*
X56364Y-43214D01*
X56350Y-43200D01*
X56321Y-43186D01*
X56264Y-43186D01*
X56236Y-43200D01*
X56221Y-43214D01*
X56207Y-43243D01*
X56635Y-43371D02*
X56635Y-43071D01*
X56750Y-43071D01*
X56778Y-43086D01*
X56793Y-43100D01*
X56807Y-43129D01*
X56807Y-43171D01*
X56793Y-43200D01*
X56778Y-43214D01*
X56750Y-43229D01*
X56635Y-43229D01*
X56921Y-43100D02*
X56935Y-43086D01*
X56964Y-43071D01*
X57035Y-43071D01*
X57064Y-43086D01*
X57078Y-43100D01*
X57093Y-43129D01*
X57093Y-43157D01*
X57078Y-43200D01*
X56907Y-43371D01*
X57093Y-43371D01*
X57364Y-43071D02*
X57221Y-43071D01*
X57207Y-43214D01*
X57221Y-43200D01*
X57250Y-43186D01*
X57321Y-43186D01*
X57350Y-43200D01*
X57364Y-43214D01*
X57379Y-43243D01*
X57379Y-43314D01*
X57364Y-43343D01*
X57350Y-43357D01*
X57321Y-43371D01*
X57250Y-43371D01*
X57221Y-43357D01*
X57207Y-43343D01*
X57635Y-43371D02*
X57635Y-43071D01*
X57750Y-43071D01*
X57778Y-43086D01*
X57793Y-43100D01*
X57807Y-43129D01*
X57807Y-43171D01*
X57793Y-43200D01*
X57778Y-43214D01*
X57750Y-43229D01*
X57635Y-43229D01*
X57921Y-43100D02*
X57935Y-43086D01*
X57964Y-43071D01*
X58035Y-43071D01*
X58064Y-43086D01*
X58078Y-43100D01*
X58093Y-43129D01*
X58093Y-43157D01*
X58078Y-43200D01*
X57907Y-43371D01*
X58093Y-43371D01*
X58350Y-43171D02*
X58350Y-43371D01*
X58279Y-43057D02*
X58207Y-43271D01*
X58393Y-43271D01*
X58635Y-43371D02*
X58635Y-43071D01*
X58750Y-43071D01*
X58778Y-43086D01*
X58793Y-43100D01*
X58807Y-43129D01*
X58807Y-43171D01*
X58793Y-43200D01*
X58778Y-43214D01*
X58750Y-43229D01*
X58635Y-43229D01*
X58921Y-43100D02*
X58935Y-43086D01*
X58964Y-43071D01*
X59035Y-43071D01*
X59064Y-43086D01*
X59078Y-43100D01*
X59093Y-43129D01*
X59093Y-43157D01*
X59078Y-43200D01*
X58907Y-43371D01*
X59093Y-43371D01*
X59193Y-43071D02*
X59379Y-43071D01*
X59279Y-43186D01*
X59321Y-43186D01*
X59350Y-43200D01*
X59364Y-43214D01*
X59379Y-43243D01*
X59379Y-43314D01*
X59364Y-43343D01*
X59350Y-43357D01*
X59321Y-43371D01*
X59236Y-43371D01*
X59207Y-43357D01*
X59193Y-43343D01*
X59635Y-43371D02*
X59635Y-43071D01*
X59750Y-43071D01*
X59778Y-43086D01*
X59793Y-43100D01*
X59807Y-43129D01*
X59807Y-43171D01*
X59793Y-43200D01*
X59778Y-43214D01*
X59750Y-43229D01*
X59635Y-43229D01*
X59921Y-43100D02*
X59935Y-43086D01*
X59964Y-43071D01*
X60035Y-43071D01*
X60064Y-43086D01*
X60078Y-43100D01*
X60093Y-43129D01*
X60093Y-43157D01*
X60078Y-43200D01*
X59907Y-43371D01*
X60093Y-43371D01*
X60207Y-43100D02*
X60221Y-43086D01*
X60250Y-43071D01*
X60321Y-43071D01*
X60350Y-43086D01*
X60364Y-43100D01*
X60379Y-43129D01*
X60379Y-43157D01*
X60364Y-43200D01*
X60193Y-43371D01*
X60379Y-43371D01*
X60635Y-43371D02*
X60635Y-43071D01*
X60750Y-43071D01*
X60778Y-43086D01*
X60793Y-43100D01*
X60807Y-43129D01*
X60807Y-43171D01*
X60793Y-43200D01*
X60778Y-43214D01*
X60750Y-43229D01*
X60635Y-43229D01*
X60921Y-43100D02*
X60935Y-43086D01*
X60964Y-43071D01*
X61035Y-43071D01*
X61064Y-43086D01*
X61078Y-43100D01*
X61093Y-43129D01*
X61093Y-43157D01*
X61078Y-43200D01*
X60907Y-43371D01*
X61093Y-43371D01*
X61379Y-43371D02*
X61207Y-43371D01*
X61293Y-43371D02*
X61293Y-43071D01*
X61264Y-43114D01*
X61236Y-43143D01*
X61207Y-43157D01*
X61635Y-43371D02*
X61635Y-43071D01*
X61750Y-43071D01*
X61778Y-43086D01*
X61793Y-43100D01*
X61807Y-43129D01*
X61807Y-43171D01*
X61793Y-43200D01*
X61778Y-43214D01*
X61750Y-43229D01*
X61635Y-43229D01*
X61921Y-43100D02*
X61935Y-43086D01*
X61964Y-43071D01*
X62035Y-43071D01*
X62064Y-43086D01*
X62078Y-43100D01*
X62093Y-43129D01*
X62093Y-43157D01*
X62078Y-43200D01*
X61907Y-43371D01*
X62093Y-43371D01*
X62279Y-43071D02*
X62307Y-43071D01*
X62336Y-43086D01*
X62350Y-43100D01*
X62364Y-43129D01*
X62379Y-43186D01*
X62379Y-43257D01*
X62364Y-43314D01*
X62350Y-43343D01*
X62336Y-43357D01*
X62307Y-43371D01*
X62279Y-43371D01*
X62250Y-43357D01*
X62236Y-43343D01*
X62221Y-43314D01*
X62207Y-43257D01*
X62207Y-43186D01*
X62221Y-43129D01*
X62236Y-43100D01*
X62250Y-43086D01*
X62279Y-43071D01*
X53371Y-42722D02*
X53071Y-42722D01*
X53071Y-42607D01*
X53086Y-42579D01*
X53100Y-42564D01*
X53129Y-42550D01*
X53171Y-42550D01*
X53200Y-42564D01*
X53214Y-42579D01*
X53229Y-42607D01*
X53229Y-42722D01*
X53071Y-42279D02*
X53071Y-42422D01*
X53214Y-42436D01*
X53200Y-42422D01*
X53186Y-42393D01*
X53186Y-42322D01*
X53200Y-42293D01*
X53214Y-42279D01*
X53243Y-42264D01*
X53314Y-42264D01*
X53343Y-42279D01*
X53357Y-42293D01*
X53371Y-42322D01*
X53371Y-42393D01*
X53357Y-42422D01*
X53343Y-42436D01*
X63635Y-43371D02*
X63635Y-43071D01*
X63750Y-43071D01*
X63778Y-43086D01*
X63793Y-43100D01*
X63807Y-43129D01*
X63807Y-43171D01*
X63793Y-43200D01*
X63778Y-43214D01*
X63750Y-43229D01*
X63635Y-43229D01*
X64093Y-43371D02*
X63921Y-43371D01*
X64007Y-43371D02*
X64007Y-43071D01*
X63978Y-43114D01*
X63950Y-43143D01*
X63921Y-43157D01*
X64264Y-43200D02*
X64236Y-43186D01*
X64221Y-43171D01*
X64207Y-43143D01*
X64207Y-43129D01*
X64221Y-43100D01*
X64236Y-43086D01*
X64264Y-43071D01*
X64321Y-43071D01*
X64350Y-43086D01*
X64364Y-43100D01*
X64379Y-43129D01*
X64379Y-43143D01*
X64364Y-43171D01*
X64350Y-43186D01*
X64321Y-43200D01*
X64264Y-43200D01*
X64236Y-43214D01*
X64221Y-43229D01*
X64207Y-43257D01*
X64207Y-43314D01*
X64221Y-43343D01*
X64236Y-43357D01*
X64264Y-43371D01*
X64321Y-43371D01*
X64350Y-43357D01*
X64364Y-43343D01*
X64379Y-43314D01*
X64379Y-43257D01*
X64364Y-43229D01*
X64350Y-43214D01*
X64321Y-43200D01*
X64635Y-43371D02*
X64635Y-43071D01*
X64750Y-43071D01*
X64778Y-43086D01*
X64793Y-43100D01*
X64807Y-43129D01*
X64807Y-43171D01*
X64793Y-43200D01*
X64778Y-43214D01*
X64750Y-43229D01*
X64635Y-43229D01*
X65093Y-43371D02*
X64921Y-43371D01*
X65007Y-43371D02*
X65007Y-43071D01*
X64978Y-43114D01*
X64950Y-43143D01*
X64921Y-43157D01*
X65193Y-43071D02*
X65393Y-43071D01*
X65264Y-43371D01*
X65635Y-43371D02*
X65635Y-43071D01*
X65750Y-43071D01*
X65778Y-43086D01*
X65793Y-43100D01*
X65807Y-43129D01*
X65807Y-43171D01*
X65793Y-43200D01*
X65778Y-43214D01*
X65750Y-43229D01*
X65635Y-43229D01*
X66093Y-43371D02*
X65921Y-43371D01*
X66007Y-43371D02*
X66007Y-43071D01*
X65978Y-43114D01*
X65950Y-43143D01*
X65921Y-43157D01*
X66350Y-43071D02*
X66293Y-43071D01*
X66264Y-43086D01*
X66250Y-43100D01*
X66221Y-43143D01*
X66207Y-43200D01*
X66207Y-43314D01*
X66221Y-43343D01*
X66236Y-43357D01*
X66264Y-43371D01*
X66321Y-43371D01*
X66350Y-43357D01*
X66364Y-43343D01*
X66379Y-43314D01*
X66379Y-43243D01*
X66364Y-43214D01*
X66350Y-43200D01*
X66321Y-43186D01*
X66264Y-43186D01*
X66236Y-43200D01*
X66221Y-43214D01*
X66207Y-43243D01*
X66635Y-43371D02*
X66635Y-43071D01*
X66750Y-43071D01*
X66778Y-43086D01*
X66793Y-43100D01*
X66807Y-43129D01*
X66807Y-43171D01*
X66793Y-43200D01*
X66778Y-43214D01*
X66750Y-43229D01*
X66635Y-43229D01*
X67093Y-43371D02*
X66921Y-43371D01*
X67007Y-43371D02*
X67007Y-43071D01*
X66978Y-43114D01*
X66950Y-43143D01*
X66921Y-43157D01*
X67364Y-43071D02*
X67221Y-43071D01*
X67207Y-43214D01*
X67221Y-43200D01*
X67250Y-43186D01*
X67321Y-43186D01*
X67350Y-43200D01*
X67364Y-43214D01*
X67379Y-43243D01*
X67379Y-43314D01*
X67364Y-43343D01*
X67350Y-43357D01*
X67321Y-43371D01*
X67250Y-43371D01*
X67221Y-43357D01*
X67207Y-43343D01*
X67635Y-43371D02*
X67635Y-43071D01*
X67750Y-43071D01*
X67778Y-43086D01*
X67793Y-43100D01*
X67807Y-43129D01*
X67807Y-43171D01*
X67793Y-43200D01*
X67778Y-43214D01*
X67750Y-43229D01*
X67635Y-43229D01*
X68093Y-43371D02*
X67921Y-43371D01*
X68007Y-43371D02*
X68007Y-43071D01*
X67978Y-43114D01*
X67950Y-43143D01*
X67921Y-43157D01*
X68350Y-43171D02*
X68350Y-43371D01*
X68279Y-43057D02*
X68207Y-43271D01*
X68393Y-43271D01*
X53371Y-45865D02*
X53071Y-45865D01*
X53071Y-45750D01*
X53086Y-45722D01*
X53100Y-45707D01*
X53129Y-45693D01*
X53171Y-45693D01*
X53200Y-45707D01*
X53214Y-45722D01*
X53229Y-45750D01*
X53229Y-45865D01*
X53371Y-45407D02*
X53371Y-45579D01*
X53371Y-45493D02*
X53071Y-45493D01*
X53114Y-45522D01*
X53143Y-45550D01*
X53157Y-45579D01*
X53100Y-45293D02*
X53086Y-45279D01*
X53071Y-45250D01*
X53071Y-45179D01*
X53086Y-45150D01*
X53100Y-45136D01*
X53129Y-45121D01*
X53157Y-45121D01*
X53200Y-45136D01*
X53371Y-45307D01*
X53371Y-45121D01*
X53371Y-44865D02*
X53071Y-44865D01*
X53071Y-44750D01*
X53086Y-44722D01*
X53100Y-44707D01*
X53129Y-44693D01*
X53171Y-44693D01*
X53200Y-44707D01*
X53214Y-44722D01*
X53229Y-44750D01*
X53229Y-44865D01*
X53371Y-44407D02*
X53371Y-44579D01*
X53371Y-44493D02*
X53071Y-44493D01*
X53114Y-44522D01*
X53143Y-44550D01*
X53157Y-44579D01*
X53071Y-44307D02*
X53071Y-44121D01*
X53186Y-44221D01*
X53186Y-44179D01*
X53200Y-44150D01*
X53214Y-44136D01*
X53243Y-44121D01*
X53314Y-44121D01*
X53343Y-44136D01*
X53357Y-44150D01*
X53371Y-44179D01*
X53371Y-44264D01*
X53357Y-44293D01*
X53343Y-44307D01*
X53371Y-46865D02*
X53071Y-46865D01*
X53071Y-46750D01*
X53086Y-46722D01*
X53100Y-46707D01*
X53129Y-46693D01*
X53171Y-46693D01*
X53200Y-46707D01*
X53214Y-46722D01*
X53229Y-46750D01*
X53229Y-46865D01*
X53371Y-46407D02*
X53371Y-46579D01*
X53371Y-46493D02*
X53071Y-46493D01*
X53114Y-46522D01*
X53143Y-46550D01*
X53157Y-46579D01*
X53371Y-46121D02*
X53371Y-46293D01*
X53371Y-46207D02*
X53071Y-46207D01*
X53114Y-46236D01*
X53143Y-46264D01*
X53157Y-46293D01*
X53371Y-40722D02*
X53071Y-40722D01*
X53071Y-40607D01*
X53086Y-40579D01*
X53100Y-40564D01*
X53129Y-40550D01*
X53171Y-40550D01*
X53200Y-40564D01*
X53214Y-40579D01*
X53229Y-40607D01*
X53229Y-40722D01*
X53371Y-40407D02*
X53371Y-40350D01*
X53357Y-40322D01*
X53343Y-40307D01*
X53300Y-40279D01*
X53243Y-40264D01*
X53129Y-40264D01*
X53100Y-40279D01*
X53086Y-40293D01*
X53071Y-40322D01*
X53071Y-40379D01*
X53086Y-40407D01*
X53100Y-40422D01*
X53129Y-40436D01*
X53200Y-40436D01*
X53229Y-40422D01*
X53243Y-40407D01*
X53257Y-40379D01*
X53257Y-40322D01*
X53243Y-40293D01*
X53229Y-40279D01*
X53200Y-40264D01*
X53371Y-38722D02*
X53071Y-38722D01*
X53071Y-38607D01*
X53086Y-38579D01*
X53100Y-38564D01*
X53129Y-38550D01*
X53171Y-38550D01*
X53200Y-38564D01*
X53214Y-38579D01*
X53229Y-38607D01*
X53229Y-38722D01*
X53200Y-38379D02*
X53186Y-38407D01*
X53171Y-38422D01*
X53143Y-38436D01*
X53129Y-38436D01*
X53100Y-38422D01*
X53086Y-38407D01*
X53071Y-38379D01*
X53071Y-38322D01*
X53086Y-38293D01*
X53100Y-38279D01*
X53129Y-38264D01*
X53143Y-38264D01*
X53171Y-38279D01*
X53186Y-38293D01*
X53200Y-38322D01*
X53200Y-38379D01*
X53214Y-38407D01*
X53229Y-38422D01*
X53257Y-38436D01*
X53314Y-38436D01*
X53343Y-38422D01*
X53357Y-38407D01*
X53371Y-38379D01*
X53371Y-38322D01*
X53357Y-38293D01*
X53343Y-38279D01*
X53314Y-38264D01*
X53257Y-38264D01*
X53229Y-38279D01*
X53214Y-38293D01*
X53200Y-38322D01*
X53371Y-41722D02*
X53071Y-41722D01*
X53071Y-41607D01*
X53086Y-41579D01*
X53100Y-41564D01*
X53129Y-41550D01*
X53171Y-41550D01*
X53200Y-41564D01*
X53214Y-41579D01*
X53229Y-41607D01*
X53229Y-41722D01*
X53071Y-41450D02*
X53071Y-41250D01*
X53371Y-41379D01*
X53371Y-37722D02*
X53071Y-37722D01*
X53071Y-37607D01*
X53086Y-37579D01*
X53100Y-37564D01*
X53129Y-37550D01*
X53171Y-37550D01*
X53200Y-37564D01*
X53214Y-37579D01*
X53229Y-37607D01*
X53229Y-37722D01*
X53071Y-37293D02*
X53071Y-37350D01*
X53086Y-37379D01*
X53100Y-37393D01*
X53143Y-37422D01*
X53200Y-37436D01*
X53314Y-37436D01*
X53343Y-37422D01*
X53357Y-37407D01*
X53371Y-37379D01*
X53371Y-37322D01*
X53357Y-37293D01*
X53343Y-37279D01*
X53314Y-37264D01*
X53243Y-37264D01*
X53214Y-37279D01*
X53200Y-37293D01*
X53186Y-37322D01*
X53186Y-37379D01*
X53200Y-37407D01*
X53214Y-37422D01*
X53243Y-37436D01*
G54D12*
X65943Y-38625D02*
X65955Y-38637D01*
X65967Y-38672D01*
X65967Y-38696D01*
X65955Y-38732D01*
X65931Y-38756D01*
X65908Y-38767D01*
X65860Y-38779D01*
X65824Y-38779D01*
X65777Y-38767D01*
X65753Y-38756D01*
X65729Y-38732D01*
X65717Y-38696D01*
X65717Y-38672D01*
X65729Y-38637D01*
X65741Y-38625D01*
X65801Y-38410D02*
X65967Y-38410D01*
X65705Y-38470D02*
X65884Y-38529D01*
X65884Y-38375D01*
M02*
