G04 (created by PCBNEW-RS274X (2012-01-19 BZR 3256)-stable) date Mon 10 Dec 2012 16:42:03 GMT*
G01*
G70*
G90*
%MOIN*%
G04 Gerber Fmt 3.4, Leading zero omitted, Abs format*
%FSLAX34Y34*%
G04 APERTURE LIST*
%ADD10C,0.006000*%
%ADD11C,0.008900*%
%ADD12C,0.006900*%
%ADD13C,0.007900*%
%ADD14C,0.011800*%
%ADD15C,0.006700*%
%ADD16C,0.015000*%
%ADD17C,0.008000*%
%ADD18C,0.012000*%
G04 APERTURE END LIST*
G54D10*
G54D11*
X55242Y-31944D02*
X55175Y-32206D01*
X55108Y-32019D01*
X55040Y-32206D01*
X54973Y-31944D01*
X54871Y-31944D02*
X54804Y-32206D01*
X54737Y-32019D01*
X54669Y-32206D01*
X54602Y-31944D01*
X54500Y-31944D02*
X54433Y-32206D01*
X54366Y-32019D01*
X54298Y-32206D01*
X54231Y-31944D01*
X54096Y-32169D02*
X54079Y-32188D01*
X54096Y-32206D01*
X54113Y-32188D01*
X54096Y-32169D01*
X54096Y-32206D01*
X53775Y-32206D02*
X53775Y-31812D01*
X53775Y-32188D02*
X53809Y-32206D01*
X53876Y-32206D01*
X53910Y-32188D01*
X53927Y-32169D01*
X53944Y-32131D01*
X53944Y-32019D01*
X53927Y-31981D01*
X53910Y-31963D01*
X53876Y-31944D01*
X53809Y-31944D01*
X53775Y-31963D01*
X53607Y-32206D02*
X53607Y-31944D01*
X53607Y-32019D02*
X53590Y-31981D01*
X53573Y-31963D01*
X53539Y-31944D01*
X53506Y-31944D01*
X53253Y-32188D02*
X53287Y-32206D01*
X53354Y-32206D01*
X53388Y-32188D01*
X53405Y-32150D01*
X53405Y-32000D01*
X53388Y-31963D01*
X53354Y-31944D01*
X53287Y-31944D01*
X53253Y-31963D01*
X53236Y-32000D01*
X53236Y-32038D01*
X53405Y-32075D01*
X53102Y-32188D02*
X53068Y-32206D01*
X53000Y-32206D01*
X52967Y-32188D01*
X52950Y-32150D01*
X52950Y-32131D01*
X52967Y-32094D01*
X53000Y-32075D01*
X53051Y-32075D01*
X53085Y-32056D01*
X53102Y-32019D01*
X53102Y-32000D01*
X53085Y-31963D01*
X53051Y-31944D01*
X53000Y-31944D01*
X52967Y-31963D01*
X52646Y-32188D02*
X52680Y-32206D01*
X52747Y-32206D01*
X52781Y-32188D01*
X52798Y-32169D01*
X52815Y-32131D01*
X52815Y-32019D01*
X52798Y-31981D01*
X52781Y-31963D01*
X52747Y-31944D01*
X52680Y-31944D01*
X52646Y-31963D01*
X52444Y-32206D02*
X52478Y-32188D01*
X52495Y-32169D01*
X52512Y-32131D01*
X52512Y-32019D01*
X52495Y-31981D01*
X52478Y-31963D01*
X52444Y-31944D01*
X52394Y-31944D01*
X52360Y-31963D01*
X52343Y-31981D01*
X52326Y-32019D01*
X52326Y-32131D01*
X52343Y-32169D01*
X52360Y-32188D01*
X52394Y-32206D01*
X52444Y-32206D01*
X52175Y-32169D02*
X52158Y-32188D01*
X52175Y-32206D01*
X52192Y-32188D01*
X52175Y-32169D01*
X52175Y-32206D01*
X51854Y-32188D02*
X51888Y-32206D01*
X51955Y-32206D01*
X51989Y-32188D01*
X52006Y-32169D01*
X52023Y-32131D01*
X52023Y-32019D01*
X52006Y-31981D01*
X51989Y-31963D01*
X51955Y-31944D01*
X51888Y-31944D01*
X51854Y-31963D01*
X51652Y-32206D02*
X51686Y-32188D01*
X51703Y-32169D01*
X51720Y-32131D01*
X51720Y-32019D01*
X51703Y-31981D01*
X51686Y-31963D01*
X51652Y-31944D01*
X51602Y-31944D01*
X51568Y-31963D01*
X51551Y-31981D01*
X51534Y-32019D01*
X51534Y-32131D01*
X51551Y-32169D01*
X51568Y-32188D01*
X51602Y-32206D01*
X51652Y-32206D01*
X51383Y-32169D02*
X51366Y-32188D01*
X51383Y-32206D01*
X51400Y-32188D01*
X51383Y-32169D01*
X51383Y-32206D01*
X51062Y-31944D02*
X51062Y-32206D01*
X51214Y-31944D02*
X51214Y-32150D01*
X51197Y-32188D01*
X51163Y-32206D01*
X51113Y-32206D01*
X51079Y-32188D01*
X51062Y-32169D01*
X50894Y-32206D02*
X50894Y-31812D01*
X50860Y-32056D02*
X50759Y-32206D01*
X50759Y-31944D02*
X50894Y-32094D01*
X54145Y-32809D02*
X54162Y-32828D01*
X54213Y-32846D01*
X54247Y-32846D01*
X54297Y-32828D01*
X54331Y-32790D01*
X54348Y-32753D01*
X54365Y-32678D01*
X54365Y-32621D01*
X54348Y-32546D01*
X54331Y-32509D01*
X54297Y-32471D01*
X54247Y-32452D01*
X54213Y-32452D01*
X54162Y-32471D01*
X54145Y-32490D01*
X53791Y-32809D02*
X53808Y-32828D01*
X53859Y-32846D01*
X53893Y-32846D01*
X53943Y-32828D01*
X53977Y-32790D01*
X53994Y-32753D01*
X54011Y-32678D01*
X54011Y-32621D01*
X53994Y-32546D01*
X53977Y-32509D01*
X53943Y-32471D01*
X53893Y-32452D01*
X53859Y-32452D01*
X53808Y-32471D01*
X53791Y-32490D01*
X53640Y-32696D02*
X53370Y-32696D01*
X53084Y-32640D02*
X53033Y-32659D01*
X53016Y-32678D01*
X52999Y-32715D01*
X52999Y-32771D01*
X53016Y-32809D01*
X53033Y-32828D01*
X53067Y-32846D01*
X53202Y-32846D01*
X53202Y-32452D01*
X53084Y-32452D01*
X53050Y-32471D01*
X53033Y-32490D01*
X53016Y-32528D01*
X53016Y-32565D01*
X53033Y-32603D01*
X53050Y-32621D01*
X53084Y-32640D01*
X53202Y-32640D01*
X52780Y-32659D02*
X52780Y-32846D01*
X52898Y-32452D02*
X52780Y-32659D01*
X52662Y-32452D01*
X52545Y-32696D02*
X52275Y-32696D01*
X52124Y-32828D02*
X52073Y-32846D01*
X51989Y-32846D01*
X51955Y-32828D01*
X51938Y-32809D01*
X51921Y-32771D01*
X51921Y-32734D01*
X51938Y-32696D01*
X51955Y-32678D01*
X51989Y-32659D01*
X52056Y-32640D01*
X52090Y-32621D01*
X52107Y-32603D01*
X52124Y-32565D01*
X52124Y-32528D01*
X52107Y-32490D01*
X52090Y-32471D01*
X52056Y-32452D01*
X51972Y-32452D01*
X51921Y-32471D01*
X51787Y-32734D02*
X51618Y-32734D01*
X51820Y-32846D02*
X51702Y-32452D01*
X51584Y-32846D01*
X53860Y-33486D02*
X53860Y-33092D01*
X53775Y-33092D01*
X53725Y-33111D01*
X53691Y-33149D01*
X53674Y-33186D01*
X53657Y-33261D01*
X53657Y-33318D01*
X53674Y-33393D01*
X53691Y-33430D01*
X53725Y-33468D01*
X53775Y-33486D01*
X53860Y-33486D01*
X53371Y-33468D02*
X53405Y-33486D01*
X53472Y-33486D01*
X53506Y-33468D01*
X53523Y-33430D01*
X53523Y-33280D01*
X53506Y-33243D01*
X53472Y-33224D01*
X53405Y-33224D01*
X53371Y-33243D01*
X53354Y-33280D01*
X53354Y-33318D01*
X53523Y-33355D01*
X53051Y-33468D02*
X53085Y-33486D01*
X53152Y-33486D01*
X53186Y-33468D01*
X53203Y-33449D01*
X53220Y-33411D01*
X53220Y-33299D01*
X53203Y-33261D01*
X53186Y-33243D01*
X53152Y-33224D01*
X53085Y-33224D01*
X53051Y-33243D01*
X52444Y-33486D02*
X52647Y-33486D01*
X52545Y-33486D02*
X52545Y-33092D01*
X52579Y-33149D01*
X52613Y-33186D01*
X52647Y-33205D01*
X52310Y-33130D02*
X52293Y-33111D01*
X52259Y-33092D01*
X52175Y-33092D01*
X52141Y-33111D01*
X52124Y-33130D01*
X52107Y-33168D01*
X52107Y-33205D01*
X52124Y-33261D01*
X52326Y-33486D01*
X52107Y-33486D01*
X55714Y-33732D02*
X55630Y-34126D01*
X55563Y-33845D01*
X55495Y-34126D01*
X55411Y-33732D01*
X55141Y-34108D02*
X55175Y-34126D01*
X55242Y-34126D01*
X55276Y-34108D01*
X55293Y-34070D01*
X55293Y-33920D01*
X55276Y-33883D01*
X55242Y-33864D01*
X55175Y-33864D01*
X55141Y-33883D01*
X55124Y-33920D01*
X55124Y-33958D01*
X55293Y-33995D01*
X54973Y-34126D02*
X54973Y-33864D01*
X54973Y-33732D02*
X54990Y-33751D01*
X54973Y-33770D01*
X54956Y-33751D01*
X54973Y-33732D01*
X54973Y-33770D01*
X54652Y-33864D02*
X54652Y-34183D01*
X54669Y-34220D01*
X54686Y-34239D01*
X54719Y-34258D01*
X54770Y-34258D01*
X54804Y-34239D01*
X54652Y-34108D02*
X54686Y-34126D01*
X54753Y-34126D01*
X54787Y-34108D01*
X54804Y-34089D01*
X54821Y-34051D01*
X54821Y-33939D01*
X54804Y-33901D01*
X54787Y-33883D01*
X54753Y-33864D01*
X54686Y-33864D01*
X54652Y-33883D01*
X54484Y-34126D02*
X54484Y-33732D01*
X54332Y-34126D02*
X54332Y-33920D01*
X54349Y-33883D01*
X54383Y-33864D01*
X54433Y-33864D01*
X54467Y-33883D01*
X54484Y-33901D01*
X54046Y-33920D02*
X54164Y-33920D01*
X54164Y-34126D02*
X54164Y-33732D01*
X53995Y-33732D01*
X53861Y-34126D02*
X53861Y-33864D01*
X53861Y-33732D02*
X53878Y-33751D01*
X53861Y-33770D01*
X53844Y-33751D01*
X53861Y-33732D01*
X53861Y-33770D01*
X53422Y-34126D02*
X53422Y-33732D01*
X53337Y-33732D01*
X53287Y-33751D01*
X53253Y-33789D01*
X53236Y-33826D01*
X53219Y-33901D01*
X53219Y-33958D01*
X53236Y-34033D01*
X53253Y-34070D01*
X53287Y-34108D01*
X53337Y-34126D01*
X53422Y-34126D01*
X53068Y-34126D02*
X53068Y-33864D01*
X53068Y-33732D02*
X53085Y-33751D01*
X53068Y-33770D01*
X53051Y-33751D01*
X53068Y-33732D01*
X53068Y-33770D01*
X52916Y-34108D02*
X52882Y-34126D01*
X52814Y-34126D01*
X52781Y-34108D01*
X52764Y-34070D01*
X52764Y-34051D01*
X52781Y-34014D01*
X52814Y-33995D01*
X52865Y-33995D01*
X52899Y-33976D01*
X52916Y-33939D01*
X52916Y-33920D01*
X52899Y-33883D01*
X52865Y-33864D01*
X52814Y-33864D01*
X52781Y-33883D01*
X52612Y-33864D02*
X52612Y-34258D01*
X52612Y-33883D02*
X52578Y-33864D01*
X52511Y-33864D01*
X52477Y-33883D01*
X52460Y-33901D01*
X52443Y-33939D01*
X52443Y-34051D01*
X52460Y-34089D01*
X52477Y-34108D01*
X52511Y-34126D01*
X52578Y-34126D01*
X52612Y-34108D01*
X52241Y-34126D02*
X52275Y-34108D01*
X52292Y-34070D01*
X52292Y-33732D01*
X51955Y-34126D02*
X51955Y-33920D01*
X51972Y-33883D01*
X52006Y-33864D01*
X52073Y-33864D01*
X52107Y-33883D01*
X51955Y-34108D02*
X51989Y-34126D01*
X52073Y-34126D01*
X52107Y-34108D01*
X52124Y-34070D01*
X52124Y-34033D01*
X52107Y-33995D01*
X52073Y-33976D01*
X51989Y-33976D01*
X51955Y-33958D01*
X51820Y-33864D02*
X51736Y-34126D01*
X51652Y-33864D02*
X51736Y-34126D01*
X51770Y-34220D01*
X51787Y-34239D01*
X51820Y-34258D01*
X51280Y-33864D02*
X51196Y-34126D01*
X51112Y-33864D01*
X50791Y-34126D02*
X50994Y-34126D01*
X50892Y-34126D02*
X50892Y-33732D01*
X50926Y-33789D01*
X50960Y-33826D01*
X50994Y-33845D01*
X50640Y-34089D02*
X50623Y-34108D01*
X50640Y-34126D01*
X50657Y-34108D01*
X50640Y-34089D01*
X50640Y-34126D01*
X50403Y-33732D02*
X50370Y-33732D01*
X50336Y-33751D01*
X50319Y-33770D01*
X50302Y-33808D01*
X50285Y-33883D01*
X50285Y-33976D01*
X50302Y-34051D01*
X50319Y-34089D01*
X50336Y-34108D01*
X50370Y-34126D01*
X50403Y-34126D01*
X50437Y-34108D01*
X50454Y-34089D01*
X50471Y-34051D01*
X50488Y-33976D01*
X50488Y-33883D01*
X50471Y-33808D01*
X50454Y-33770D01*
X50437Y-33751D01*
X50403Y-33732D01*
G54D12*
X53000Y-38862D02*
X53000Y-38744D01*
X52794Y-38693D02*
X52794Y-38862D01*
X53188Y-38862D01*
X53188Y-38693D01*
X52944Y-38542D02*
X52944Y-38272D01*
X53000Y-37834D02*
X53000Y-37716D01*
X52794Y-37665D02*
X52794Y-37834D01*
X53188Y-37834D01*
X53188Y-37665D01*
X52944Y-37514D02*
X52944Y-37244D01*
X52794Y-37379D02*
X53094Y-37379D01*
X52812Y-36823D02*
X52794Y-36772D01*
X52794Y-36688D01*
X52812Y-36654D01*
X52831Y-36637D01*
X52869Y-36620D01*
X52906Y-36620D01*
X52944Y-36637D01*
X52962Y-36654D01*
X52981Y-36688D01*
X53000Y-36755D01*
X53019Y-36789D01*
X53037Y-36806D01*
X53075Y-36823D01*
X53112Y-36823D01*
X53150Y-36806D01*
X53169Y-36789D01*
X53188Y-36755D01*
X53188Y-36671D01*
X53169Y-36620D01*
X52944Y-36469D02*
X52944Y-36199D01*
X52812Y-35778D02*
X52794Y-35727D01*
X52794Y-35643D01*
X52812Y-35609D01*
X52831Y-35592D01*
X52869Y-35575D01*
X52906Y-35575D01*
X52944Y-35592D01*
X52962Y-35609D01*
X52981Y-35643D01*
X53000Y-35710D01*
X53019Y-35744D01*
X53037Y-35761D01*
X53075Y-35778D01*
X53112Y-35778D01*
X53150Y-35761D01*
X53169Y-35744D01*
X53188Y-35710D01*
X53188Y-35626D01*
X53169Y-35575D01*
X52944Y-35424D02*
X52944Y-35154D01*
X52794Y-35289D02*
X53094Y-35289D01*
G54D13*
X51500Y-46000D02*
X50500Y-46000D01*
X51500Y-47000D02*
X51500Y-46000D01*
G54D14*
X50500Y-38000D02*
X51500Y-38000D01*
X51500Y-38000D02*
X52500Y-38000D01*
G54D15*
X50244Y-38862D02*
X50244Y-38744D01*
X50038Y-38693D02*
X50038Y-38862D01*
X50432Y-38862D01*
X50432Y-38693D01*
X50188Y-38542D02*
X50188Y-38272D01*
X50038Y-38407D02*
X50338Y-38407D01*
X50056Y-37851D02*
X50038Y-37800D01*
X50038Y-37716D01*
X50056Y-37682D01*
X50075Y-37665D01*
X50113Y-37648D01*
X50150Y-37648D01*
X50188Y-37665D01*
X50206Y-37682D01*
X50225Y-37716D01*
X50244Y-37783D01*
X50263Y-37817D01*
X50281Y-37834D01*
X50319Y-37851D01*
X50356Y-37851D01*
X50394Y-37834D01*
X50413Y-37817D01*
X50432Y-37783D01*
X50432Y-37699D01*
X50413Y-37648D01*
X50188Y-37497D02*
X50188Y-37227D01*
X50038Y-37362D02*
X50338Y-37362D01*
X50244Y-36789D02*
X50244Y-36671D01*
X50038Y-36620D02*
X50038Y-36789D01*
X50432Y-36789D01*
X50432Y-36620D01*
X50188Y-36469D02*
X50188Y-36199D01*
X50056Y-35778D02*
X50038Y-35727D01*
X50038Y-35643D01*
X50056Y-35609D01*
X50075Y-35592D01*
X50113Y-35575D01*
X50150Y-35575D01*
X50188Y-35592D01*
X50206Y-35609D01*
X50225Y-35643D01*
X50244Y-35710D01*
X50263Y-35744D01*
X50281Y-35761D01*
X50319Y-35778D01*
X50356Y-35778D01*
X50394Y-35761D01*
X50413Y-35744D01*
X50432Y-35710D01*
X50432Y-35626D01*
X50413Y-35575D01*
X50188Y-35424D02*
X50188Y-35154D01*
G54D16*
X68097Y-39980D02*
X68094Y-40007D01*
X68086Y-40033D01*
X68073Y-40058D01*
X68056Y-40079D01*
X68034Y-40096D01*
X68010Y-40109D01*
X67984Y-40118D01*
X67956Y-40120D01*
X67930Y-40118D01*
X67904Y-40110D01*
X67879Y-40097D01*
X67858Y-40080D01*
X67840Y-40059D01*
X67827Y-40035D01*
X67819Y-40009D01*
X67816Y-39981D01*
X67818Y-39955D01*
X67825Y-39929D01*
X67838Y-39904D01*
X67855Y-39883D01*
X67876Y-39865D01*
X67900Y-39851D01*
X67926Y-39843D01*
X67954Y-39840D01*
X67980Y-39842D01*
X68006Y-39849D01*
X68031Y-39861D01*
X68053Y-39878D01*
X68071Y-39899D01*
X68084Y-39923D01*
X68093Y-39949D01*
X68096Y-39977D01*
X68097Y-39980D01*
X62256Y-37280D02*
X68256Y-37280D01*
X68256Y-37280D02*
X68256Y-40280D01*
X68256Y-40280D02*
X62256Y-40280D01*
X62256Y-40280D02*
X62256Y-37280D01*
X56883Y-38431D02*
X56881Y-38444D01*
X56877Y-38457D01*
X56871Y-38469D01*
X56862Y-38480D01*
X56852Y-38489D01*
X56840Y-38495D01*
X56827Y-38499D01*
X56813Y-38500D01*
X56800Y-38499D01*
X56787Y-38495D01*
X56775Y-38489D01*
X56765Y-38481D01*
X56756Y-38470D01*
X56749Y-38458D01*
X56745Y-38445D01*
X56744Y-38431D01*
X56745Y-38419D01*
X56748Y-38406D01*
X56755Y-38394D01*
X56763Y-38383D01*
X56774Y-38374D01*
X56785Y-38367D01*
X56798Y-38363D01*
X56812Y-38362D01*
X56825Y-38363D01*
X56838Y-38366D01*
X56850Y-38372D01*
X56861Y-38381D01*
X56870Y-38391D01*
X56876Y-38403D01*
X56881Y-38416D01*
X56882Y-38430D01*
X56883Y-38431D01*
X56563Y-39181D02*
X60563Y-39181D01*
X60563Y-39181D02*
X60563Y-38181D01*
X60563Y-38181D02*
X56563Y-38181D01*
X56563Y-38181D02*
X56563Y-39181D01*
G54D17*
X50500Y-41000D02*
X50500Y-47000D01*
X52500Y-47000D02*
X52500Y-41000D01*
X52500Y-41000D02*
X50500Y-41000D01*
X50500Y-47000D02*
X52500Y-47000D01*
G54D18*
X52500Y-39000D02*
X51500Y-39000D01*
X51500Y-35000D02*
X52500Y-35000D01*
X52500Y-39000D02*
X52500Y-35000D01*
X51500Y-35000D02*
X51500Y-39000D01*
X51500Y-39000D02*
X50500Y-39000D01*
X50500Y-35000D02*
X51500Y-35000D01*
X51500Y-39000D02*
X51500Y-35000D01*
X50500Y-35000D02*
X50500Y-39000D01*
X65733Y-35391D02*
X65733Y-35877D01*
X65705Y-35934D01*
X65676Y-35962D01*
X65619Y-35991D01*
X65505Y-35991D01*
X65447Y-35962D01*
X65419Y-35934D01*
X65390Y-35877D01*
X65390Y-35391D01*
X65133Y-35448D02*
X65104Y-35419D01*
X65047Y-35391D01*
X64904Y-35391D01*
X64847Y-35419D01*
X64818Y-35448D01*
X64790Y-35505D01*
X64790Y-35562D01*
X64818Y-35648D01*
X65161Y-35991D01*
X64790Y-35991D01*
X64545Y-41441D02*
X64574Y-41527D01*
X64574Y-41670D01*
X64545Y-41727D01*
X64517Y-41756D01*
X64460Y-41784D01*
X64402Y-41784D01*
X64345Y-41756D01*
X64317Y-41727D01*
X64288Y-41670D01*
X64260Y-41556D01*
X64231Y-41498D01*
X64202Y-41470D01*
X64145Y-41441D01*
X64088Y-41441D01*
X64031Y-41470D01*
X64002Y-41498D01*
X63974Y-41556D01*
X63974Y-41698D01*
X64002Y-41784D01*
X63974Y-42212D02*
X64402Y-42212D01*
X64488Y-42184D01*
X64545Y-42127D01*
X64574Y-42041D01*
X64574Y-41984D01*
X64031Y-42469D02*
X64002Y-42498D01*
X63974Y-42555D01*
X63974Y-42698D01*
X64002Y-42755D01*
X64031Y-42784D01*
X64088Y-42812D01*
X64145Y-42812D01*
X64231Y-42784D01*
X64574Y-42441D01*
X64574Y-42812D01*
X67458Y-41441D02*
X67487Y-41527D01*
X67487Y-41670D01*
X67458Y-41727D01*
X67430Y-41756D01*
X67373Y-41784D01*
X67315Y-41784D01*
X67258Y-41756D01*
X67230Y-41727D01*
X67201Y-41670D01*
X67173Y-41556D01*
X67144Y-41498D01*
X67115Y-41470D01*
X67058Y-41441D01*
X67001Y-41441D01*
X66944Y-41470D01*
X66915Y-41498D01*
X66887Y-41556D01*
X66887Y-41698D01*
X66915Y-41784D01*
X66887Y-42212D02*
X67315Y-42212D01*
X67401Y-42184D01*
X67458Y-42127D01*
X67487Y-42041D01*
X67487Y-41984D01*
X67487Y-42812D02*
X67487Y-42469D01*
X67487Y-42641D02*
X66887Y-42641D01*
X66973Y-42584D01*
X67030Y-42526D01*
X67058Y-42469D01*
X59020Y-36324D02*
X59020Y-36810D01*
X58992Y-36867D01*
X58963Y-36895D01*
X58906Y-36924D01*
X58792Y-36924D01*
X58734Y-36895D01*
X58706Y-36867D01*
X58677Y-36810D01*
X58677Y-36324D01*
X58077Y-36924D02*
X58420Y-36924D01*
X58248Y-36924D02*
X58248Y-36324D01*
X58305Y-36410D01*
X58363Y-36467D01*
X58420Y-36495D01*
G54D17*
X51186Y-47422D02*
X50786Y-47422D01*
X50786Y-47575D01*
X50805Y-47613D01*
X50824Y-47632D01*
X50862Y-47651D01*
X50919Y-47651D01*
X50957Y-47632D01*
X50976Y-47613D01*
X50995Y-47575D01*
X50995Y-47422D01*
X51186Y-48032D02*
X51186Y-47803D01*
X51186Y-47917D02*
X50786Y-47917D01*
X50843Y-47879D01*
X50881Y-47841D01*
X50900Y-47803D01*
X52115Y-39262D02*
X51715Y-39262D01*
X51715Y-39415D01*
X51734Y-39453D01*
X51753Y-39472D01*
X51791Y-39491D01*
X51848Y-39491D01*
X51886Y-39472D01*
X51905Y-39453D01*
X51924Y-39415D01*
X51924Y-39262D01*
X52115Y-39872D02*
X52115Y-39643D01*
X52115Y-39757D02*
X51715Y-39757D01*
X51772Y-39719D01*
X51810Y-39681D01*
X51829Y-39643D01*
X51715Y-40119D02*
X51715Y-40158D01*
X51734Y-40196D01*
X51753Y-40215D01*
X51791Y-40234D01*
X51867Y-40253D01*
X51963Y-40253D01*
X52039Y-40234D01*
X52077Y-40215D01*
X52096Y-40196D01*
X52115Y-40158D01*
X52115Y-40119D01*
X52096Y-40081D01*
X52077Y-40062D01*
X52039Y-40043D01*
X51963Y-40024D01*
X51867Y-40024D01*
X51791Y-40043D01*
X51753Y-40062D01*
X51734Y-40081D01*
X51715Y-40119D01*
X51138Y-39262D02*
X50738Y-39262D01*
X50738Y-39415D01*
X50757Y-39453D01*
X50776Y-39472D01*
X50814Y-39491D01*
X50871Y-39491D01*
X50909Y-39472D01*
X50928Y-39453D01*
X50947Y-39415D01*
X50947Y-39262D01*
X50776Y-39643D02*
X50757Y-39662D01*
X50738Y-39700D01*
X50738Y-39796D01*
X50757Y-39834D01*
X50776Y-39853D01*
X50814Y-39872D01*
X50852Y-39872D01*
X50909Y-39853D01*
X51138Y-39624D01*
X51138Y-39872D01*
X50909Y-40100D02*
X50890Y-40062D01*
X50871Y-40043D01*
X50833Y-40024D01*
X50814Y-40024D01*
X50776Y-40043D01*
X50757Y-40062D01*
X50738Y-40100D01*
X50738Y-40177D01*
X50757Y-40215D01*
X50776Y-40234D01*
X50814Y-40253D01*
X50833Y-40253D01*
X50871Y-40234D01*
X50890Y-40215D01*
X50909Y-40177D01*
X50909Y-40100D01*
X50928Y-40062D01*
X50947Y-40043D01*
X50986Y-40024D01*
X51062Y-40024D01*
X51100Y-40043D01*
X51119Y-40062D01*
X51138Y-40100D01*
X51138Y-40177D01*
X51119Y-40215D01*
X51100Y-40234D01*
X51062Y-40253D01*
X50986Y-40253D01*
X50947Y-40234D01*
X50928Y-40215D01*
X50909Y-40177D01*
M02*
