G04 (created by PCBNEW-RS274X (2012-01-19 BZR 3256)-stable) date Mon 10 Dec 2012 16:42:03 GMT*
G01*
G70*
G90*
%MOIN*%
G04 Gerber Fmt 3.4, Leading zero omitted, Abs format*
%FSLAX34Y34*%
G04 APERTURE LIST*
%ADD10C,0.006000*%
%ADD11C,0.012000*%
%ADD12C,0.009900*%
%ADD13C,0.015000*%
%ADD14C,0.005000*%
G04 APERTURE END LIST*
G54D10*
G54D11*
X43557Y-52024D02*
X43900Y-52024D01*
X43729Y-52824D02*
X43729Y-52024D01*
X44186Y-52824D02*
X44128Y-52786D01*
X44100Y-52748D01*
X44071Y-52671D01*
X44071Y-52443D01*
X44100Y-52367D01*
X44128Y-52329D01*
X44186Y-52290D01*
X44271Y-52290D01*
X44328Y-52329D01*
X44357Y-52367D01*
X44386Y-52443D01*
X44386Y-52671D01*
X44357Y-52748D01*
X44328Y-52786D01*
X44271Y-52824D01*
X44186Y-52824D01*
X44900Y-52824D02*
X44900Y-52024D01*
X44900Y-52786D02*
X44843Y-52824D01*
X44729Y-52824D01*
X44671Y-52786D01*
X44643Y-52748D01*
X44614Y-52671D01*
X44614Y-52443D01*
X44643Y-52367D01*
X44671Y-52329D01*
X44729Y-52290D01*
X44843Y-52290D01*
X44900Y-52329D01*
X45272Y-52824D02*
X45214Y-52786D01*
X45186Y-52748D01*
X45157Y-52671D01*
X45157Y-52443D01*
X45186Y-52367D01*
X45214Y-52329D01*
X45272Y-52290D01*
X45357Y-52290D01*
X45414Y-52329D01*
X45443Y-52367D01*
X45472Y-52443D01*
X45472Y-52671D01*
X45443Y-52748D01*
X45414Y-52786D01*
X45357Y-52824D01*
X45272Y-52824D01*
X45729Y-52748D02*
X45757Y-52786D01*
X45729Y-52824D01*
X45700Y-52786D01*
X45729Y-52748D01*
X45729Y-52824D01*
X45729Y-52329D02*
X45757Y-52367D01*
X45729Y-52405D01*
X45700Y-52367D01*
X45729Y-52329D01*
X45729Y-52405D01*
G54D12*
X67610Y-35859D02*
X67554Y-35878D01*
X67535Y-35897D01*
X67516Y-35934D01*
X67516Y-35990D01*
X67535Y-36028D01*
X67554Y-36047D01*
X67591Y-36065D01*
X67741Y-36065D01*
X67741Y-35671D01*
X67610Y-35671D01*
X67572Y-35690D01*
X67554Y-35709D01*
X67535Y-35747D01*
X67535Y-35784D01*
X67554Y-35822D01*
X67572Y-35840D01*
X67610Y-35859D01*
X67741Y-35859D01*
X67178Y-36065D02*
X67178Y-35859D01*
X67197Y-35822D01*
X67235Y-35803D01*
X67310Y-35803D01*
X67347Y-35822D01*
X67178Y-36047D02*
X67216Y-36065D01*
X67310Y-36065D01*
X67347Y-36047D01*
X67366Y-36009D01*
X67366Y-35972D01*
X67347Y-35934D01*
X67310Y-35915D01*
X67216Y-35915D01*
X67178Y-35897D01*
X67047Y-35803D02*
X66897Y-35803D01*
X66991Y-35671D02*
X66991Y-36009D01*
X66972Y-36047D01*
X66935Y-36065D01*
X66897Y-36065D01*
X66822Y-35803D02*
X66672Y-35803D01*
X66766Y-35671D02*
X66766Y-36009D01*
X66747Y-36047D01*
X66710Y-36065D01*
X66672Y-36065D01*
X66391Y-36047D02*
X66429Y-36065D01*
X66504Y-36065D01*
X66541Y-36047D01*
X66560Y-36009D01*
X66560Y-35859D01*
X66541Y-35822D01*
X66504Y-35803D01*
X66429Y-35803D01*
X66391Y-35822D01*
X66372Y-35859D01*
X66372Y-35897D01*
X66560Y-35934D01*
X66203Y-36065D02*
X66203Y-35803D01*
X66203Y-35878D02*
X66184Y-35840D01*
X66166Y-35822D01*
X66128Y-35803D01*
X66091Y-35803D01*
X65997Y-35803D02*
X65903Y-36065D01*
X65809Y-35803D02*
X65903Y-36065D01*
X65940Y-36159D01*
X65959Y-36178D01*
X65997Y-36197D01*
X65190Y-36047D02*
X65228Y-36065D01*
X65303Y-36065D01*
X65340Y-36047D01*
X65359Y-36028D01*
X65378Y-35990D01*
X65378Y-35878D01*
X65359Y-35840D01*
X65340Y-35822D01*
X65303Y-35803D01*
X65228Y-35803D01*
X65190Y-35822D01*
X64965Y-36065D02*
X65002Y-36047D01*
X65021Y-36028D01*
X65040Y-35990D01*
X65040Y-35878D01*
X65021Y-35840D01*
X65002Y-35822D01*
X64965Y-35803D01*
X64909Y-35803D01*
X64871Y-35822D01*
X64852Y-35840D01*
X64834Y-35878D01*
X64834Y-35990D01*
X64852Y-36028D01*
X64871Y-36047D01*
X64909Y-36065D01*
X64965Y-36065D01*
X64703Y-35803D02*
X64609Y-36065D01*
X64515Y-35803D01*
X64215Y-36047D02*
X64253Y-36065D01*
X64328Y-36065D01*
X64365Y-36047D01*
X64384Y-36009D01*
X64384Y-35859D01*
X64365Y-35822D01*
X64328Y-35803D01*
X64253Y-35803D01*
X64215Y-35822D01*
X64196Y-35859D01*
X64196Y-35897D01*
X64384Y-35934D01*
X64027Y-36065D02*
X64027Y-35803D01*
X64027Y-35878D02*
X64008Y-35840D01*
X63990Y-35822D01*
X63952Y-35803D01*
X63915Y-35803D01*
X63483Y-35915D02*
X63183Y-35915D01*
X62526Y-36047D02*
X62564Y-36065D01*
X62639Y-36065D01*
X62676Y-36047D01*
X62695Y-36028D01*
X62714Y-35990D01*
X62714Y-35878D01*
X62695Y-35840D01*
X62676Y-35822D01*
X62639Y-35803D01*
X62564Y-35803D01*
X62526Y-35822D01*
X62301Y-36065D02*
X62338Y-36047D01*
X62357Y-36028D01*
X62376Y-35990D01*
X62376Y-35878D01*
X62357Y-35840D01*
X62338Y-35822D01*
X62301Y-35803D01*
X62245Y-35803D01*
X62207Y-35822D01*
X62188Y-35840D01*
X62170Y-35878D01*
X62170Y-35990D01*
X62188Y-36028D01*
X62207Y-36047D01*
X62245Y-36065D01*
X62301Y-36065D01*
X62001Y-35803D02*
X62001Y-36065D01*
X62001Y-35840D02*
X61982Y-35822D01*
X61945Y-35803D01*
X61889Y-35803D01*
X61851Y-35822D01*
X61832Y-35859D01*
X61832Y-36065D01*
X61645Y-35803D02*
X61645Y-36065D01*
X61645Y-35840D02*
X61626Y-35822D01*
X61589Y-35803D01*
X61533Y-35803D01*
X61495Y-35822D01*
X61476Y-35859D01*
X61476Y-36065D01*
X61139Y-36047D02*
X61177Y-36065D01*
X61252Y-36065D01*
X61289Y-36047D01*
X61308Y-36009D01*
X61308Y-35859D01*
X61289Y-35822D01*
X61252Y-35803D01*
X61177Y-35803D01*
X61139Y-35822D01*
X61120Y-35859D01*
X61120Y-35897D01*
X61308Y-35934D01*
X60782Y-36047D02*
X60820Y-36065D01*
X60895Y-36065D01*
X60932Y-36047D01*
X60951Y-36028D01*
X60970Y-35990D01*
X60970Y-35878D01*
X60951Y-35840D01*
X60932Y-35822D01*
X60895Y-35803D01*
X60820Y-35803D01*
X60782Y-35822D01*
X60669Y-35803D02*
X60519Y-35803D01*
X60613Y-35671D02*
X60613Y-36009D01*
X60594Y-36047D01*
X60557Y-36065D01*
X60519Y-36065D01*
X60332Y-36065D02*
X60369Y-36047D01*
X60388Y-36028D01*
X60407Y-35990D01*
X60407Y-35878D01*
X60388Y-35840D01*
X60369Y-35822D01*
X60332Y-35803D01*
X60276Y-35803D01*
X60238Y-35822D01*
X60219Y-35840D01*
X60201Y-35878D01*
X60201Y-35990D01*
X60219Y-36028D01*
X60238Y-36047D01*
X60276Y-36065D01*
X60332Y-36065D01*
X60032Y-36065D02*
X60032Y-35803D01*
X60032Y-35878D02*
X60013Y-35840D01*
X59995Y-35822D01*
X59957Y-35803D01*
X59920Y-35803D01*
X59807Y-36047D02*
X59769Y-36065D01*
X59694Y-36065D01*
X59657Y-36047D01*
X59638Y-36009D01*
X59638Y-35990D01*
X59657Y-35953D01*
X59694Y-35934D01*
X59751Y-35934D01*
X59788Y-35915D01*
X59807Y-35878D01*
X59807Y-35859D01*
X59788Y-35822D01*
X59751Y-35803D01*
X59694Y-35803D01*
X59657Y-35822D01*
X59000Y-36065D02*
X59000Y-35859D01*
X59019Y-35822D01*
X59057Y-35803D01*
X59132Y-35803D01*
X59169Y-35822D01*
X59000Y-36047D02*
X59038Y-36065D01*
X59132Y-36065D01*
X59169Y-36047D01*
X59188Y-36009D01*
X59188Y-35972D01*
X59169Y-35934D01*
X59132Y-35915D01*
X59038Y-35915D01*
X59000Y-35897D01*
X58813Y-35803D02*
X58813Y-36065D01*
X58813Y-35840D02*
X58794Y-35822D01*
X58757Y-35803D01*
X58701Y-35803D01*
X58663Y-35822D01*
X58644Y-35859D01*
X58644Y-36065D01*
X58288Y-36065D02*
X58288Y-35671D01*
X58288Y-36047D02*
X58326Y-36065D01*
X58401Y-36065D01*
X58438Y-36047D01*
X58457Y-36028D01*
X58476Y-35990D01*
X58476Y-35878D01*
X58457Y-35840D01*
X58438Y-35822D01*
X58401Y-35803D01*
X58326Y-35803D01*
X58288Y-35822D01*
X67760Y-36697D02*
X67722Y-36715D01*
X67647Y-36715D01*
X67610Y-36697D01*
X67591Y-36659D01*
X67591Y-36640D01*
X67610Y-36603D01*
X67647Y-36584D01*
X67704Y-36584D01*
X67741Y-36565D01*
X67760Y-36528D01*
X67760Y-36509D01*
X67741Y-36472D01*
X67704Y-36453D01*
X67647Y-36453D01*
X67610Y-36472D01*
X67460Y-36453D02*
X67385Y-36715D01*
X67310Y-36528D01*
X67235Y-36715D01*
X67160Y-36453D01*
X67009Y-36715D02*
X67009Y-36453D01*
X67009Y-36321D02*
X67028Y-36340D01*
X67009Y-36359D01*
X66990Y-36340D01*
X67009Y-36321D01*
X67009Y-36359D01*
X66877Y-36453D02*
X66727Y-36453D01*
X66821Y-36321D02*
X66821Y-36659D01*
X66802Y-36697D01*
X66765Y-36715D01*
X66727Y-36715D01*
X66427Y-36697D02*
X66465Y-36715D01*
X66540Y-36715D01*
X66577Y-36697D01*
X66596Y-36678D01*
X66615Y-36640D01*
X66615Y-36528D01*
X66596Y-36490D01*
X66577Y-36472D01*
X66540Y-36453D01*
X66465Y-36453D01*
X66427Y-36472D01*
X66258Y-36715D02*
X66258Y-36321D01*
X66089Y-36715D02*
X66089Y-36509D01*
X66108Y-36472D01*
X66146Y-36453D01*
X66202Y-36453D01*
X66239Y-36472D01*
X66258Y-36490D01*
X65752Y-36697D02*
X65790Y-36715D01*
X65865Y-36715D01*
X65902Y-36697D01*
X65921Y-36659D01*
X65921Y-36509D01*
X65902Y-36472D01*
X65865Y-36453D01*
X65790Y-36453D01*
X65752Y-36472D01*
X65733Y-36509D01*
X65733Y-36547D01*
X65921Y-36584D01*
X65583Y-36697D02*
X65545Y-36715D01*
X65470Y-36715D01*
X65433Y-36697D01*
X65414Y-36659D01*
X65414Y-36640D01*
X65433Y-36603D01*
X65470Y-36584D01*
X65527Y-36584D01*
X65564Y-36565D01*
X65583Y-36528D01*
X65583Y-36509D01*
X65564Y-36472D01*
X65527Y-36453D01*
X65470Y-36453D01*
X65433Y-36472D01*
X64945Y-36715D02*
X64945Y-36453D01*
X64945Y-36321D02*
X64964Y-36340D01*
X64945Y-36359D01*
X64926Y-36340D01*
X64945Y-36321D01*
X64945Y-36359D01*
X64757Y-36453D02*
X64757Y-36715D01*
X64757Y-36490D02*
X64738Y-36472D01*
X64701Y-36453D01*
X64645Y-36453D01*
X64607Y-36472D01*
X64588Y-36509D01*
X64588Y-36715D01*
X64420Y-36697D02*
X64382Y-36715D01*
X64307Y-36715D01*
X64270Y-36697D01*
X64251Y-36659D01*
X64251Y-36640D01*
X64270Y-36603D01*
X64307Y-36584D01*
X64364Y-36584D01*
X64401Y-36565D01*
X64420Y-36528D01*
X64420Y-36509D01*
X64401Y-36472D01*
X64364Y-36453D01*
X64307Y-36453D01*
X64270Y-36472D01*
X64082Y-36715D02*
X64082Y-36453D01*
X64082Y-36321D02*
X64101Y-36340D01*
X64082Y-36359D01*
X64063Y-36340D01*
X64082Y-36321D01*
X64082Y-36359D01*
X63725Y-36715D02*
X63725Y-36321D01*
X63725Y-36697D02*
X63763Y-36715D01*
X63838Y-36715D01*
X63875Y-36697D01*
X63894Y-36678D01*
X63913Y-36640D01*
X63913Y-36528D01*
X63894Y-36490D01*
X63875Y-36472D01*
X63838Y-36453D01*
X63763Y-36453D01*
X63725Y-36472D01*
X63388Y-36697D02*
X63426Y-36715D01*
X63501Y-36715D01*
X63538Y-36697D01*
X63557Y-36659D01*
X63557Y-36509D01*
X63538Y-36472D01*
X63501Y-36453D01*
X63426Y-36453D01*
X63388Y-36472D01*
X63369Y-36509D01*
X63369Y-36547D01*
X63557Y-36584D01*
X62844Y-36715D02*
X62881Y-36697D01*
X62900Y-36659D01*
X62900Y-36321D01*
X62694Y-36715D02*
X62694Y-36453D01*
X62694Y-36321D02*
X62713Y-36340D01*
X62694Y-36359D01*
X62675Y-36340D01*
X62694Y-36321D01*
X62694Y-36359D01*
X62506Y-36453D02*
X62506Y-36715D01*
X62506Y-36490D02*
X62487Y-36472D01*
X62450Y-36453D01*
X62394Y-36453D01*
X62356Y-36472D01*
X62337Y-36509D01*
X62337Y-36715D01*
X62000Y-36697D02*
X62038Y-36715D01*
X62113Y-36715D01*
X62150Y-36697D01*
X62169Y-36659D01*
X62169Y-36509D01*
X62150Y-36472D01*
X62113Y-36453D01*
X62038Y-36453D01*
X62000Y-36472D01*
X61981Y-36509D01*
X61981Y-36547D01*
X62169Y-36584D01*
X61456Y-36715D02*
X61493Y-36697D01*
X61512Y-36678D01*
X61531Y-36640D01*
X61531Y-36528D01*
X61512Y-36490D01*
X61493Y-36472D01*
X61456Y-36453D01*
X61400Y-36453D01*
X61362Y-36472D01*
X61343Y-36490D01*
X61325Y-36528D01*
X61325Y-36640D01*
X61343Y-36678D01*
X61362Y-36697D01*
X61400Y-36715D01*
X61456Y-36715D01*
X61156Y-36453D02*
X61156Y-36715D01*
X61156Y-36490D02*
X61137Y-36472D01*
X61100Y-36453D01*
X61044Y-36453D01*
X61006Y-36472D01*
X60987Y-36509D01*
X60987Y-36715D01*
X60500Y-36715D02*
X60500Y-36321D01*
X60500Y-36472D02*
X60463Y-36453D01*
X60388Y-36453D01*
X60350Y-36472D01*
X60331Y-36490D01*
X60313Y-36528D01*
X60313Y-36640D01*
X60331Y-36678D01*
X60350Y-36697D01*
X60388Y-36715D01*
X60463Y-36715D01*
X60500Y-36697D01*
X60088Y-36715D02*
X60125Y-36697D01*
X60144Y-36678D01*
X60163Y-36640D01*
X60163Y-36528D01*
X60144Y-36490D01*
X60125Y-36472D01*
X60088Y-36453D01*
X60032Y-36453D01*
X59994Y-36472D01*
X59975Y-36490D01*
X59957Y-36528D01*
X59957Y-36640D01*
X59975Y-36678D01*
X59994Y-36697D01*
X60032Y-36715D01*
X60088Y-36715D01*
X59844Y-36453D02*
X59694Y-36453D01*
X59788Y-36321D02*
X59788Y-36659D01*
X59769Y-36697D01*
X59732Y-36715D01*
X59694Y-36715D01*
X59619Y-36453D02*
X59469Y-36453D01*
X59563Y-36321D02*
X59563Y-36659D01*
X59544Y-36697D01*
X59507Y-36715D01*
X59469Y-36715D01*
X59282Y-36715D02*
X59319Y-36697D01*
X59338Y-36678D01*
X59357Y-36640D01*
X59357Y-36528D01*
X59338Y-36490D01*
X59319Y-36472D01*
X59282Y-36453D01*
X59226Y-36453D01*
X59188Y-36472D01*
X59169Y-36490D01*
X59151Y-36528D01*
X59151Y-36640D01*
X59169Y-36678D01*
X59188Y-36697D01*
X59226Y-36715D01*
X59282Y-36715D01*
X58982Y-36715D02*
X58982Y-36453D01*
X58982Y-36490D02*
X58963Y-36472D01*
X58926Y-36453D01*
X58870Y-36453D01*
X58832Y-36472D01*
X58813Y-36509D01*
X58813Y-36715D01*
X58813Y-36509D02*
X58795Y-36472D01*
X58757Y-36453D01*
X58701Y-36453D01*
X58663Y-36472D01*
X58644Y-36509D01*
X58644Y-36715D01*
X58101Y-36715D02*
X58138Y-36697D01*
X58157Y-36659D01*
X58157Y-36321D01*
X57782Y-36715D02*
X57782Y-36509D01*
X57801Y-36472D01*
X57839Y-36453D01*
X57914Y-36453D01*
X57951Y-36472D01*
X57782Y-36697D02*
X57820Y-36715D01*
X57914Y-36715D01*
X57951Y-36697D01*
X57970Y-36659D01*
X57970Y-36622D01*
X57951Y-36584D01*
X57914Y-36565D01*
X57820Y-36565D01*
X57782Y-36547D01*
X57633Y-36453D02*
X57539Y-36715D01*
X57445Y-36453D02*
X57539Y-36715D01*
X57576Y-36809D01*
X57595Y-36828D01*
X57633Y-36847D01*
X57145Y-36697D02*
X57183Y-36715D01*
X57258Y-36715D01*
X57295Y-36697D01*
X57314Y-36659D01*
X57314Y-36509D01*
X57295Y-36472D01*
X57258Y-36453D01*
X57183Y-36453D01*
X57145Y-36472D01*
X57126Y-36509D01*
X57126Y-36547D01*
X57314Y-36584D01*
X56957Y-36715D02*
X56957Y-36453D01*
X56957Y-36528D02*
X56938Y-36490D01*
X56920Y-36472D01*
X56882Y-36453D01*
X56845Y-36453D01*
G54D13*
X59331Y-46851D02*
X60906Y-46851D01*
X56181Y-46850D02*
X57756Y-46850D01*
X64843Y-46851D02*
X63268Y-46851D01*
X67992Y-46851D02*
X66417Y-46851D01*
X67992Y-45275D02*
X67992Y-46850D01*
X67992Y-42126D02*
X67992Y-43701D01*
X67992Y-38977D02*
X67992Y-40552D01*
X67992Y-35432D02*
X67992Y-37401D01*
X65630Y-35433D02*
X67992Y-35433D01*
X62480Y-35433D02*
X64055Y-35433D01*
X59331Y-35433D02*
X60906Y-35433D01*
X56181Y-35433D02*
X57756Y-35433D01*
X56181Y-37402D02*
X56181Y-35433D01*
X56181Y-40552D02*
X56181Y-38977D01*
X56181Y-43700D02*
X56181Y-42125D01*
X56181Y-46851D02*
X56181Y-45276D01*
X69291Y-48425D02*
X53149Y-48425D01*
G54D12*
X53214Y-48663D02*
X53289Y-48663D01*
X53326Y-48682D01*
X53364Y-48720D01*
X53383Y-48795D01*
X53383Y-48926D01*
X53364Y-49001D01*
X53326Y-49039D01*
X53289Y-49057D01*
X53214Y-49057D01*
X53176Y-49039D01*
X53139Y-49001D01*
X53120Y-48926D01*
X53120Y-48795D01*
X53139Y-48720D01*
X53176Y-48682D01*
X53214Y-48663D01*
X53552Y-49057D02*
X53552Y-48795D01*
X53552Y-48870D02*
X53571Y-48832D01*
X53589Y-48814D01*
X53627Y-48795D01*
X53664Y-48795D01*
X53796Y-49057D02*
X53796Y-48795D01*
X53796Y-48663D02*
X53777Y-48682D01*
X53796Y-48701D01*
X53815Y-48682D01*
X53796Y-48663D01*
X53796Y-48701D01*
X54153Y-48795D02*
X54153Y-49114D01*
X54134Y-49151D01*
X54115Y-49170D01*
X54078Y-49189D01*
X54021Y-49189D01*
X53984Y-49170D01*
X54153Y-49039D02*
X54115Y-49057D01*
X54040Y-49057D01*
X54003Y-49039D01*
X53984Y-49020D01*
X53965Y-48982D01*
X53965Y-48870D01*
X53984Y-48832D01*
X54003Y-48814D01*
X54040Y-48795D01*
X54115Y-48795D01*
X54153Y-48814D01*
X54340Y-49057D02*
X54340Y-48795D01*
X54340Y-48663D02*
X54321Y-48682D01*
X54340Y-48701D01*
X54359Y-48682D01*
X54340Y-48663D01*
X54340Y-48701D01*
X54528Y-48795D02*
X54528Y-49057D01*
X54528Y-48832D02*
X54547Y-48814D01*
X54584Y-48795D01*
X54640Y-48795D01*
X54678Y-48814D01*
X54697Y-48851D01*
X54697Y-49057D01*
X55053Y-49057D02*
X55053Y-48851D01*
X55034Y-48814D01*
X54996Y-48795D01*
X54921Y-48795D01*
X54884Y-48814D01*
X55053Y-49039D02*
X55015Y-49057D01*
X54921Y-49057D01*
X54884Y-49039D01*
X54865Y-49001D01*
X54865Y-48964D01*
X54884Y-48926D01*
X54921Y-48907D01*
X55015Y-48907D01*
X55053Y-48889D01*
X55296Y-49057D02*
X55259Y-49039D01*
X55240Y-49001D01*
X55240Y-48663D01*
X55746Y-49057D02*
X55746Y-48663D01*
X55896Y-48663D01*
X55933Y-48682D01*
X55952Y-48701D01*
X55971Y-48739D01*
X55971Y-48795D01*
X55952Y-48832D01*
X55933Y-48851D01*
X55896Y-48870D01*
X55746Y-48870D01*
X56365Y-49020D02*
X56346Y-49039D01*
X56290Y-49057D01*
X56252Y-49057D01*
X56196Y-49039D01*
X56159Y-49001D01*
X56140Y-48964D01*
X56121Y-48889D01*
X56121Y-48832D01*
X56140Y-48757D01*
X56159Y-48720D01*
X56196Y-48682D01*
X56252Y-48663D01*
X56290Y-48663D01*
X56346Y-48682D01*
X56365Y-48701D01*
X56665Y-48851D02*
X56721Y-48870D01*
X56740Y-48889D01*
X56759Y-48926D01*
X56759Y-48982D01*
X56740Y-49020D01*
X56721Y-49039D01*
X56684Y-49057D01*
X56534Y-49057D01*
X56534Y-48663D01*
X56665Y-48663D01*
X56703Y-48682D01*
X56721Y-48701D01*
X56740Y-48739D01*
X56740Y-48776D01*
X56721Y-48814D01*
X56703Y-48832D01*
X56665Y-48851D01*
X56534Y-48851D01*
X57284Y-49057D02*
X57247Y-49039D01*
X57228Y-49020D01*
X57209Y-48982D01*
X57209Y-48870D01*
X57228Y-48832D01*
X57247Y-48814D01*
X57284Y-48795D01*
X57340Y-48795D01*
X57378Y-48814D01*
X57397Y-48832D01*
X57415Y-48870D01*
X57415Y-48982D01*
X57397Y-49020D01*
X57378Y-49039D01*
X57340Y-49057D01*
X57284Y-49057D01*
X57753Y-48795D02*
X57753Y-49057D01*
X57584Y-48795D02*
X57584Y-49001D01*
X57603Y-49039D01*
X57640Y-49057D01*
X57696Y-49057D01*
X57734Y-49039D01*
X57753Y-49020D01*
X57884Y-48795D02*
X58034Y-48795D01*
X57940Y-48663D02*
X57940Y-49001D01*
X57959Y-49039D01*
X57996Y-49057D01*
X58034Y-49057D01*
X58221Y-49057D02*
X58184Y-49039D01*
X58165Y-49001D01*
X58165Y-48663D01*
X58371Y-49057D02*
X58371Y-48795D01*
X58371Y-48663D02*
X58352Y-48682D01*
X58371Y-48701D01*
X58390Y-48682D01*
X58371Y-48663D01*
X58371Y-48701D01*
X58559Y-48795D02*
X58559Y-49057D01*
X58559Y-48832D02*
X58578Y-48814D01*
X58615Y-48795D01*
X58671Y-48795D01*
X58709Y-48814D01*
X58728Y-48851D01*
X58728Y-49057D01*
X59065Y-49039D02*
X59027Y-49057D01*
X58952Y-49057D01*
X58915Y-49039D01*
X58896Y-49001D01*
X58896Y-48851D01*
X58915Y-48814D01*
X58952Y-48795D01*
X59027Y-48795D01*
X59065Y-48814D01*
X59084Y-48851D01*
X59084Y-48889D01*
X58896Y-48926D01*
G54D14*
X66142Y-47559D02*
X66142Y-47717D01*
X62953Y-47559D02*
X62953Y-47717D01*
X59764Y-47559D02*
X59764Y-47717D01*
X56181Y-47559D02*
X56181Y-47717D01*
X59724Y-32205D02*
X59724Y-32362D01*
X57953Y-32205D02*
X57953Y-32362D01*
X56181Y-32205D02*
X56181Y-32362D01*
X53937Y-47637D02*
X68503Y-47637D01*
X53937Y-32283D02*
X60236Y-32283D01*
G54D13*
X53149Y-48425D02*
X53149Y-31496D01*
X69291Y-33858D02*
X69291Y-48425D01*
X61023Y-33858D02*
X69291Y-33858D01*
X61023Y-31496D02*
X61023Y-33858D01*
X53149Y-31496D02*
X61023Y-31496D01*
M02*
