%FSLAX34Y34*%
G04 Gerber Fmt 3.4, Leading zero omitted, Abs format*
G04 (created by PCBNEW (2014-jan-25)-product) date Sat 06 Jun 2015 15:54:02 BST*
%MOIN*%
G01*
G70*
G90*
G04 APERTURE LIST*
%ADD10C,0.005906*%
%ADD11C,0.011811*%
%ADD12C,0.003900*%
%ADD13C,0.005000*%
%ADD14C,0.005100*%
%ADD15C,0.008000*%
%ADD16C,0.006000*%
%ADD17C,0.015000*%
%ADD18C,0.000100*%
%ADD19C,0.012000*%
%ADD20R,0.060000X0.060000*%
%ADD21C,0.060000*%
%ADD22R,0.062992X0.125984*%
%ADD23R,0.059100X0.051200*%
%ADD24R,0.051200X0.059100*%
%ADD25R,0.047200X0.047200*%
%ADD26R,0.078740X0.059055*%
%ADD27R,0.039400X0.059100*%
%ADD28C,0.051200*%
%ADD29C,0.078700*%
%ADD30R,0.047200X0.078700*%
%ADD31C,0.059055*%
%ADD32C,0.037402*%
%ADD33R,0.035400X0.055100*%
%ADD34R,0.078700X0.082700*%
%ADD35R,0.019700X0.078700*%
%ADD36R,0.078700X0.019700*%
%ADD37O,0.043300X0.070900*%
%ADD38O,0.043300X0.086600*%
%ADD39R,0.059100X0.017700*%
%ADD40R,0.094500X0.102400*%
G04 APERTURE END LIST*
G54D10*
G54D11*
X31115Y-40424D02*
X31246Y-41015D01*
X31351Y-40593D01*
X31456Y-41015D01*
X31587Y-40424D01*
X32007Y-40987D02*
X31955Y-41015D01*
X31850Y-41015D01*
X31797Y-40987D01*
X31771Y-40930D01*
X31771Y-40705D01*
X31797Y-40649D01*
X31850Y-40621D01*
X31955Y-40621D01*
X32007Y-40649D01*
X32034Y-40705D01*
X32034Y-40762D01*
X31771Y-40818D01*
X32270Y-41015D02*
X32270Y-40621D01*
X32270Y-40424D02*
X32244Y-40452D01*
X32270Y-40480D01*
X32296Y-40452D01*
X32270Y-40424D01*
X32270Y-40480D01*
X32769Y-40621D02*
X32769Y-41099D01*
X32742Y-41155D01*
X32716Y-41183D01*
X32664Y-41212D01*
X32585Y-41212D01*
X32532Y-41183D01*
X32769Y-40987D02*
X32716Y-41015D01*
X32611Y-41015D01*
X32559Y-40987D01*
X32532Y-40958D01*
X32506Y-40902D01*
X32506Y-40733D01*
X32532Y-40677D01*
X32559Y-40649D01*
X32611Y-40621D01*
X32716Y-40621D01*
X32769Y-40649D01*
X33031Y-41015D02*
X33031Y-40424D01*
X33267Y-41015D02*
X33267Y-40705D01*
X33241Y-40649D01*
X33188Y-40621D01*
X33110Y-40621D01*
X33057Y-40649D01*
X33031Y-40677D01*
X33713Y-40705D02*
X33530Y-40705D01*
X33530Y-41015D02*
X33530Y-40424D01*
X33792Y-40424D01*
X34002Y-41015D02*
X34002Y-40621D01*
X34002Y-40424D02*
X33976Y-40452D01*
X34002Y-40480D01*
X34028Y-40452D01*
X34002Y-40424D01*
X34002Y-40480D01*
X34685Y-41015D02*
X34685Y-40424D01*
X34868Y-40846D01*
X35052Y-40424D01*
X35052Y-41015D01*
X35551Y-41015D02*
X35551Y-40705D01*
X35524Y-40649D01*
X35472Y-40621D01*
X35367Y-40621D01*
X35314Y-40649D01*
X35551Y-40987D02*
X35498Y-41015D01*
X35367Y-41015D01*
X35314Y-40987D01*
X35288Y-40930D01*
X35288Y-40874D01*
X35314Y-40818D01*
X35367Y-40790D01*
X35498Y-40790D01*
X35551Y-40762D01*
X35813Y-41015D02*
X35813Y-40621D01*
X35813Y-40424D02*
X35787Y-40452D01*
X35813Y-40480D01*
X35839Y-40452D01*
X35813Y-40424D01*
X35813Y-40480D01*
X36076Y-40621D02*
X36076Y-41015D01*
X36076Y-40677D02*
X36102Y-40649D01*
X36154Y-40621D01*
X36233Y-40621D01*
X36286Y-40649D01*
X36312Y-40705D01*
X36312Y-41015D01*
X37178Y-40705D02*
X37257Y-40733D01*
X37283Y-40762D01*
X37309Y-40818D01*
X37309Y-40902D01*
X37283Y-40958D01*
X37257Y-40987D01*
X37204Y-41015D01*
X36994Y-41015D01*
X36994Y-40424D01*
X37178Y-40424D01*
X37230Y-40452D01*
X37257Y-40480D01*
X37283Y-40537D01*
X37283Y-40593D01*
X37257Y-40649D01*
X37230Y-40677D01*
X37178Y-40705D01*
X36994Y-40705D01*
X37624Y-41015D02*
X37572Y-40987D01*
X37545Y-40958D01*
X37519Y-40902D01*
X37519Y-40733D01*
X37545Y-40677D01*
X37572Y-40649D01*
X37624Y-40621D01*
X37703Y-40621D01*
X37755Y-40649D01*
X37782Y-40677D01*
X37808Y-40733D01*
X37808Y-40902D01*
X37782Y-40958D01*
X37755Y-40987D01*
X37703Y-41015D01*
X37624Y-41015D01*
X38280Y-41015D02*
X38280Y-40705D01*
X38254Y-40649D01*
X38202Y-40621D01*
X38097Y-40621D01*
X38044Y-40649D01*
X38280Y-40987D02*
X38228Y-41015D01*
X38097Y-41015D01*
X38044Y-40987D01*
X38018Y-40930D01*
X38018Y-40874D01*
X38044Y-40818D01*
X38097Y-40790D01*
X38228Y-40790D01*
X38280Y-40762D01*
X38543Y-41015D02*
X38543Y-40621D01*
X38543Y-40733D02*
X38569Y-40677D01*
X38595Y-40649D01*
X38648Y-40621D01*
X38700Y-40621D01*
X39120Y-41015D02*
X39120Y-40424D01*
X39120Y-40987D02*
X39068Y-41015D01*
X38963Y-41015D01*
X38910Y-40987D01*
X38884Y-40958D01*
X38858Y-40902D01*
X38858Y-40733D01*
X38884Y-40677D01*
X38910Y-40649D01*
X38963Y-40621D01*
X39068Y-40621D01*
X39120Y-40649D01*
X39750Y-40621D02*
X39881Y-41015D01*
X40013Y-40621D01*
X40511Y-41015D02*
X40196Y-41015D01*
X40354Y-41015D02*
X40354Y-40424D01*
X40301Y-40508D01*
X40249Y-40565D01*
X40196Y-40593D01*
X40748Y-40958D02*
X40774Y-40987D01*
X40748Y-41015D01*
X40721Y-40987D01*
X40748Y-40958D01*
X40748Y-41015D01*
X41115Y-40424D02*
X41167Y-40424D01*
X41220Y-40452D01*
X41246Y-40480D01*
X41272Y-40537D01*
X41299Y-40649D01*
X41299Y-40790D01*
X41272Y-40902D01*
X41246Y-40958D01*
X41220Y-40987D01*
X41167Y-41015D01*
X41115Y-41015D01*
X41062Y-40987D01*
X41036Y-40958D01*
X41010Y-40902D01*
X40984Y-40790D01*
X40984Y-40649D01*
X41010Y-40537D01*
X41036Y-40480D01*
X41062Y-40452D01*
X41115Y-40424D01*
X32716Y-45660D02*
X32821Y-46054D01*
X32926Y-45773D01*
X33031Y-46054D01*
X33136Y-45660D01*
X33293Y-45660D02*
X33398Y-46054D01*
X33503Y-45773D01*
X33608Y-46054D01*
X33713Y-45660D01*
X33871Y-45660D02*
X33976Y-46054D01*
X34081Y-45773D01*
X34186Y-46054D01*
X34291Y-45660D01*
X34501Y-45998D02*
X34527Y-46026D01*
X34501Y-46054D01*
X34475Y-46026D01*
X34501Y-45998D01*
X34501Y-46054D01*
X35000Y-46054D02*
X35000Y-45464D01*
X35000Y-46026D02*
X34947Y-46054D01*
X34842Y-46054D01*
X34790Y-46026D01*
X34763Y-45998D01*
X34737Y-45942D01*
X34737Y-45773D01*
X34763Y-45717D01*
X34790Y-45688D01*
X34842Y-45660D01*
X34947Y-45660D01*
X35000Y-45688D01*
X35262Y-46054D02*
X35262Y-45660D01*
X35262Y-45773D02*
X35288Y-45717D01*
X35314Y-45688D01*
X35367Y-45660D01*
X35419Y-45660D01*
X35813Y-46026D02*
X35761Y-46054D01*
X35656Y-46054D01*
X35603Y-46026D01*
X35577Y-45970D01*
X35577Y-45745D01*
X35603Y-45688D01*
X35656Y-45660D01*
X35761Y-45660D01*
X35813Y-45688D01*
X35839Y-45745D01*
X35839Y-45801D01*
X35577Y-45857D01*
X36049Y-46026D02*
X36102Y-46054D01*
X36207Y-46054D01*
X36259Y-46026D01*
X36286Y-45970D01*
X36286Y-45942D01*
X36259Y-45885D01*
X36207Y-45857D01*
X36128Y-45857D01*
X36076Y-45829D01*
X36049Y-45773D01*
X36049Y-45745D01*
X36076Y-45688D01*
X36128Y-45660D01*
X36207Y-45660D01*
X36259Y-45688D01*
X36758Y-46026D02*
X36706Y-46054D01*
X36601Y-46054D01*
X36548Y-46026D01*
X36522Y-45998D01*
X36496Y-45942D01*
X36496Y-45773D01*
X36522Y-45717D01*
X36548Y-45688D01*
X36601Y-45660D01*
X36706Y-45660D01*
X36758Y-45688D01*
X37073Y-46054D02*
X37020Y-46026D01*
X36994Y-45998D01*
X36968Y-45942D01*
X36968Y-45773D01*
X36994Y-45717D01*
X37020Y-45688D01*
X37073Y-45660D01*
X37152Y-45660D01*
X37204Y-45688D01*
X37230Y-45717D01*
X37257Y-45773D01*
X37257Y-45942D01*
X37230Y-45998D01*
X37204Y-46026D01*
X37152Y-46054D01*
X37073Y-46054D01*
X37493Y-45998D02*
X37519Y-46026D01*
X37493Y-46054D01*
X37467Y-46026D01*
X37493Y-45998D01*
X37493Y-46054D01*
X37992Y-46026D02*
X37939Y-46054D01*
X37834Y-46054D01*
X37782Y-46026D01*
X37755Y-45998D01*
X37729Y-45942D01*
X37729Y-45773D01*
X37755Y-45717D01*
X37782Y-45688D01*
X37834Y-45660D01*
X37939Y-45660D01*
X37992Y-45688D01*
X38307Y-46054D02*
X38254Y-46026D01*
X38228Y-45998D01*
X38202Y-45942D01*
X38202Y-45773D01*
X38228Y-45717D01*
X38254Y-45688D01*
X38307Y-45660D01*
X38385Y-45660D01*
X38438Y-45688D01*
X38464Y-45717D01*
X38490Y-45773D01*
X38490Y-45942D01*
X38464Y-45998D01*
X38438Y-46026D01*
X38385Y-46054D01*
X38307Y-46054D01*
X38727Y-45998D02*
X38753Y-46026D01*
X38727Y-46054D01*
X38700Y-46026D01*
X38727Y-45998D01*
X38727Y-46054D01*
X39225Y-45660D02*
X39225Y-46054D01*
X38989Y-45660D02*
X38989Y-45970D01*
X39015Y-46026D01*
X39068Y-46054D01*
X39146Y-46054D01*
X39199Y-46026D01*
X39225Y-45998D01*
X39488Y-46054D02*
X39488Y-45464D01*
X39540Y-45829D02*
X39698Y-46054D01*
X39698Y-45660D02*
X39488Y-45885D01*
X34422Y-50722D02*
X34396Y-50750D01*
X34317Y-50778D01*
X34265Y-50778D01*
X34186Y-50750D01*
X34133Y-50694D01*
X34107Y-50638D01*
X34081Y-50525D01*
X34081Y-50441D01*
X34107Y-50329D01*
X34133Y-50272D01*
X34186Y-50216D01*
X34265Y-50188D01*
X34317Y-50188D01*
X34396Y-50216D01*
X34422Y-50244D01*
X34973Y-50722D02*
X34947Y-50750D01*
X34868Y-50778D01*
X34816Y-50778D01*
X34737Y-50750D01*
X34685Y-50694D01*
X34658Y-50638D01*
X34632Y-50525D01*
X34632Y-50441D01*
X34658Y-50329D01*
X34685Y-50272D01*
X34737Y-50216D01*
X34816Y-50188D01*
X34868Y-50188D01*
X34947Y-50216D01*
X34973Y-50244D01*
X35209Y-50553D02*
X35629Y-50553D01*
X36076Y-50469D02*
X36154Y-50497D01*
X36181Y-50525D01*
X36207Y-50582D01*
X36207Y-50666D01*
X36181Y-50722D01*
X36154Y-50750D01*
X36102Y-50778D01*
X35892Y-50778D01*
X35892Y-50188D01*
X36076Y-50188D01*
X36128Y-50216D01*
X36154Y-50244D01*
X36181Y-50300D01*
X36181Y-50357D01*
X36154Y-50413D01*
X36128Y-50441D01*
X36076Y-50469D01*
X35892Y-50469D01*
X36548Y-50497D02*
X36548Y-50778D01*
X36364Y-50188D02*
X36548Y-50497D01*
X36732Y-50188D01*
X36916Y-50553D02*
X37335Y-50553D01*
X37572Y-50750D02*
X37650Y-50778D01*
X37782Y-50778D01*
X37834Y-50750D01*
X37860Y-50722D01*
X37887Y-50666D01*
X37887Y-50610D01*
X37860Y-50553D01*
X37834Y-50525D01*
X37782Y-50497D01*
X37677Y-50469D01*
X37624Y-50441D01*
X37598Y-50413D01*
X37572Y-50357D01*
X37572Y-50300D01*
X37598Y-50244D01*
X37624Y-50216D01*
X37677Y-50188D01*
X37808Y-50188D01*
X37887Y-50216D01*
X38097Y-50610D02*
X38359Y-50610D01*
X38044Y-50778D02*
X38228Y-50188D01*
X38412Y-50778D01*
X34829Y-51133D02*
X34829Y-51555D01*
X34803Y-51639D01*
X34750Y-51695D01*
X34671Y-51723D01*
X34619Y-51723D01*
X35328Y-51330D02*
X35328Y-51723D01*
X35091Y-51330D02*
X35091Y-51639D01*
X35118Y-51695D01*
X35170Y-51723D01*
X35249Y-51723D01*
X35301Y-51695D01*
X35328Y-51667D01*
X35590Y-51330D02*
X35590Y-51723D01*
X35590Y-51386D02*
X35616Y-51358D01*
X35669Y-51330D01*
X35748Y-51330D01*
X35800Y-51358D01*
X35826Y-51414D01*
X35826Y-51723D01*
X36299Y-51695D02*
X36246Y-51723D01*
X36141Y-51723D01*
X36089Y-51695D01*
X36062Y-51639D01*
X36062Y-51414D01*
X36089Y-51358D01*
X36141Y-51330D01*
X36246Y-51330D01*
X36299Y-51358D01*
X36325Y-51414D01*
X36325Y-51470D01*
X36062Y-51526D01*
X37270Y-51723D02*
X36955Y-51723D01*
X37112Y-51723D02*
X37112Y-51133D01*
X37060Y-51217D01*
X37007Y-51273D01*
X36955Y-51302D01*
X37769Y-51133D02*
X37506Y-51133D01*
X37480Y-51414D01*
X37506Y-51386D01*
X37559Y-51358D01*
X37690Y-51358D01*
X37742Y-51386D01*
X37769Y-51414D01*
X37795Y-51470D01*
X37795Y-51611D01*
X37769Y-51667D01*
X37742Y-51695D01*
X37690Y-51723D01*
X37559Y-51723D01*
X37506Y-51695D01*
X37480Y-51667D01*
G54D12*
X36931Y-43708D02*
G75*
G03X36931Y-43708I-591J0D01*
G74*
G01*
X36931Y-53551D02*
G75*
G03X36931Y-53551I-591J0D01*
G74*
G01*
X40277Y-43315D02*
X41064Y-43315D01*
X41064Y-43315D02*
X41064Y-44102D01*
X41064Y-44102D02*
X40277Y-44102D01*
X32285Y-48235D02*
X31498Y-48235D01*
X31498Y-48235D02*
X31498Y-49023D01*
X31498Y-49023D02*
X32285Y-49023D01*
X40277Y-53157D02*
X41064Y-53157D01*
X41064Y-53157D02*
X41064Y-53944D01*
X41064Y-53944D02*
X40277Y-53944D01*
X40277Y-52369D02*
X40277Y-54732D01*
X40277Y-54732D02*
X32403Y-54732D01*
X32403Y-54732D02*
X32403Y-52369D01*
X32403Y-52369D02*
X40277Y-52369D01*
X32403Y-47448D02*
X40277Y-47448D01*
X40277Y-47448D02*
X40277Y-49810D01*
X40277Y-49810D02*
X32403Y-49810D01*
X32403Y-49810D02*
X32403Y-47448D01*
X32403Y-42527D02*
X40277Y-42527D01*
X40277Y-42527D02*
X40277Y-44890D01*
X40277Y-44890D02*
X32403Y-44890D01*
X32403Y-44890D02*
X32403Y-42527D01*
X25944Y-51085D02*
X46692Y-51085D01*
X25944Y-46163D02*
X46692Y-46163D01*
X25944Y-56010D02*
X25944Y-41242D01*
X46692Y-41242D02*
X46692Y-56010D01*
X25944Y-56010D02*
X46692Y-56010D01*
X25944Y-41242D02*
X46692Y-41242D01*
G54D10*
X40708Y-59606D02*
X41102Y-59212D01*
X38425Y-56929D02*
X41102Y-56929D01*
X41102Y-56929D02*
X41102Y-59212D01*
X40708Y-59606D02*
X38818Y-59606D01*
X38818Y-59606D02*
X38425Y-59212D01*
X38425Y-59212D02*
X38425Y-56929D01*
G54D13*
X32278Y-59192D02*
G75*
G03X32278Y-59192I-50J0D01*
G74*
G01*
X32228Y-58742D02*
X32228Y-59142D01*
X32228Y-59142D02*
X31550Y-59142D01*
X31550Y-59143D02*
X31550Y-58743D01*
X31550Y-58186D02*
X31550Y-57786D01*
X31550Y-57786D02*
X32228Y-57786D01*
X32228Y-57785D02*
X32228Y-58185D01*
X28341Y-59192D02*
G75*
G03X28341Y-59192I-50J0D01*
G74*
G01*
X28291Y-58742D02*
X28291Y-59142D01*
X28291Y-59142D02*
X27613Y-59142D01*
X27613Y-59143D02*
X27613Y-58743D01*
X27613Y-58186D02*
X27613Y-57786D01*
X27613Y-57786D02*
X28291Y-57786D01*
X28291Y-57785D02*
X28291Y-58185D01*
X19680Y-41672D02*
G75*
G03X19680Y-41672I-50J0D01*
G74*
G01*
X19630Y-41222D02*
X19630Y-41622D01*
X19630Y-41622D02*
X18952Y-41622D01*
X18952Y-41623D02*
X18952Y-41223D01*
X18952Y-40666D02*
X18952Y-40266D01*
X18952Y-40266D02*
X19630Y-40266D01*
X19630Y-40265D02*
X19630Y-40665D01*
X16137Y-41672D02*
G75*
G03X16137Y-41672I-50J0D01*
G74*
G01*
X16087Y-41222D02*
X16087Y-41622D01*
X16087Y-41622D02*
X15409Y-41622D01*
X15409Y-41623D02*
X15409Y-41223D01*
X15409Y-40666D02*
X15409Y-40266D01*
X15409Y-40266D02*
X16087Y-40266D01*
X16087Y-40265D02*
X16087Y-40665D01*
X15738Y-46511D02*
G75*
G03X15738Y-46511I-50J0D01*
G74*
G01*
X15238Y-46511D02*
X15638Y-46511D01*
X15638Y-46511D02*
X15638Y-47189D01*
X15639Y-47189D02*
X15239Y-47189D01*
X14682Y-47189D02*
X14282Y-47189D01*
X14282Y-47189D02*
X14282Y-46511D01*
X14281Y-46511D02*
X14681Y-46511D01*
X15738Y-45330D02*
G75*
G03X15738Y-45330I-50J0D01*
G74*
G01*
X15238Y-45330D02*
X15638Y-45330D01*
X15638Y-45330D02*
X15638Y-46008D01*
X15639Y-46008D02*
X15239Y-46008D01*
X14682Y-46008D02*
X14282Y-46008D01*
X14282Y-46008D02*
X14282Y-45330D01*
X14281Y-45330D02*
X14681Y-45330D01*
X22042Y-41672D02*
G75*
G03X22042Y-41672I-50J0D01*
G74*
G01*
X21992Y-41222D02*
X21992Y-41622D01*
X21992Y-41622D02*
X21314Y-41622D01*
X21314Y-41623D02*
X21314Y-41223D01*
X21314Y-40666D02*
X21314Y-40266D01*
X21314Y-40266D02*
X21992Y-40266D01*
X21992Y-40265D02*
X21992Y-40665D01*
X16246Y-50059D02*
G75*
G03X16246Y-50059I-50J0D01*
G74*
G01*
X16196Y-50509D02*
X16196Y-50109D01*
X16196Y-50109D02*
X16874Y-50109D01*
X16874Y-50108D02*
X16874Y-50508D01*
X16874Y-51065D02*
X16874Y-51465D01*
X16874Y-51465D02*
X16196Y-51465D01*
X16196Y-51466D02*
X16196Y-51066D01*
X22829Y-51515D02*
G75*
G03X22829Y-51515I-50J0D01*
G74*
G01*
X22779Y-51065D02*
X22779Y-51465D01*
X22779Y-51465D02*
X22101Y-51465D01*
X22101Y-51466D02*
X22101Y-51066D01*
X22101Y-50509D02*
X22101Y-50109D01*
X22101Y-50109D02*
X22779Y-50109D01*
X22779Y-50108D02*
X22779Y-50508D01*
X14955Y-41672D02*
G75*
G03X14955Y-41672I-50J0D01*
G74*
G01*
X14905Y-41222D02*
X14905Y-41622D01*
X14905Y-41622D02*
X14227Y-41622D01*
X14227Y-41623D02*
X14227Y-41223D01*
X14227Y-40666D02*
X14227Y-40266D01*
X14227Y-40266D02*
X14905Y-40266D01*
X14905Y-40265D02*
X14905Y-40665D01*
X18105Y-51515D02*
G75*
G03X18105Y-51515I-50J0D01*
G74*
G01*
X18055Y-51065D02*
X18055Y-51465D01*
X18055Y-51465D02*
X17377Y-51465D01*
X17377Y-51466D02*
X17377Y-51066D01*
X17377Y-50509D02*
X17377Y-50109D01*
X17377Y-50109D02*
X18055Y-50109D01*
X18055Y-50108D02*
X18055Y-50508D01*
X24404Y-47972D02*
G75*
G03X24404Y-47972I-50J0D01*
G74*
G01*
X24354Y-47522D02*
X24354Y-47922D01*
X24354Y-47922D02*
X23676Y-47922D01*
X23676Y-47923D02*
X23676Y-47523D01*
X23676Y-46966D02*
X23676Y-46566D01*
X23676Y-46566D02*
X24354Y-46566D01*
X24354Y-46565D02*
X24354Y-46965D01*
G54D12*
X12253Y-46535D02*
G75*
G03X12253Y-46535I-40J0D01*
G74*
G01*
G54D14*
X11594Y-47165D02*
X12165Y-47165D01*
X11594Y-46535D02*
X12165Y-46535D01*
X10669Y-46535D02*
X10669Y-47165D01*
X10669Y-47165D02*
X11220Y-47165D01*
X10669Y-46535D02*
X11220Y-46535D01*
X12165Y-47165D02*
X12165Y-46535D01*
G54D15*
X12704Y-48681D02*
X12704Y-51681D01*
X10704Y-51681D02*
X10704Y-48681D01*
X10704Y-48681D02*
X12704Y-48681D01*
X12704Y-51681D02*
X10704Y-51681D01*
G54D16*
X13279Y-39673D02*
X13279Y-38673D01*
X13279Y-38673D02*
X15279Y-38673D01*
X15279Y-38673D02*
X15279Y-39673D01*
X15279Y-39673D02*
X13279Y-39673D01*
G54D13*
X24907Y-46516D02*
G75*
G03X24907Y-46516I-50J0D01*
G74*
G01*
X24857Y-46966D02*
X24857Y-46566D01*
X24857Y-46566D02*
X25535Y-46566D01*
X25535Y-46565D02*
X25535Y-46965D01*
X25535Y-47522D02*
X25535Y-47922D01*
X25535Y-47922D02*
X24857Y-47922D01*
X24857Y-47923D02*
X24857Y-47523D01*
G54D10*
X16732Y-60137D02*
X21456Y-60137D01*
X21456Y-60137D02*
X21456Y-53346D01*
X21456Y-53346D02*
X16732Y-53346D01*
X16732Y-53346D02*
X16732Y-60137D01*
G54D16*
X44381Y-57586D02*
X44381Y-56586D01*
X44381Y-56586D02*
X45381Y-56586D01*
X45381Y-56586D02*
X45381Y-57586D01*
X45381Y-57586D02*
X44381Y-57586D01*
X41625Y-57586D02*
X41625Y-56586D01*
X41625Y-56586D02*
X42625Y-56586D01*
X42625Y-56586D02*
X42625Y-57586D01*
X42625Y-57586D02*
X41625Y-57586D01*
X15500Y-57500D02*
X14500Y-57500D01*
X14500Y-57500D02*
X14500Y-56500D01*
X14500Y-56500D02*
X15500Y-56500D01*
X15500Y-56500D02*
X15500Y-57500D01*
X15500Y-55500D02*
X14500Y-55500D01*
X14500Y-55500D02*
X14500Y-54500D01*
X14500Y-54500D02*
X15500Y-54500D01*
X15500Y-54500D02*
X15500Y-55500D01*
X15500Y-56500D02*
X14500Y-56500D01*
X14500Y-56500D02*
X14500Y-55500D01*
X14500Y-55500D02*
X15500Y-55500D01*
X15500Y-55500D02*
X15500Y-56500D01*
X13000Y-38500D02*
X13000Y-37500D01*
X13000Y-37500D02*
X14000Y-37500D01*
X14000Y-37500D02*
X14000Y-38500D01*
X14000Y-38500D02*
X13000Y-38500D01*
X14000Y-38500D02*
X14000Y-37500D01*
X14000Y-37500D02*
X15000Y-37500D01*
X15000Y-37500D02*
X15000Y-38500D01*
X15000Y-38500D02*
X14000Y-38500D01*
X15000Y-38500D02*
X15000Y-37500D01*
X15000Y-37500D02*
X16000Y-37500D01*
X16000Y-37500D02*
X16000Y-38500D01*
X16000Y-38500D02*
X15000Y-38500D01*
X23413Y-55838D02*
X23413Y-56838D01*
X23413Y-56838D02*
X22413Y-56838D01*
X22413Y-56838D02*
X22413Y-55838D01*
X22413Y-55838D02*
X23413Y-55838D01*
X22413Y-59437D02*
X22413Y-58437D01*
X22413Y-58437D02*
X23413Y-58437D01*
X23413Y-58437D02*
X23413Y-59437D01*
X23413Y-59437D02*
X22413Y-59437D01*
X19594Y-42507D02*
X18594Y-42507D01*
X18594Y-42507D02*
X18594Y-41507D01*
X18594Y-41507D02*
X19594Y-41507D01*
X19594Y-41507D02*
X19594Y-42507D01*
X11917Y-44909D02*
X10917Y-44909D01*
X10917Y-44909D02*
X10917Y-43909D01*
X10917Y-43909D02*
X11917Y-43909D01*
X11917Y-43909D02*
X11917Y-44909D01*
X23500Y-43500D02*
X23500Y-42500D01*
X23500Y-42500D02*
X24500Y-42500D01*
X24500Y-42500D02*
X24500Y-43500D01*
X24500Y-43500D02*
X23500Y-43500D01*
X23500Y-39500D02*
X23500Y-38500D01*
X23500Y-38500D02*
X24500Y-38500D01*
X24500Y-38500D02*
X24500Y-39500D01*
X24500Y-39500D02*
X23500Y-39500D01*
X33295Y-39870D02*
X32295Y-39870D01*
X32295Y-39870D02*
X32295Y-38870D01*
X32295Y-38870D02*
X33295Y-38870D01*
X33295Y-38870D02*
X33295Y-39870D01*
G54D15*
X31165Y-39870D02*
X25165Y-39870D01*
X25165Y-37870D02*
X31165Y-37870D01*
X31165Y-37870D02*
X31165Y-39870D01*
X25165Y-39870D02*
X25165Y-37870D01*
G54D17*
X23188Y-41220D02*
X23425Y-41220D01*
X23425Y-41220D02*
X23425Y-40944D01*
X22243Y-40944D02*
X22243Y-41220D01*
X22243Y-41220D02*
X22480Y-41220D01*
G54D13*
X16640Y-40216D02*
G75*
G03X16640Y-40216I-50J0D01*
G74*
G01*
X16590Y-40666D02*
X16590Y-40266D01*
X16590Y-40266D02*
X17268Y-40266D01*
X17268Y-40265D02*
X17268Y-40665D01*
X17268Y-41222D02*
X17268Y-41622D01*
X17268Y-41622D02*
X16590Y-41622D01*
X16590Y-41623D02*
X16590Y-41223D01*
X18499Y-41672D02*
G75*
G03X18499Y-41672I-50J0D01*
G74*
G01*
X18449Y-41222D02*
X18449Y-41622D01*
X18449Y-41622D02*
X17771Y-41622D01*
X17771Y-41623D02*
X17771Y-41223D01*
X17771Y-40666D02*
X17771Y-40266D01*
X17771Y-40266D02*
X18449Y-40266D01*
X18449Y-40265D02*
X18449Y-40665D01*
X15065Y-50059D02*
G75*
G03X15065Y-50059I-50J0D01*
G74*
G01*
X15015Y-50509D02*
X15015Y-50109D01*
X15015Y-50109D02*
X15693Y-50109D01*
X15693Y-50108D02*
X15693Y-50508D01*
X15693Y-51065D02*
X15693Y-51465D01*
X15693Y-51465D02*
X15015Y-51465D01*
X15015Y-51466D02*
X15015Y-51066D01*
X14282Y-44827D02*
G75*
G03X14282Y-44827I-50J0D01*
G74*
G01*
X14682Y-44827D02*
X14282Y-44827D01*
X14282Y-44827D02*
X14282Y-44149D01*
X14281Y-44149D02*
X14681Y-44149D01*
X15238Y-44149D02*
X15638Y-44149D01*
X15638Y-44149D02*
X15638Y-44827D01*
X15639Y-44827D02*
X15239Y-44827D01*
X14282Y-43646D02*
G75*
G03X14282Y-43646I-50J0D01*
G74*
G01*
X14682Y-43646D02*
X14282Y-43646D01*
X14282Y-43646D02*
X14282Y-42968D01*
X14281Y-42968D02*
X14681Y-42968D01*
X15238Y-42968D02*
X15638Y-42968D01*
X15638Y-42968D02*
X15638Y-43646D01*
X15639Y-43646D02*
X15239Y-43646D01*
X12195Y-45330D02*
G75*
G03X12195Y-45330I-50J0D01*
G74*
G01*
X11695Y-45330D02*
X12095Y-45330D01*
X12095Y-45330D02*
X12095Y-46008D01*
X12096Y-46008D02*
X11696Y-46008D01*
X11139Y-46008D02*
X10739Y-46008D01*
X10739Y-46008D02*
X10739Y-45330D01*
X10738Y-45330D02*
X11138Y-45330D01*
X24404Y-41672D02*
G75*
G03X24404Y-41672I-50J0D01*
G74*
G01*
X24354Y-41222D02*
X24354Y-41622D01*
X24354Y-41622D02*
X23676Y-41622D01*
X23676Y-41623D02*
X23676Y-41223D01*
X23676Y-40666D02*
X23676Y-40266D01*
X23676Y-40266D02*
X24354Y-40266D01*
X24354Y-40265D02*
X24354Y-40665D01*
X24907Y-40216D02*
G75*
G03X24907Y-40216I-50J0D01*
G74*
G01*
X24857Y-40666D02*
X24857Y-40266D01*
X24857Y-40266D02*
X25535Y-40266D01*
X25535Y-40265D02*
X25535Y-40665D01*
X25535Y-41222D02*
X25535Y-41622D01*
X25535Y-41622D02*
X24857Y-41622D01*
X24857Y-41623D02*
X24857Y-41223D01*
X24793Y-51235D02*
G75*
G03X24793Y-51235I-50J0D01*
G74*
G01*
X24293Y-51235D02*
X24693Y-51235D01*
X24693Y-51235D02*
X24693Y-51913D01*
X24694Y-51913D02*
X24294Y-51913D01*
X23737Y-51913D02*
X23337Y-51913D01*
X23337Y-51913D02*
X23337Y-51235D01*
X23336Y-51235D02*
X23736Y-51235D01*
X24793Y-52416D02*
G75*
G03X24793Y-52416I-50J0D01*
G74*
G01*
X24293Y-52416D02*
X24693Y-52416D01*
X24693Y-52416D02*
X24693Y-53094D01*
X24694Y-53094D02*
X24294Y-53094D01*
X23737Y-53094D02*
X23337Y-53094D01*
X23337Y-53094D02*
X23337Y-52416D01*
X23336Y-52416D02*
X23736Y-52416D01*
X24793Y-54779D02*
G75*
G03X24793Y-54779I-50J0D01*
G74*
G01*
X24293Y-54779D02*
X24693Y-54779D01*
X24693Y-54779D02*
X24693Y-55457D01*
X24694Y-55457D02*
X24294Y-55457D01*
X23737Y-55457D02*
X23337Y-55457D01*
X23337Y-55457D02*
X23337Y-54779D01*
X23336Y-54779D02*
X23736Y-54779D01*
X24793Y-53598D02*
G75*
G03X24793Y-53598I-50J0D01*
G74*
G01*
X24293Y-53598D02*
X24693Y-53598D01*
X24693Y-53598D02*
X24693Y-54276D01*
X24694Y-54276D02*
X24294Y-54276D01*
X23737Y-54276D02*
X23337Y-54276D01*
X23337Y-54276D02*
X23337Y-53598D01*
X23336Y-53598D02*
X23736Y-53598D01*
X13884Y-50059D02*
G75*
G03X13884Y-50059I-50J0D01*
G74*
G01*
X13834Y-50509D02*
X13834Y-50109D01*
X13834Y-50109D02*
X14512Y-50109D01*
X14512Y-50108D02*
X14512Y-50508D01*
X14512Y-51065D02*
X14512Y-51465D01*
X14512Y-51465D02*
X13834Y-51465D01*
X13834Y-51466D02*
X13834Y-51066D01*
X37047Y-57676D02*
X37047Y-57401D01*
X37047Y-57401D02*
X33819Y-57401D01*
X33819Y-57401D02*
X33819Y-57676D01*
X33819Y-58858D02*
X33819Y-59133D01*
X33819Y-59133D02*
X37047Y-59133D01*
X37047Y-59133D02*
X37047Y-58858D01*
X21693Y-37991D02*
X21693Y-37716D01*
X21693Y-37716D02*
X16889Y-37716D01*
X16889Y-37716D02*
X16889Y-37991D01*
X16889Y-39173D02*
X16889Y-39448D01*
X16889Y-39448D02*
X21693Y-39448D01*
X21693Y-39448D02*
X21693Y-39173D01*
X10236Y-56692D02*
X10236Y-54330D01*
X10236Y-54330D02*
X12598Y-54330D01*
X12598Y-54330D02*
X12598Y-56692D01*
X12598Y-56692D02*
X10236Y-56692D01*
G54D10*
X35039Y-37401D02*
X33858Y-37401D01*
X33858Y-37401D02*
X33858Y-39763D01*
X33858Y-39763D02*
X35039Y-39763D01*
X40944Y-37401D02*
X40944Y-39763D01*
X35039Y-37401D02*
X40944Y-37401D01*
X35039Y-37401D02*
X35039Y-39763D01*
X35039Y-39763D02*
X40944Y-39763D01*
G54D17*
X30827Y-58976D02*
X30827Y-57952D01*
X29370Y-58976D02*
X29015Y-58976D01*
X29015Y-58976D02*
X29015Y-57952D01*
X30827Y-58976D02*
X30472Y-58976D01*
X18080Y-43897D02*
G75*
G03X18080Y-43897I-166J0D01*
G74*
G01*
X21063Y-43503D02*
X21063Y-47047D01*
X21063Y-47047D02*
X17519Y-47047D01*
X17519Y-47047D02*
X17519Y-43700D01*
X17519Y-43700D02*
X17716Y-43503D01*
X17716Y-43503D02*
X21063Y-43503D01*
G54D13*
X18858Y-51456D02*
X19606Y-51456D01*
X18858Y-51338D02*
X18858Y-51456D01*
X18858Y-50118D02*
X19606Y-50118D01*
X18858Y-50118D02*
X18858Y-50236D01*
X21298Y-51338D02*
X21298Y-51456D01*
X21298Y-51456D02*
X20550Y-51456D01*
X21298Y-50118D02*
X21298Y-50236D01*
X21298Y-50118D02*
X20550Y-50118D01*
G54D10*
X26141Y-59606D02*
X26535Y-59212D01*
X23858Y-56929D02*
X26535Y-56929D01*
X26535Y-56929D02*
X26535Y-59212D01*
X26141Y-59606D02*
X24251Y-59606D01*
X24251Y-59606D02*
X23858Y-59212D01*
X23858Y-59212D02*
X23858Y-56929D01*
G54D18*
G36*
X41979Y-41141D02*
X42002Y-41129D01*
X42053Y-41097D01*
X42126Y-41049D01*
X42213Y-40991D01*
X42300Y-40932D01*
X42371Y-40884D01*
X42421Y-40852D01*
X42442Y-40841D01*
X42453Y-40845D01*
X42494Y-40865D01*
X42554Y-40896D01*
X42589Y-40914D01*
X42644Y-40937D01*
X42671Y-40942D01*
X42676Y-40935D01*
X42696Y-40893D01*
X42727Y-40821D01*
X42769Y-40726D01*
X42816Y-40615D01*
X42867Y-40495D01*
X42918Y-40373D01*
X42966Y-40256D01*
X43009Y-40151D01*
X43043Y-40066D01*
X43066Y-40007D01*
X43074Y-39981D01*
X43072Y-39976D01*
X43044Y-39949D01*
X42996Y-39913D01*
X42893Y-39829D01*
X42790Y-39701D01*
X42728Y-39556D01*
X42707Y-39395D01*
X42725Y-39245D01*
X42784Y-39101D01*
X42884Y-38972D01*
X43005Y-38876D01*
X43147Y-38815D01*
X43307Y-38796D01*
X43460Y-38813D01*
X43606Y-38871D01*
X43736Y-38969D01*
X43790Y-39032D01*
X43865Y-39163D01*
X43908Y-39303D01*
X43913Y-39339D01*
X43906Y-39493D01*
X43861Y-39640D01*
X43780Y-39772D01*
X43667Y-39880D01*
X43653Y-39891D01*
X43600Y-39930D01*
X43565Y-39957D01*
X43538Y-39979D01*
X43734Y-40451D01*
X43765Y-40526D01*
X43819Y-40655D01*
X43866Y-40766D01*
X43904Y-40854D01*
X43930Y-40913D01*
X43942Y-40937D01*
X43943Y-40938D01*
X43960Y-40941D01*
X43996Y-40928D01*
X44062Y-40896D01*
X44106Y-40874D01*
X44156Y-40850D01*
X44178Y-40841D01*
X44197Y-40851D01*
X44245Y-40882D01*
X44315Y-40929D01*
X44400Y-40987D01*
X44480Y-41041D01*
X44554Y-41090D01*
X44608Y-41124D01*
X44634Y-41138D01*
X44638Y-41138D01*
X44661Y-41125D01*
X44703Y-41090D01*
X44768Y-41029D01*
X44859Y-40939D01*
X44873Y-40926D01*
X44947Y-40850D01*
X45008Y-40786D01*
X45049Y-40741D01*
X45063Y-40720D01*
X45063Y-40720D01*
X45050Y-40694D01*
X45016Y-40641D01*
X44967Y-40566D01*
X44907Y-40478D01*
X44751Y-40251D01*
X44837Y-40037D01*
X44863Y-39972D01*
X44897Y-39892D01*
X44922Y-39835D01*
X44934Y-39810D01*
X44958Y-39802D01*
X45016Y-39788D01*
X45101Y-39770D01*
X45203Y-39751D01*
X45299Y-39734D01*
X45386Y-39717D01*
X45450Y-39705D01*
X45478Y-39699D01*
X45485Y-39695D01*
X45490Y-39682D01*
X45494Y-39652D01*
X45496Y-39599D01*
X45497Y-39515D01*
X45497Y-39395D01*
X45497Y-39382D01*
X45496Y-39266D01*
X45494Y-39175D01*
X45491Y-39114D01*
X45487Y-39091D01*
X45487Y-39090D01*
X45460Y-39084D01*
X45398Y-39071D01*
X45311Y-39054D01*
X45207Y-39034D01*
X45200Y-39033D01*
X45097Y-39013D01*
X45010Y-38995D01*
X44949Y-38981D01*
X44923Y-38973D01*
X44918Y-38965D01*
X44897Y-38925D01*
X44867Y-38861D01*
X44833Y-38782D01*
X44799Y-38701D01*
X44770Y-38628D01*
X44750Y-38573D01*
X44744Y-38548D01*
X44745Y-38548D01*
X44760Y-38523D01*
X44796Y-38469D01*
X44846Y-38394D01*
X44907Y-38306D01*
X44911Y-38300D01*
X44971Y-38212D01*
X45019Y-38138D01*
X45051Y-38085D01*
X45063Y-38061D01*
X45063Y-38060D01*
X45043Y-38034D01*
X44999Y-37984D01*
X44935Y-37917D01*
X44858Y-37840D01*
X44834Y-37816D01*
X44749Y-37733D01*
X44689Y-37678D01*
X44653Y-37649D01*
X44635Y-37643D01*
X44634Y-37643D01*
X44608Y-37659D01*
X44553Y-37695D01*
X44478Y-37746D01*
X44389Y-37807D01*
X44383Y-37811D01*
X44295Y-37870D01*
X44222Y-37920D01*
X44170Y-37954D01*
X44148Y-37968D01*
X44144Y-37968D01*
X44108Y-37957D01*
X44046Y-37935D01*
X43969Y-37906D01*
X43888Y-37873D01*
X43815Y-37842D01*
X43759Y-37817D01*
X43733Y-37802D01*
X43733Y-37801D01*
X43723Y-37770D01*
X43708Y-37704D01*
X43690Y-37614D01*
X43669Y-37507D01*
X43666Y-37489D01*
X43646Y-37385D01*
X43629Y-37299D01*
X43617Y-37239D01*
X43611Y-37215D01*
X43596Y-37211D01*
X43545Y-37207D01*
X43467Y-37205D01*
X43373Y-37204D01*
X43274Y-37205D01*
X43177Y-37207D01*
X43094Y-37210D01*
X43035Y-37214D01*
X43011Y-37219D01*
X43010Y-37220D01*
X43001Y-37253D01*
X42986Y-37318D01*
X42968Y-37409D01*
X42947Y-37517D01*
X42943Y-37536D01*
X42924Y-37640D01*
X42906Y-37725D01*
X42894Y-37784D01*
X42887Y-37807D01*
X42878Y-37812D01*
X42835Y-37831D01*
X42765Y-37860D01*
X42679Y-37895D01*
X42478Y-37976D01*
X42232Y-37807D01*
X42209Y-37792D01*
X42121Y-37732D01*
X42048Y-37683D01*
X41998Y-37651D01*
X41977Y-37639D01*
X41975Y-37640D01*
X41951Y-37661D01*
X41902Y-37707D01*
X41835Y-37772D01*
X41758Y-37849D01*
X41701Y-37906D01*
X41633Y-37975D01*
X41590Y-38021D01*
X41567Y-38051D01*
X41558Y-38069D01*
X41560Y-38081D01*
X41576Y-38106D01*
X41612Y-38160D01*
X41663Y-38235D01*
X41723Y-38322D01*
X41772Y-38394D01*
X41825Y-38477D01*
X41860Y-38536D01*
X41872Y-38565D01*
X41869Y-38577D01*
X41852Y-38625D01*
X41823Y-38698D01*
X41786Y-38784D01*
X41700Y-38979D01*
X41573Y-39004D01*
X41495Y-39018D01*
X41387Y-39039D01*
X41284Y-39059D01*
X41122Y-39090D01*
X41116Y-39684D01*
X41141Y-39695D01*
X41165Y-39701D01*
X41225Y-39715D01*
X41311Y-39732D01*
X41411Y-39751D01*
X41497Y-39767D01*
X41584Y-39783D01*
X41646Y-39795D01*
X41674Y-39801D01*
X41681Y-39810D01*
X41702Y-39852D01*
X41733Y-39919D01*
X41767Y-39999D01*
X41802Y-40082D01*
X41832Y-40159D01*
X41854Y-40217D01*
X41862Y-40248D01*
X41850Y-40270D01*
X41817Y-40321D01*
X41769Y-40394D01*
X41711Y-40480D01*
X41652Y-40566D01*
X41602Y-40639D01*
X41568Y-40692D01*
X41553Y-40716D01*
X41560Y-40733D01*
X41595Y-40774D01*
X41660Y-40842D01*
X41756Y-40937D01*
X41772Y-40952D01*
X41849Y-41026D01*
X41914Y-41086D01*
X41959Y-41126D01*
X41979Y-41141D01*
X41979Y-41141D01*
G37*
G54D16*
X36102Y-55372D02*
X36145Y-55386D01*
X36160Y-55400D01*
X36174Y-55429D01*
X36174Y-55472D01*
X36160Y-55500D01*
X36145Y-55515D01*
X36117Y-55529D01*
X36002Y-55529D01*
X36002Y-55229D01*
X36102Y-55229D01*
X36131Y-55243D01*
X36145Y-55257D01*
X36160Y-55286D01*
X36160Y-55315D01*
X36145Y-55343D01*
X36131Y-55357D01*
X36102Y-55372D01*
X36002Y-55372D01*
X36260Y-55229D02*
X36431Y-55229D01*
X36345Y-55529D02*
X36345Y-55229D01*
X36688Y-55529D02*
X36517Y-55529D01*
X36602Y-55529D02*
X36602Y-55229D01*
X36574Y-55272D01*
X36545Y-55300D01*
X36517Y-55315D01*
G54D10*
X37729Y-56833D02*
X37710Y-56852D01*
X37654Y-56871D01*
X37617Y-56871D01*
X37560Y-56852D01*
X37523Y-56814D01*
X37504Y-56777D01*
X37485Y-56702D01*
X37485Y-56646D01*
X37504Y-56571D01*
X37523Y-56533D01*
X37560Y-56496D01*
X37617Y-56477D01*
X37654Y-56477D01*
X37710Y-56496D01*
X37729Y-56514D01*
X38104Y-56871D02*
X37879Y-56871D01*
X37992Y-56871D02*
X37992Y-56477D01*
X37954Y-56533D01*
X37917Y-56571D01*
X37879Y-56589D01*
G54D13*
X31467Y-58506D02*
X31478Y-58518D01*
X31490Y-58553D01*
X31490Y-58577D01*
X31478Y-58613D01*
X31455Y-58637D01*
X31431Y-58649D01*
X31383Y-58660D01*
X31348Y-58660D01*
X31300Y-58649D01*
X31276Y-58637D01*
X31252Y-58613D01*
X31240Y-58577D01*
X31240Y-58553D01*
X31252Y-58518D01*
X31264Y-58506D01*
X31264Y-58410D02*
X31252Y-58399D01*
X31240Y-58375D01*
X31240Y-58315D01*
X31252Y-58291D01*
X31264Y-58280D01*
X31288Y-58268D01*
X31312Y-58268D01*
X31348Y-58280D01*
X31490Y-58422D01*
X31490Y-58268D01*
X27530Y-58506D02*
X27541Y-58518D01*
X27553Y-58553D01*
X27553Y-58577D01*
X27541Y-58613D01*
X27518Y-58637D01*
X27494Y-58649D01*
X27446Y-58660D01*
X27410Y-58660D01*
X27363Y-58649D01*
X27339Y-58637D01*
X27315Y-58613D01*
X27303Y-58577D01*
X27303Y-58553D01*
X27315Y-58518D01*
X27327Y-58506D01*
X27303Y-58422D02*
X27303Y-58268D01*
X27399Y-58351D01*
X27399Y-58315D01*
X27410Y-58291D01*
X27422Y-58280D01*
X27446Y-58268D01*
X27506Y-58268D01*
X27530Y-58280D01*
X27541Y-58291D01*
X27553Y-58315D01*
X27553Y-58387D01*
X27541Y-58410D01*
X27530Y-58422D01*
X19892Y-40986D02*
X19904Y-40998D01*
X19916Y-41034D01*
X19916Y-41057D01*
X19904Y-41093D01*
X19880Y-41117D01*
X19856Y-41129D01*
X19809Y-41141D01*
X19773Y-41141D01*
X19725Y-41129D01*
X19701Y-41117D01*
X19678Y-41093D01*
X19666Y-41057D01*
X19666Y-41034D01*
X19678Y-40998D01*
X19690Y-40986D01*
X19749Y-40772D02*
X19916Y-40772D01*
X19654Y-40831D02*
X19832Y-40891D01*
X19832Y-40736D01*
X16349Y-40986D02*
X16361Y-40998D01*
X16372Y-41034D01*
X16372Y-41057D01*
X16361Y-41093D01*
X16337Y-41117D01*
X16313Y-41129D01*
X16265Y-41141D01*
X16230Y-41141D01*
X16182Y-41129D01*
X16158Y-41117D01*
X16134Y-41093D01*
X16122Y-41057D01*
X16122Y-41034D01*
X16134Y-40998D01*
X16146Y-40986D01*
X16122Y-40760D02*
X16122Y-40879D01*
X16241Y-40891D01*
X16230Y-40879D01*
X16218Y-40855D01*
X16218Y-40796D01*
X16230Y-40772D01*
X16241Y-40760D01*
X16265Y-40748D01*
X16325Y-40748D01*
X16349Y-40760D01*
X16361Y-40772D01*
X16372Y-40796D01*
X16372Y-40855D01*
X16361Y-40879D01*
X16349Y-40891D01*
X14918Y-47451D02*
X14907Y-47463D01*
X14871Y-47475D01*
X14847Y-47475D01*
X14811Y-47463D01*
X14788Y-47439D01*
X14776Y-47415D01*
X14764Y-47368D01*
X14764Y-47332D01*
X14776Y-47285D01*
X14788Y-47261D01*
X14811Y-47237D01*
X14847Y-47225D01*
X14871Y-47225D01*
X14907Y-47237D01*
X14918Y-47249D01*
X15133Y-47225D02*
X15085Y-47225D01*
X15061Y-47237D01*
X15049Y-47249D01*
X15026Y-47285D01*
X15014Y-47332D01*
X15014Y-47427D01*
X15026Y-47451D01*
X15038Y-47463D01*
X15061Y-47475D01*
X15109Y-47475D01*
X15133Y-47463D01*
X15145Y-47451D01*
X15157Y-47427D01*
X15157Y-47368D01*
X15145Y-47344D01*
X15133Y-47332D01*
X15109Y-47320D01*
X15061Y-47320D01*
X15038Y-47332D01*
X15026Y-47344D01*
X15014Y-47368D01*
X14918Y-46270D02*
X14907Y-46282D01*
X14871Y-46294D01*
X14847Y-46294D01*
X14811Y-46282D01*
X14788Y-46258D01*
X14776Y-46234D01*
X14764Y-46187D01*
X14764Y-46151D01*
X14776Y-46103D01*
X14788Y-46080D01*
X14811Y-46056D01*
X14847Y-46044D01*
X14871Y-46044D01*
X14907Y-46056D01*
X14918Y-46068D01*
X15002Y-46044D02*
X15168Y-46044D01*
X15061Y-46294D01*
X21250Y-40986D02*
X21262Y-40998D01*
X21274Y-41034D01*
X21274Y-41057D01*
X21262Y-41093D01*
X21238Y-41117D01*
X21214Y-41129D01*
X21167Y-41141D01*
X21131Y-41141D01*
X21084Y-41129D01*
X21060Y-41117D01*
X21036Y-41093D01*
X21024Y-41057D01*
X21024Y-41034D01*
X21036Y-40998D01*
X21048Y-40986D01*
X21131Y-40843D02*
X21119Y-40867D01*
X21107Y-40879D01*
X21084Y-40891D01*
X21072Y-40891D01*
X21048Y-40879D01*
X21036Y-40867D01*
X21024Y-40843D01*
X21024Y-40796D01*
X21036Y-40772D01*
X21048Y-40760D01*
X21072Y-40748D01*
X21084Y-40748D01*
X21107Y-40760D01*
X21119Y-40772D01*
X21131Y-40796D01*
X21131Y-40843D01*
X21143Y-40867D01*
X21155Y-40879D01*
X21179Y-40891D01*
X21226Y-40891D01*
X21250Y-40879D01*
X21262Y-40867D01*
X21274Y-40843D01*
X21274Y-40796D01*
X21262Y-40772D01*
X21250Y-40760D01*
X21226Y-40748D01*
X21179Y-40748D01*
X21155Y-40760D01*
X21143Y-40772D01*
X21131Y-40796D01*
X17136Y-50829D02*
X17148Y-50840D01*
X17160Y-50876D01*
X17160Y-50900D01*
X17148Y-50936D01*
X17124Y-50960D01*
X17101Y-50971D01*
X17053Y-50983D01*
X17017Y-50983D01*
X16970Y-50971D01*
X16946Y-50960D01*
X16922Y-50936D01*
X16910Y-50900D01*
X16910Y-50876D01*
X16922Y-50840D01*
X16934Y-50829D01*
X17160Y-50710D02*
X17160Y-50662D01*
X17148Y-50638D01*
X17136Y-50626D01*
X17101Y-50602D01*
X17053Y-50590D01*
X16958Y-50590D01*
X16934Y-50602D01*
X16922Y-50614D01*
X16910Y-50638D01*
X16910Y-50686D01*
X16922Y-50710D01*
X16934Y-50721D01*
X16958Y-50733D01*
X17017Y-50733D01*
X17041Y-50721D01*
X17053Y-50710D01*
X17065Y-50686D01*
X17065Y-50638D01*
X17053Y-50614D01*
X17041Y-50602D01*
X17017Y-50590D01*
X23081Y-50948D02*
X23093Y-50960D01*
X23105Y-50995D01*
X23105Y-51019D01*
X23093Y-51055D01*
X23069Y-51079D01*
X23045Y-51090D01*
X22998Y-51102D01*
X22962Y-51102D01*
X22914Y-51090D01*
X22890Y-51079D01*
X22867Y-51055D01*
X22855Y-51019D01*
X22855Y-50995D01*
X22867Y-50960D01*
X22879Y-50948D01*
X23105Y-50710D02*
X23105Y-50852D01*
X23105Y-50781D02*
X22855Y-50781D01*
X22890Y-50805D01*
X22914Y-50829D01*
X22926Y-50852D01*
X22855Y-50555D02*
X22855Y-50531D01*
X22867Y-50507D01*
X22879Y-50495D01*
X22902Y-50483D01*
X22950Y-50471D01*
X23009Y-50471D01*
X23057Y-50483D01*
X23081Y-50495D01*
X23093Y-50507D01*
X23105Y-50531D01*
X23105Y-50555D01*
X23093Y-50579D01*
X23081Y-50590D01*
X23057Y-50602D01*
X23009Y-50614D01*
X22950Y-50614D01*
X22902Y-50602D01*
X22879Y-50590D01*
X22867Y-50579D01*
X22855Y-50555D01*
X15168Y-41105D02*
X15179Y-41117D01*
X15191Y-41153D01*
X15191Y-41177D01*
X15179Y-41212D01*
X15156Y-41236D01*
X15132Y-41248D01*
X15084Y-41260D01*
X15048Y-41260D01*
X15001Y-41248D01*
X14977Y-41236D01*
X14953Y-41212D01*
X14941Y-41177D01*
X14941Y-41153D01*
X14953Y-41117D01*
X14965Y-41105D01*
X15191Y-40867D02*
X15191Y-41010D01*
X15191Y-40938D02*
X14941Y-40938D01*
X14977Y-40962D01*
X15001Y-40986D01*
X15013Y-41010D01*
X15191Y-40629D02*
X15191Y-40772D01*
X15191Y-40700D02*
X14941Y-40700D01*
X14977Y-40724D01*
X15001Y-40748D01*
X15013Y-40772D01*
X18357Y-50948D02*
X18368Y-50960D01*
X18380Y-50995D01*
X18380Y-51019D01*
X18368Y-51055D01*
X18345Y-51079D01*
X18321Y-51090D01*
X18273Y-51102D01*
X18237Y-51102D01*
X18190Y-51090D01*
X18166Y-51079D01*
X18142Y-51055D01*
X18130Y-51019D01*
X18130Y-50995D01*
X18142Y-50960D01*
X18154Y-50948D01*
X18380Y-50710D02*
X18380Y-50852D01*
X18380Y-50781D02*
X18130Y-50781D01*
X18166Y-50805D01*
X18190Y-50829D01*
X18202Y-50852D01*
X18154Y-50614D02*
X18142Y-50602D01*
X18130Y-50579D01*
X18130Y-50519D01*
X18142Y-50495D01*
X18154Y-50483D01*
X18178Y-50471D01*
X18202Y-50471D01*
X18237Y-50483D01*
X18380Y-50626D01*
X18380Y-50471D01*
X24597Y-47404D02*
X24609Y-47416D01*
X24620Y-47452D01*
X24620Y-47476D01*
X24609Y-47511D01*
X24585Y-47535D01*
X24561Y-47547D01*
X24513Y-47559D01*
X24478Y-47559D01*
X24430Y-47547D01*
X24406Y-47535D01*
X24382Y-47511D01*
X24370Y-47476D01*
X24370Y-47452D01*
X24382Y-47416D01*
X24394Y-47404D01*
X24620Y-47166D02*
X24620Y-47309D01*
X24620Y-47238D02*
X24370Y-47238D01*
X24406Y-47261D01*
X24430Y-47285D01*
X24442Y-47309D01*
X24370Y-47083D02*
X24370Y-46928D01*
X24466Y-47011D01*
X24466Y-46976D01*
X24478Y-46952D01*
X24490Y-46940D01*
X24513Y-46928D01*
X24573Y-46928D01*
X24597Y-46940D01*
X24609Y-46952D01*
X24620Y-46976D01*
X24620Y-47047D01*
X24609Y-47071D01*
X24597Y-47083D01*
X11195Y-46455D02*
X11195Y-46155D01*
X11267Y-46155D01*
X11310Y-46169D01*
X11338Y-46197D01*
X11353Y-46226D01*
X11367Y-46283D01*
X11367Y-46326D01*
X11353Y-46383D01*
X11338Y-46412D01*
X11310Y-46440D01*
X11267Y-46455D01*
X11195Y-46455D01*
X11653Y-46455D02*
X11481Y-46455D01*
X11567Y-46455D02*
X11567Y-46155D01*
X11538Y-46197D01*
X11510Y-46226D01*
X11481Y-46240D01*
G54D15*
X10385Y-50762D02*
X9985Y-50762D01*
X10366Y-50590D02*
X10385Y-50533D01*
X10385Y-50438D01*
X10366Y-50400D01*
X10347Y-50381D01*
X10309Y-50362D01*
X10271Y-50362D01*
X10233Y-50381D01*
X10214Y-50400D01*
X10195Y-50438D01*
X10176Y-50514D01*
X10157Y-50552D01*
X10138Y-50571D01*
X10099Y-50590D01*
X10061Y-50590D01*
X10023Y-50571D01*
X10004Y-50552D01*
X9985Y-50514D01*
X9985Y-50419D01*
X10004Y-50362D01*
X10385Y-50190D02*
X9985Y-50190D01*
X9985Y-50038D01*
X10004Y-50000D01*
X10023Y-49981D01*
X10061Y-49962D01*
X10119Y-49962D01*
X10157Y-49981D01*
X10176Y-50000D01*
X10195Y-50038D01*
X10195Y-50190D01*
X10385Y-49581D02*
X10385Y-49809D01*
X10385Y-49695D02*
X9985Y-49695D01*
X10042Y-49733D01*
X10080Y-49771D01*
X10099Y-49809D01*
G54D16*
X13175Y-39717D02*
X13175Y-39931D01*
X13160Y-39974D01*
X13132Y-40003D01*
X13089Y-40017D01*
X13060Y-40017D01*
X13318Y-40017D02*
X13318Y-39717D01*
X13432Y-39717D01*
X13460Y-39731D01*
X13475Y-39746D01*
X13489Y-39774D01*
X13489Y-39817D01*
X13475Y-39846D01*
X13460Y-39860D01*
X13432Y-39874D01*
X13318Y-39874D01*
X13775Y-40017D02*
X13603Y-40017D01*
X13689Y-40017D02*
X13689Y-39717D01*
X13660Y-39760D01*
X13632Y-39789D01*
X13603Y-39803D01*
G54D13*
X25821Y-47285D02*
X25821Y-47404D01*
X25571Y-47404D01*
X25821Y-47071D02*
X25821Y-47214D01*
X25821Y-47142D02*
X25571Y-47142D01*
X25607Y-47166D01*
X25631Y-47190D01*
X25643Y-47214D01*
G54D10*
X18372Y-59626D02*
X18372Y-59233D01*
X18503Y-59514D01*
X18635Y-59233D01*
X18635Y-59626D01*
X18897Y-59233D02*
X18972Y-59233D01*
X19010Y-59251D01*
X19047Y-59289D01*
X19066Y-59364D01*
X19066Y-59495D01*
X19047Y-59570D01*
X19010Y-59608D01*
X18972Y-59626D01*
X18897Y-59626D01*
X18860Y-59608D01*
X18822Y-59570D01*
X18803Y-59495D01*
X18803Y-59364D01*
X18822Y-59289D01*
X18860Y-59251D01*
X18897Y-59233D01*
X19235Y-59626D02*
X19235Y-59233D01*
X19328Y-59233D01*
X19385Y-59251D01*
X19422Y-59289D01*
X19441Y-59326D01*
X19460Y-59401D01*
X19460Y-59458D01*
X19441Y-59533D01*
X19422Y-59570D01*
X19385Y-59608D01*
X19328Y-59626D01*
X19235Y-59626D01*
X19835Y-59626D02*
X19610Y-59626D01*
X19722Y-59626D02*
X19722Y-59233D01*
X19685Y-59289D01*
X19647Y-59326D01*
X19610Y-59345D01*
G54D16*
X44660Y-56472D02*
X44660Y-56172D01*
X44774Y-56172D01*
X44803Y-56186D01*
X44817Y-56200D01*
X44831Y-56229D01*
X44831Y-56272D01*
X44817Y-56300D01*
X44803Y-56315D01*
X44774Y-56329D01*
X44660Y-56329D01*
X45117Y-56472D02*
X44946Y-56472D01*
X45031Y-56472D02*
X45031Y-56172D01*
X45003Y-56215D01*
X44974Y-56243D01*
X44946Y-56258D01*
X41904Y-56472D02*
X41904Y-56172D01*
X42018Y-56172D01*
X42047Y-56186D01*
X42061Y-56200D01*
X42075Y-56229D01*
X42075Y-56272D01*
X42061Y-56300D01*
X42047Y-56315D01*
X42018Y-56329D01*
X41904Y-56329D01*
X42190Y-56200D02*
X42204Y-56186D01*
X42233Y-56172D01*
X42304Y-56172D01*
X42333Y-56186D01*
X42347Y-56200D01*
X42361Y-56229D01*
X42361Y-56258D01*
X42347Y-56300D01*
X42175Y-56472D01*
X42361Y-56472D01*
X14385Y-57221D02*
X14085Y-57221D01*
X14085Y-57107D01*
X14100Y-57078D01*
X14114Y-57064D01*
X14142Y-57050D01*
X14185Y-57050D01*
X14214Y-57064D01*
X14228Y-57078D01*
X14242Y-57107D01*
X14242Y-57221D01*
X14085Y-56950D02*
X14085Y-56764D01*
X14200Y-56864D01*
X14200Y-56821D01*
X14214Y-56792D01*
X14228Y-56778D01*
X14257Y-56764D01*
X14328Y-56764D01*
X14357Y-56778D01*
X14371Y-56792D01*
X14385Y-56821D01*
X14385Y-56907D01*
X14371Y-56935D01*
X14357Y-56950D01*
X14385Y-55221D02*
X14085Y-55221D01*
X14085Y-55107D01*
X14100Y-55078D01*
X14114Y-55064D01*
X14142Y-55050D01*
X14185Y-55050D01*
X14214Y-55064D01*
X14228Y-55078D01*
X14242Y-55107D01*
X14242Y-55221D01*
X14185Y-54792D02*
X14385Y-54792D01*
X14071Y-54864D02*
X14285Y-54935D01*
X14285Y-54750D01*
X14385Y-56221D02*
X14085Y-56221D01*
X14085Y-56107D01*
X14100Y-56078D01*
X14114Y-56064D01*
X14142Y-56050D01*
X14185Y-56050D01*
X14214Y-56064D01*
X14228Y-56078D01*
X14242Y-56107D01*
X14242Y-56221D01*
X14085Y-55778D02*
X14085Y-55921D01*
X14228Y-55935D01*
X14214Y-55921D01*
X14200Y-55892D01*
X14200Y-55821D01*
X14214Y-55792D01*
X14228Y-55778D01*
X14257Y-55764D01*
X14328Y-55764D01*
X14357Y-55778D01*
X14371Y-55792D01*
X14385Y-55821D01*
X14385Y-55892D01*
X14371Y-55921D01*
X14357Y-55935D01*
X13278Y-37385D02*
X13278Y-37085D01*
X13392Y-37085D01*
X13421Y-37100D01*
X13435Y-37114D01*
X13450Y-37142D01*
X13450Y-37185D01*
X13435Y-37214D01*
X13421Y-37228D01*
X13392Y-37242D01*
X13278Y-37242D01*
X13707Y-37085D02*
X13650Y-37085D01*
X13621Y-37100D01*
X13607Y-37114D01*
X13578Y-37157D01*
X13564Y-37214D01*
X13564Y-37328D01*
X13578Y-37357D01*
X13592Y-37371D01*
X13621Y-37385D01*
X13678Y-37385D01*
X13707Y-37371D01*
X13721Y-37357D01*
X13735Y-37328D01*
X13735Y-37257D01*
X13721Y-37228D01*
X13707Y-37214D01*
X13678Y-37200D01*
X13621Y-37200D01*
X13592Y-37214D01*
X13578Y-37228D01*
X13564Y-37257D01*
X14278Y-37385D02*
X14278Y-37085D01*
X14392Y-37085D01*
X14421Y-37100D01*
X14435Y-37114D01*
X14450Y-37142D01*
X14450Y-37185D01*
X14435Y-37214D01*
X14421Y-37228D01*
X14392Y-37242D01*
X14278Y-37242D01*
X14550Y-37085D02*
X14750Y-37085D01*
X14621Y-37385D01*
X15278Y-37385D02*
X15278Y-37085D01*
X15392Y-37085D01*
X15421Y-37100D01*
X15435Y-37114D01*
X15450Y-37142D01*
X15450Y-37185D01*
X15435Y-37214D01*
X15421Y-37228D01*
X15392Y-37242D01*
X15278Y-37242D01*
X15621Y-37214D02*
X15592Y-37200D01*
X15578Y-37185D01*
X15564Y-37157D01*
X15564Y-37142D01*
X15578Y-37114D01*
X15592Y-37100D01*
X15621Y-37085D01*
X15678Y-37085D01*
X15707Y-37100D01*
X15721Y-37114D01*
X15735Y-37142D01*
X15735Y-37157D01*
X15721Y-37185D01*
X15707Y-37200D01*
X15678Y-37214D01*
X15621Y-37214D01*
X15592Y-37228D01*
X15578Y-37242D01*
X15564Y-37271D01*
X15564Y-37328D01*
X15578Y-37357D01*
X15592Y-37371D01*
X15621Y-37385D01*
X15678Y-37385D01*
X15707Y-37371D01*
X15721Y-37357D01*
X15735Y-37328D01*
X15735Y-37271D01*
X15721Y-37242D01*
X15707Y-37228D01*
X15678Y-37214D01*
X22691Y-57224D02*
X22691Y-56924D01*
X22806Y-56924D01*
X22834Y-56938D01*
X22849Y-56952D01*
X22863Y-56981D01*
X22863Y-57024D01*
X22849Y-57052D01*
X22834Y-57067D01*
X22806Y-57081D01*
X22691Y-57081D01*
X23006Y-57224D02*
X23063Y-57224D01*
X23091Y-57210D01*
X23106Y-57195D01*
X23134Y-57152D01*
X23149Y-57095D01*
X23149Y-56981D01*
X23134Y-56952D01*
X23120Y-56938D01*
X23091Y-56924D01*
X23034Y-56924D01*
X23006Y-56938D01*
X22991Y-56952D01*
X22977Y-56981D01*
X22977Y-57052D01*
X22991Y-57081D01*
X23006Y-57095D01*
X23034Y-57110D01*
X23091Y-57110D01*
X23120Y-57095D01*
X23134Y-57081D01*
X23149Y-57052D01*
X22549Y-58322D02*
X22549Y-58022D01*
X22663Y-58022D01*
X22691Y-58037D01*
X22706Y-58051D01*
X22720Y-58079D01*
X22720Y-58122D01*
X22706Y-58151D01*
X22691Y-58165D01*
X22663Y-58179D01*
X22549Y-58179D01*
X23006Y-58322D02*
X22834Y-58322D01*
X22920Y-58322D02*
X22920Y-58022D01*
X22891Y-58065D01*
X22863Y-58094D01*
X22834Y-58108D01*
X23191Y-58022D02*
X23220Y-58022D01*
X23249Y-58037D01*
X23263Y-58051D01*
X23277Y-58079D01*
X23291Y-58137D01*
X23291Y-58208D01*
X23277Y-58265D01*
X23263Y-58294D01*
X23249Y-58308D01*
X23220Y-58322D01*
X23191Y-58322D01*
X23163Y-58308D01*
X23149Y-58294D01*
X23134Y-58265D01*
X23120Y-58208D01*
X23120Y-58137D01*
X23134Y-58079D01*
X23149Y-58051D01*
X23163Y-58037D01*
X23191Y-58022D01*
X18480Y-42372D02*
X18180Y-42372D01*
X18180Y-42257D01*
X18194Y-42229D01*
X18208Y-42215D01*
X18237Y-42200D01*
X18280Y-42200D01*
X18308Y-42215D01*
X18323Y-42229D01*
X18337Y-42257D01*
X18337Y-42372D01*
X18480Y-41915D02*
X18480Y-42086D01*
X18480Y-42000D02*
X18180Y-42000D01*
X18223Y-42029D01*
X18251Y-42057D01*
X18265Y-42086D01*
X18480Y-41629D02*
X18480Y-41800D01*
X18480Y-41715D02*
X18180Y-41715D01*
X18223Y-41743D01*
X18251Y-41772D01*
X18265Y-41800D01*
X10803Y-44773D02*
X10503Y-44773D01*
X10503Y-44659D01*
X10517Y-44630D01*
X10531Y-44616D01*
X10560Y-44602D01*
X10603Y-44602D01*
X10631Y-44616D01*
X10645Y-44630D01*
X10660Y-44659D01*
X10660Y-44773D01*
X10803Y-44316D02*
X10803Y-44488D01*
X10803Y-44402D02*
X10503Y-44402D01*
X10545Y-44430D01*
X10574Y-44459D01*
X10588Y-44488D01*
X10531Y-44202D02*
X10517Y-44188D01*
X10503Y-44159D01*
X10503Y-44088D01*
X10517Y-44059D01*
X10531Y-44045D01*
X10560Y-44030D01*
X10588Y-44030D01*
X10631Y-44045D01*
X10803Y-44216D01*
X10803Y-44030D01*
X23635Y-42385D02*
X23635Y-42085D01*
X23750Y-42085D01*
X23778Y-42100D01*
X23792Y-42114D01*
X23807Y-42142D01*
X23807Y-42185D01*
X23792Y-42214D01*
X23778Y-42228D01*
X23750Y-42242D01*
X23635Y-42242D01*
X24092Y-42385D02*
X23921Y-42385D01*
X24007Y-42385D02*
X24007Y-42085D01*
X23978Y-42128D01*
X23950Y-42157D01*
X23921Y-42171D01*
X24192Y-42085D02*
X24378Y-42085D01*
X24278Y-42200D01*
X24321Y-42200D01*
X24350Y-42214D01*
X24364Y-42228D01*
X24378Y-42257D01*
X24378Y-42328D01*
X24364Y-42357D01*
X24350Y-42371D01*
X24321Y-42385D01*
X24235Y-42385D01*
X24207Y-42371D01*
X24192Y-42357D01*
X23635Y-38385D02*
X23635Y-38085D01*
X23750Y-38085D01*
X23778Y-38100D01*
X23792Y-38114D01*
X23807Y-38142D01*
X23807Y-38185D01*
X23792Y-38214D01*
X23778Y-38228D01*
X23750Y-38242D01*
X23635Y-38242D01*
X24092Y-38385D02*
X23921Y-38385D01*
X24007Y-38385D02*
X24007Y-38085D01*
X23978Y-38128D01*
X23950Y-38157D01*
X23921Y-38171D01*
X24350Y-38185D02*
X24350Y-38385D01*
X24278Y-38071D02*
X24207Y-38285D01*
X24392Y-38285D01*
X32180Y-39734D02*
X31880Y-39734D01*
X31880Y-39620D01*
X31895Y-39591D01*
X31909Y-39577D01*
X31938Y-39562D01*
X31980Y-39562D01*
X32009Y-39577D01*
X32023Y-39591D01*
X32038Y-39620D01*
X32038Y-39734D01*
X32180Y-39277D02*
X32180Y-39448D01*
X32180Y-39362D02*
X31880Y-39362D01*
X31923Y-39391D01*
X31952Y-39420D01*
X31966Y-39448D01*
X31880Y-39005D02*
X31880Y-39148D01*
X32023Y-39162D01*
X32009Y-39148D01*
X31995Y-39120D01*
X31995Y-39048D01*
X32009Y-39020D01*
X32023Y-39005D01*
X32052Y-38991D01*
X32123Y-38991D01*
X32152Y-39005D01*
X32166Y-39020D01*
X32180Y-39048D01*
X32180Y-39120D01*
X32166Y-39148D01*
X32152Y-39162D01*
G54D15*
X27632Y-40708D02*
X27632Y-40308D01*
X27784Y-40308D01*
X27822Y-40327D01*
X27841Y-40346D01*
X27860Y-40384D01*
X27860Y-40441D01*
X27841Y-40479D01*
X27822Y-40498D01*
X27784Y-40518D01*
X27632Y-40518D01*
X28241Y-40708D02*
X28013Y-40708D01*
X28127Y-40708D02*
X28127Y-40308D01*
X28089Y-40365D01*
X28051Y-40403D01*
X28013Y-40422D01*
X28584Y-40308D02*
X28508Y-40308D01*
X28470Y-40327D01*
X28451Y-40346D01*
X28413Y-40403D01*
X28394Y-40479D01*
X28394Y-40632D01*
X28413Y-40670D01*
X28432Y-40689D01*
X28470Y-40708D01*
X28546Y-40708D01*
X28584Y-40689D01*
X28603Y-40670D01*
X28622Y-40632D01*
X28622Y-40537D01*
X28603Y-40498D01*
X28584Y-40479D01*
X28546Y-40460D01*
X28470Y-40460D01*
X28432Y-40479D01*
X28413Y-40498D01*
X28394Y-40537D01*
G54D19*
X22777Y-39773D02*
X22720Y-39744D01*
X22663Y-39687D01*
X22577Y-39602D01*
X22520Y-39573D01*
X22463Y-39573D01*
X22491Y-39716D02*
X22434Y-39687D01*
X22377Y-39630D01*
X22348Y-39516D01*
X22348Y-39316D01*
X22377Y-39202D01*
X22434Y-39144D01*
X22491Y-39116D01*
X22606Y-39116D01*
X22663Y-39144D01*
X22720Y-39202D01*
X22748Y-39316D01*
X22748Y-39516D01*
X22720Y-39630D01*
X22663Y-39687D01*
X22606Y-39716D01*
X22491Y-39716D01*
X23320Y-39716D02*
X22977Y-39716D01*
X23148Y-39716D02*
X23148Y-39116D01*
X23091Y-39202D01*
X23034Y-39259D01*
X22977Y-39287D01*
G54D13*
X17554Y-40986D02*
X17435Y-41069D01*
X17554Y-41129D02*
X17304Y-41129D01*
X17304Y-41034D01*
X17316Y-41010D01*
X17328Y-40998D01*
X17351Y-40986D01*
X17387Y-40986D01*
X17411Y-40998D01*
X17423Y-41010D01*
X17435Y-41034D01*
X17435Y-41129D01*
X17554Y-40748D02*
X17554Y-40891D01*
X17554Y-40819D02*
X17304Y-40819D01*
X17339Y-40843D01*
X17363Y-40867D01*
X17375Y-40891D01*
X18735Y-40986D02*
X18616Y-41069D01*
X18735Y-41129D02*
X18485Y-41129D01*
X18485Y-41034D01*
X18497Y-41010D01*
X18508Y-40998D01*
X18532Y-40986D01*
X18568Y-40986D01*
X18592Y-40998D01*
X18604Y-41010D01*
X18616Y-41034D01*
X18616Y-41129D01*
X18508Y-40891D02*
X18497Y-40879D01*
X18485Y-40855D01*
X18485Y-40796D01*
X18497Y-40772D01*
X18508Y-40760D01*
X18532Y-40748D01*
X18556Y-40748D01*
X18592Y-40760D01*
X18735Y-40903D01*
X18735Y-40748D01*
X15979Y-50829D02*
X15860Y-50912D01*
X15979Y-50971D02*
X15729Y-50971D01*
X15729Y-50876D01*
X15741Y-50852D01*
X15753Y-50840D01*
X15777Y-50829D01*
X15812Y-50829D01*
X15836Y-50840D01*
X15848Y-50852D01*
X15860Y-50876D01*
X15860Y-50971D01*
X15729Y-50745D02*
X15729Y-50590D01*
X15824Y-50674D01*
X15824Y-50638D01*
X15836Y-50614D01*
X15848Y-50602D01*
X15872Y-50590D01*
X15931Y-50590D01*
X15955Y-50602D01*
X15967Y-50614D01*
X15979Y-50638D01*
X15979Y-50710D01*
X15967Y-50733D01*
X15955Y-50745D01*
X14918Y-44089D02*
X14835Y-43970D01*
X14776Y-44089D02*
X14776Y-43839D01*
X14871Y-43839D01*
X14895Y-43851D01*
X14907Y-43863D01*
X14918Y-43886D01*
X14918Y-43922D01*
X14907Y-43946D01*
X14895Y-43958D01*
X14871Y-43970D01*
X14776Y-43970D01*
X15133Y-43922D02*
X15133Y-44089D01*
X15073Y-43827D02*
X15014Y-44005D01*
X15168Y-44005D01*
X14918Y-42908D02*
X14835Y-42789D01*
X14776Y-42908D02*
X14776Y-42658D01*
X14871Y-42658D01*
X14895Y-42670D01*
X14907Y-42681D01*
X14918Y-42705D01*
X14918Y-42741D01*
X14907Y-42765D01*
X14895Y-42777D01*
X14871Y-42789D01*
X14776Y-42789D01*
X15145Y-42658D02*
X15026Y-42658D01*
X15014Y-42777D01*
X15026Y-42765D01*
X15049Y-42753D01*
X15109Y-42753D01*
X15133Y-42765D01*
X15145Y-42777D01*
X15157Y-42801D01*
X15157Y-42860D01*
X15145Y-42884D01*
X15133Y-42896D01*
X15109Y-42908D01*
X15049Y-42908D01*
X15026Y-42896D01*
X15014Y-42884D01*
X11375Y-45231D02*
X11292Y-45112D01*
X11232Y-45231D02*
X11232Y-44981D01*
X11328Y-44981D01*
X11351Y-44993D01*
X11363Y-45005D01*
X11375Y-45028D01*
X11375Y-45064D01*
X11363Y-45088D01*
X11351Y-45100D01*
X11328Y-45112D01*
X11232Y-45112D01*
X11589Y-44981D02*
X11542Y-44981D01*
X11518Y-44993D01*
X11506Y-45005D01*
X11482Y-45040D01*
X11470Y-45088D01*
X11470Y-45183D01*
X11482Y-45207D01*
X11494Y-45219D01*
X11518Y-45231D01*
X11566Y-45231D01*
X11589Y-45219D01*
X11601Y-45207D01*
X11613Y-45183D01*
X11613Y-45124D01*
X11601Y-45100D01*
X11589Y-45088D01*
X11566Y-45076D01*
X11518Y-45076D01*
X11494Y-45088D01*
X11482Y-45100D01*
X11470Y-45124D01*
X24640Y-40986D02*
X24521Y-41069D01*
X24640Y-41129D02*
X24390Y-41129D01*
X24390Y-41034D01*
X24402Y-41010D01*
X24414Y-40998D01*
X24438Y-40986D01*
X24473Y-40986D01*
X24497Y-40998D01*
X24509Y-41010D01*
X24521Y-41034D01*
X24521Y-41129D01*
X24390Y-40903D02*
X24390Y-40736D01*
X24640Y-40843D01*
X25821Y-40986D02*
X25702Y-41069D01*
X25821Y-41129D02*
X25571Y-41129D01*
X25571Y-41034D01*
X25583Y-41010D01*
X25595Y-40998D01*
X25619Y-40986D01*
X25655Y-40986D01*
X25679Y-40998D01*
X25690Y-41010D01*
X25702Y-41034D01*
X25702Y-41129D01*
X25679Y-40843D02*
X25667Y-40867D01*
X25655Y-40879D01*
X25631Y-40891D01*
X25619Y-40891D01*
X25595Y-40879D01*
X25583Y-40867D01*
X25571Y-40843D01*
X25571Y-40796D01*
X25583Y-40772D01*
X25595Y-40760D01*
X25619Y-40748D01*
X25631Y-40748D01*
X25655Y-40760D01*
X25667Y-40772D01*
X25679Y-40796D01*
X25679Y-40843D01*
X25690Y-40867D01*
X25702Y-40879D01*
X25726Y-40891D01*
X25774Y-40891D01*
X25798Y-40879D01*
X25810Y-40867D01*
X25821Y-40843D01*
X25821Y-40796D01*
X25810Y-40772D01*
X25798Y-40760D01*
X25774Y-40748D01*
X25726Y-40748D01*
X25702Y-40760D01*
X25690Y-40772D01*
X25679Y-40796D01*
X23974Y-52199D02*
X23890Y-52080D01*
X23831Y-52199D02*
X23831Y-51949D01*
X23926Y-51949D01*
X23950Y-51961D01*
X23962Y-51973D01*
X23974Y-51997D01*
X23974Y-52033D01*
X23962Y-52057D01*
X23950Y-52068D01*
X23926Y-52080D01*
X23831Y-52080D01*
X24093Y-52199D02*
X24140Y-52199D01*
X24164Y-52187D01*
X24176Y-52176D01*
X24200Y-52140D01*
X24212Y-52092D01*
X24212Y-51997D01*
X24200Y-51973D01*
X24188Y-51961D01*
X24164Y-51949D01*
X24116Y-51949D01*
X24093Y-51961D01*
X24081Y-51973D01*
X24069Y-51997D01*
X24069Y-52057D01*
X24081Y-52080D01*
X24093Y-52092D01*
X24116Y-52104D01*
X24164Y-52104D01*
X24188Y-52092D01*
X24200Y-52080D01*
X24212Y-52057D01*
X23855Y-53381D02*
X23771Y-53261D01*
X23712Y-53381D02*
X23712Y-53131D01*
X23807Y-53131D01*
X23831Y-53142D01*
X23843Y-53154D01*
X23855Y-53178D01*
X23855Y-53214D01*
X23843Y-53238D01*
X23831Y-53250D01*
X23807Y-53261D01*
X23712Y-53261D01*
X24093Y-53381D02*
X23950Y-53381D01*
X24021Y-53381D02*
X24021Y-53131D01*
X23997Y-53166D01*
X23974Y-53190D01*
X23950Y-53202D01*
X24247Y-53131D02*
X24271Y-53131D01*
X24295Y-53142D01*
X24307Y-53154D01*
X24319Y-53178D01*
X24331Y-53226D01*
X24331Y-53285D01*
X24319Y-53333D01*
X24307Y-53357D01*
X24295Y-53369D01*
X24271Y-53381D01*
X24247Y-53381D01*
X24224Y-53369D01*
X24212Y-53357D01*
X24200Y-53333D01*
X24188Y-53285D01*
X24188Y-53226D01*
X24200Y-53178D01*
X24212Y-53154D01*
X24224Y-53142D01*
X24247Y-53131D01*
X23855Y-55743D02*
X23771Y-55624D01*
X23712Y-55743D02*
X23712Y-55493D01*
X23807Y-55493D01*
X23831Y-55505D01*
X23843Y-55517D01*
X23855Y-55540D01*
X23855Y-55576D01*
X23843Y-55600D01*
X23831Y-55612D01*
X23807Y-55624D01*
X23712Y-55624D01*
X24093Y-55743D02*
X23950Y-55743D01*
X24021Y-55743D02*
X24021Y-55493D01*
X23997Y-55528D01*
X23974Y-55552D01*
X23950Y-55564D01*
X24331Y-55743D02*
X24188Y-55743D01*
X24259Y-55743D02*
X24259Y-55493D01*
X24235Y-55528D01*
X24212Y-55552D01*
X24188Y-55564D01*
X23855Y-54562D02*
X23771Y-54443D01*
X23712Y-54562D02*
X23712Y-54312D01*
X23807Y-54312D01*
X23831Y-54324D01*
X23843Y-54335D01*
X23855Y-54359D01*
X23855Y-54395D01*
X23843Y-54419D01*
X23831Y-54431D01*
X23807Y-54443D01*
X23712Y-54443D01*
X24093Y-54562D02*
X23950Y-54562D01*
X24021Y-54562D02*
X24021Y-54312D01*
X23997Y-54347D01*
X23974Y-54371D01*
X23950Y-54383D01*
X24188Y-54335D02*
X24200Y-54324D01*
X24224Y-54312D01*
X24283Y-54312D01*
X24307Y-54324D01*
X24319Y-54335D01*
X24331Y-54359D01*
X24331Y-54383D01*
X24319Y-54419D01*
X24176Y-54562D01*
X24331Y-54562D01*
X14798Y-50948D02*
X14679Y-51031D01*
X14798Y-51090D02*
X14548Y-51090D01*
X14548Y-50995D01*
X14560Y-50971D01*
X14572Y-50960D01*
X14595Y-50948D01*
X14631Y-50948D01*
X14655Y-50960D01*
X14667Y-50971D01*
X14679Y-50995D01*
X14679Y-51090D01*
X14798Y-50710D02*
X14798Y-50852D01*
X14798Y-50781D02*
X14548Y-50781D01*
X14584Y-50805D01*
X14607Y-50829D01*
X14619Y-50852D01*
X14548Y-50626D02*
X14548Y-50471D01*
X14643Y-50555D01*
X14643Y-50519D01*
X14655Y-50495D01*
X14667Y-50483D01*
X14691Y-50471D01*
X14750Y-50471D01*
X14774Y-50483D01*
X14786Y-50495D01*
X14798Y-50519D01*
X14798Y-50590D01*
X14786Y-50614D01*
X14774Y-50626D01*
G54D19*
X34975Y-56935D02*
X35061Y-56964D01*
X35204Y-56964D01*
X35261Y-56935D01*
X35290Y-56907D01*
X35318Y-56850D01*
X35318Y-56792D01*
X35290Y-56735D01*
X35261Y-56707D01*
X35204Y-56678D01*
X35090Y-56650D01*
X35033Y-56621D01*
X35004Y-56592D01*
X34975Y-56535D01*
X34975Y-56478D01*
X35004Y-56421D01*
X35033Y-56392D01*
X35090Y-56364D01*
X35233Y-56364D01*
X35318Y-56392D01*
X35890Y-56964D02*
X35547Y-56964D01*
X35718Y-56964D02*
X35718Y-56364D01*
X35661Y-56450D01*
X35604Y-56507D01*
X35547Y-56535D01*
X18834Y-40006D02*
X18919Y-40035D01*
X19062Y-40035D01*
X19119Y-40006D01*
X19148Y-39978D01*
X19177Y-39920D01*
X19177Y-39863D01*
X19148Y-39806D01*
X19119Y-39778D01*
X19062Y-39749D01*
X18948Y-39720D01*
X18891Y-39692D01*
X18862Y-39663D01*
X18834Y-39606D01*
X18834Y-39549D01*
X18862Y-39492D01*
X18891Y-39463D01*
X18948Y-39435D01*
X19091Y-39435D01*
X19177Y-39463D01*
X19405Y-39492D02*
X19434Y-39463D01*
X19491Y-39435D01*
X19634Y-39435D01*
X19691Y-39463D01*
X19719Y-39492D01*
X19748Y-39549D01*
X19748Y-39606D01*
X19719Y-39692D01*
X19377Y-40035D01*
X19748Y-40035D01*
X13546Y-56043D02*
X13574Y-55958D01*
X13574Y-55815D01*
X13546Y-55758D01*
X13517Y-55729D01*
X13460Y-55700D01*
X13403Y-55700D01*
X13346Y-55729D01*
X13317Y-55758D01*
X13288Y-55815D01*
X13260Y-55929D01*
X13231Y-55986D01*
X13203Y-56015D01*
X13146Y-56043D01*
X13088Y-56043D01*
X13031Y-56015D01*
X13003Y-55986D01*
X12974Y-55929D01*
X12974Y-55786D01*
X13003Y-55700D01*
X12974Y-55500D02*
X12974Y-55129D01*
X13203Y-55329D01*
X13203Y-55243D01*
X13231Y-55186D01*
X13260Y-55158D01*
X13317Y-55129D01*
X13460Y-55129D01*
X13517Y-55158D01*
X13546Y-55186D01*
X13574Y-55243D01*
X13574Y-55415D01*
X13546Y-55472D01*
X13517Y-55500D01*
G54D10*
X33623Y-38882D02*
X33642Y-38826D01*
X33642Y-38732D01*
X33623Y-38695D01*
X33605Y-38676D01*
X33567Y-38657D01*
X33530Y-38657D01*
X33492Y-38676D01*
X33473Y-38695D01*
X33455Y-38732D01*
X33436Y-38807D01*
X33417Y-38845D01*
X33398Y-38863D01*
X33361Y-38882D01*
X33323Y-38882D01*
X33286Y-38863D01*
X33267Y-38845D01*
X33248Y-38807D01*
X33248Y-38713D01*
X33267Y-38657D01*
X33380Y-38320D02*
X33642Y-38320D01*
X33230Y-38413D02*
X33511Y-38507D01*
X33511Y-38263D01*
X29668Y-56493D02*
X29668Y-56811D01*
X29687Y-56849D01*
X29706Y-56868D01*
X29743Y-56886D01*
X29818Y-56886D01*
X29856Y-56868D01*
X29874Y-56849D01*
X29893Y-56811D01*
X29893Y-56493D01*
X30287Y-56886D02*
X30062Y-56886D01*
X30174Y-56886D02*
X30174Y-56493D01*
X30137Y-56549D01*
X30099Y-56586D01*
X30062Y-56605D01*
G54D19*
X16235Y-42545D02*
X16235Y-43031D01*
X16264Y-43088D01*
X16292Y-43116D01*
X16350Y-43145D01*
X16464Y-43145D01*
X16521Y-43116D01*
X16550Y-43088D01*
X16578Y-43031D01*
X16578Y-42545D01*
X16835Y-42602D02*
X16864Y-42574D01*
X16921Y-42545D01*
X17064Y-42545D01*
X17121Y-42574D01*
X17150Y-42602D01*
X17178Y-42659D01*
X17178Y-42716D01*
X17150Y-42802D01*
X16807Y-43145D01*
X17178Y-43145D01*
X12187Y-40932D02*
X12672Y-40932D01*
X12730Y-40904D01*
X12758Y-40875D01*
X12787Y-40818D01*
X12787Y-40704D01*
X12758Y-40646D01*
X12730Y-40618D01*
X12672Y-40589D01*
X12187Y-40589D01*
X12758Y-40332D02*
X12787Y-40246D01*
X12787Y-40104D01*
X12758Y-40046D01*
X12730Y-40018D01*
X12672Y-39989D01*
X12615Y-39989D01*
X12558Y-40018D01*
X12530Y-40046D01*
X12501Y-40104D01*
X12472Y-40218D01*
X12444Y-40275D01*
X12415Y-40304D01*
X12358Y-40332D01*
X12301Y-40332D01*
X12244Y-40304D01*
X12215Y-40275D01*
X12187Y-40218D01*
X12187Y-40075D01*
X12215Y-39989D01*
X12472Y-39532D02*
X12501Y-39446D01*
X12530Y-39418D01*
X12587Y-39389D01*
X12672Y-39389D01*
X12730Y-39418D01*
X12758Y-39446D01*
X12787Y-39504D01*
X12787Y-39732D01*
X12187Y-39732D01*
X12187Y-39532D01*
X12215Y-39475D01*
X12244Y-39446D01*
X12301Y-39418D01*
X12358Y-39418D01*
X12415Y-39446D01*
X12444Y-39475D01*
X12472Y-39532D01*
X12472Y-39732D01*
X12787Y-38818D02*
X12787Y-39161D01*
X12787Y-38989D02*
X12187Y-38989D01*
X12272Y-39046D01*
X12330Y-39104D01*
X12358Y-39161D01*
G54D13*
X19835Y-49638D02*
X20035Y-49938D01*
X20035Y-49638D02*
X19835Y-49938D01*
X20307Y-49938D02*
X20135Y-49938D01*
X20221Y-49938D02*
X20221Y-49638D01*
X20193Y-49681D01*
X20164Y-49710D01*
X20135Y-49724D01*
G54D10*
X23762Y-56439D02*
X23743Y-56458D01*
X23687Y-56477D01*
X23650Y-56477D01*
X23593Y-56458D01*
X23556Y-56421D01*
X23537Y-56383D01*
X23518Y-56308D01*
X23518Y-56252D01*
X23537Y-56177D01*
X23556Y-56139D01*
X23593Y-56102D01*
X23650Y-56083D01*
X23687Y-56083D01*
X23743Y-56102D01*
X23762Y-56121D01*
X24137Y-56477D02*
X23912Y-56477D01*
X24025Y-56477D02*
X24025Y-56083D01*
X23987Y-56139D01*
X23950Y-56177D01*
X23912Y-56196D01*
X24475Y-56214D02*
X24475Y-56477D01*
X24381Y-56064D02*
X24287Y-56346D01*
X24531Y-56346D01*
%LPC*%
G54D20*
X45669Y-53543D03*
G54D21*
X45669Y-48543D03*
G54D22*
X39763Y-57283D03*
X39763Y-59251D03*
G54D23*
X31889Y-58839D03*
X31889Y-58089D03*
X27952Y-58839D03*
X27952Y-58089D03*
X19291Y-41319D03*
X19291Y-40569D03*
X15748Y-41319D03*
X15748Y-40569D03*
G54D24*
X15335Y-46850D03*
X14585Y-46850D03*
X15335Y-45669D03*
X14585Y-45669D03*
G54D23*
X21653Y-41319D03*
X21653Y-40569D03*
X16535Y-50412D03*
X16535Y-51162D03*
X22440Y-51162D03*
X22440Y-50412D03*
X14566Y-41319D03*
X14566Y-40569D03*
X17716Y-51162D03*
X17716Y-50412D03*
X24015Y-47619D03*
X24015Y-46869D03*
G54D25*
X11004Y-46850D03*
X11830Y-46850D03*
G54D20*
X12204Y-51181D03*
G54D21*
X11204Y-51181D03*
X12204Y-50181D03*
X11204Y-50181D03*
X12204Y-49181D03*
X11204Y-49181D03*
G54D20*
X13779Y-39173D03*
G54D21*
X14779Y-39173D03*
G54D23*
X25196Y-46869D03*
X25196Y-47619D03*
G54D26*
X16535Y-53937D03*
X16535Y-54724D03*
X16535Y-55511D03*
X16535Y-56299D03*
X16535Y-57086D03*
X16535Y-57874D03*
X16535Y-58661D03*
X21653Y-58661D03*
X21653Y-57874D03*
X21653Y-57086D03*
X21653Y-56299D03*
X21653Y-55511D03*
X21653Y-54724D03*
X21653Y-53937D03*
G54D21*
X44881Y-57086D03*
X42125Y-57086D03*
X15000Y-57000D03*
X15000Y-55000D03*
X15000Y-56000D03*
X13500Y-38000D03*
X14500Y-38000D03*
X15500Y-38000D03*
X22913Y-56338D03*
X22913Y-58937D03*
X19094Y-42007D03*
X11417Y-44409D03*
X24000Y-43000D03*
X24000Y-39000D03*
X32795Y-39370D03*
G54D20*
X25665Y-39370D03*
G54D21*
X25665Y-38370D03*
X26665Y-39370D03*
X26665Y-38370D03*
X27665Y-39370D03*
X27665Y-38370D03*
X28665Y-38370D03*
X28665Y-39370D03*
X29665Y-38370D03*
X29665Y-39370D03*
X30665Y-38370D03*
X30665Y-39370D03*
G54D27*
X22834Y-41377D03*
X23208Y-40511D03*
X22460Y-40511D03*
G54D23*
X16929Y-40569D03*
X16929Y-41319D03*
X18110Y-41319D03*
X18110Y-40569D03*
X15354Y-50412D03*
X15354Y-51162D03*
G54D24*
X14585Y-44488D03*
X15335Y-44488D03*
X14585Y-43307D03*
X15335Y-43307D03*
X11792Y-45669D03*
X11042Y-45669D03*
G54D23*
X24015Y-41319D03*
X24015Y-40569D03*
X25196Y-40569D03*
X25196Y-41319D03*
G54D24*
X24390Y-51574D03*
X23640Y-51574D03*
X24390Y-52755D03*
X23640Y-52755D03*
X24390Y-55118D03*
X23640Y-55118D03*
X24390Y-53937D03*
X23640Y-53937D03*
G54D23*
X14173Y-50412D03*
X14173Y-51162D03*
G54D28*
X36220Y-58267D03*
X35433Y-58267D03*
X34645Y-58267D03*
G54D29*
X37047Y-58267D03*
X33818Y-58267D03*
G54D28*
X20866Y-38582D03*
X19291Y-38582D03*
X18503Y-38582D03*
G54D29*
X21693Y-38582D03*
X16889Y-38582D03*
G54D28*
X17716Y-38582D03*
G54D30*
X10531Y-57165D03*
X10531Y-53857D03*
X12303Y-57165D03*
X12303Y-53857D03*
G54D31*
X34448Y-38582D03*
G54D32*
X34448Y-39370D03*
G54D33*
X29921Y-57814D03*
X30512Y-57814D03*
X29330Y-57814D03*
G54D10*
G36*
X30076Y-58051D02*
X30316Y-58366D01*
X29525Y-58366D01*
X29765Y-58051D01*
X30076Y-58051D01*
X30076Y-58051D01*
G37*
G54D34*
X29921Y-58775D03*
G54D10*
G36*
X30316Y-59185D02*
X30076Y-59500D01*
X29765Y-59500D01*
X29525Y-59185D01*
X30316Y-59185D01*
X30316Y-59185D01*
G37*
G54D35*
X19291Y-42913D03*
X19291Y-47637D03*
G54D36*
X16929Y-45275D03*
X21653Y-45275D03*
X16929Y-44960D03*
X16929Y-44645D03*
X16929Y-44330D03*
X16929Y-44015D03*
X16929Y-43700D03*
X16929Y-45590D03*
X16929Y-45905D03*
X16929Y-46220D03*
X16929Y-46535D03*
X16929Y-46850D03*
X21653Y-44960D03*
X21653Y-44645D03*
X21653Y-44330D03*
X21653Y-44015D03*
X21653Y-43700D03*
X21653Y-45590D03*
X21653Y-45905D03*
X21653Y-46220D03*
X21653Y-46535D03*
X21653Y-46850D03*
G54D35*
X19606Y-42913D03*
X19921Y-42913D03*
X20236Y-42913D03*
X20551Y-42913D03*
X20866Y-42913D03*
X18976Y-42913D03*
X18661Y-42913D03*
X18346Y-42913D03*
X18031Y-42913D03*
X17716Y-42913D03*
X19606Y-47637D03*
X19921Y-47637D03*
X20236Y-47637D03*
X20551Y-47637D03*
X20866Y-47637D03*
X18976Y-47637D03*
X18661Y-47637D03*
X18346Y-47637D03*
X18031Y-47637D03*
X17716Y-47637D03*
G54D37*
X11417Y-43227D03*
X11417Y-41023D03*
G54D38*
X12263Y-42125D03*
G54D39*
X11515Y-42125D03*
X11515Y-42381D03*
X11515Y-42637D03*
X11515Y-41869D03*
X11515Y-41613D03*
G54D40*
X19133Y-50787D03*
X21023Y-50787D03*
G54D22*
X25196Y-57283D03*
X25196Y-59251D03*
M02*
