M48
;DRILL file {Pcbnew (2014-jan-25)-product} date Sat 06 Jun 2015 15:44:40 BST
;FORMAT={-:-/ absolute / inch / decimal}
FMAT,2
INCH,TZ
T1C0.018
T2C0.020
T3C0.025
T4C0.032
T5C0.035
T6C0.040
T7C0.059
%
G90
G05
M72
T1
X3.4449Y-3.937
T3
X1.1181Y-5.2638
X1.2165Y-4.1181
X1.2598Y-4.685
X1.3031Y-5.3858
X1.3346Y-5.1575
X1.3346Y-5.2638
X1.3622Y-4.2953
X1.3622Y-4.3661
X1.378Y-4.5669
X1.378Y-4.685
X1.4567Y-3.9921
X1.4764Y-5.0433
X1.4764Y-5.1693
X1.5354Y-5.3937
X1.5748Y-3.9921
X1.6535Y-5.1969
X1.7717Y-5.1969
X1.8031Y-4.3661
X1.8031Y-4.4803
X1.811Y-3.9921
X1.8504Y-4.5276
X1.8898Y-4.5276
X1.9055Y-4.4843
X1.9173Y-4.6417
X1.9291Y-3.9921
X1.9291Y-4.4409
X1.9291Y-4.5276
X1.9606Y-4.5748
X2.Y-4.5984
X2.0197Y-4.4843
X2.0591Y-4.6417
X2.0669Y-4.4409
X2.1654Y-3.9921
X2.2441Y-4.7598
X2.2441Y-5.1969
X2.2835Y-5.5512
X2.3228Y-4.685
X2.3228Y-4.7598
X2.4Y-4.2
X2.5197Y-4.5276
X2.5197Y-5.5709
X2.7165Y-4.5276
X2.7559Y-4.4882
X2.7756Y-4.5512
X2.7756Y-4.5984
X2.7953Y-5.7087
X2.9173Y-3.7638
X3.0157Y-3.7638
X3.0512Y-5.7087
X3.189Y-5.7087
X3.2795Y-3.815
X3.9764Y-5.5709
X4.2126Y-5.5709
T4
X1.7716Y-3.8583
X1.8503Y-3.8583
X1.9291Y-3.8583
X2.0866Y-3.8583
X3.4645Y-5.8268
X3.5433Y-5.8268
X3.622Y-5.8268
T5
X3.4449Y-3.8583
T6
X1.1205Y-4.9181
X1.1205Y-5.0181
X1.1205Y-5.1181
X1.1417Y-4.4409
X1.2205Y-4.9181
X1.2205Y-5.0181
X1.2205Y-5.1181
X1.35Y-3.8
X1.378Y-3.9173
X1.45Y-3.8
X1.478Y-3.9173
X1.5Y-5.5
X1.5Y-5.6
X1.5Y-5.7
X1.55Y-3.8
X1.9094Y-4.2008
X2.2913Y-5.6339
X2.2913Y-5.8937
X2.4Y-3.9
X2.4Y-4.3
X2.5665Y-3.837
X2.5665Y-3.937
X2.6665Y-3.837
X2.6665Y-3.937
X2.7665Y-3.837
X2.7665Y-3.937
X2.8665Y-3.837
X2.8665Y-3.937
X2.9665Y-3.837
X2.9665Y-3.937
X3.0665Y-3.837
X3.0665Y-3.937
X3.2795Y-3.937
X4.2126Y-5.7087
X4.4882Y-5.7087
X4.5669Y-4.8543
X4.5669Y-5.3543
T7
X1.6889Y-3.8583
X2.1693Y-3.8583
X3.3818Y-5.8268
X3.7047Y-5.8268
T2
X1.1417Y-4.0886G85X1.1417Y-4.1161
G05
X1.1417Y-4.309G85X1.1417Y-4.3365
G05
X1.2263Y-4.1909G85X1.2263Y-4.2342
G05
T0
M30
